Drafting-BoldItalic.ufo
<glyph name="exclam" format="2">
  <advance width="1200"/>
  <unicode hex="0021"/>
  <outline>
    <contour>
      <point x="351" y="180" type="curve" smooth="yes"/>
      <point x="351" y="298"/>
      <point x="432" y="380"/>
      <point x="550" y="380" type="curve" smooth="yes"/>
      <point x="668" y="380"/>
      <point x="749" y="298"/>
      <point x="749" y="180" type="curve" smooth="yes"/>
      <point x="749" y="62"/>
      <point x="673" y="-20"/>
      <point x="555" y="-20" type="curve" smooth="yes"/>
      <point x="437" y="-20"/>
      <point x="351" y="62"/>
    </contour>
    <contour>
      <point x="530" y="540" type="line"/>
      <point x="580" y="1340" type="line"/>
      <point x="940" y="1340" type="line"/>
      <point x="690" y="540" type="line"/>
    </contour>
  </outline>
</glyph>
<glyph name="quotedbl" format="2">
  <advance width="1200"/>
  <unicode hex="0022"/>
  <outline>
    <contour>
      <point x="784" y="730" type="line"/>
      <point x="831" y="1340" type="line"/>
      <point x="1141" y="1340" type="line"/>
      <point x="944" y="730" type="line"/>
    </contour>
    <contour>
      <point x="324" y="730" type="line"/>
      <point x="371" y="1340" type="line"/>
      <point x="681" y="1340" type="line"/>
      <point x="484" y="730" type="line"/>
    </contour>
  </outline>
</glyph>
<glyph name="numbersign" format="2">
  <advance width="1200"/>
  <unicode hex="0023"/>
  <outline>
    <contour>
      <point x="193" y="985" type="line"/>
      <point x="1285" y="985" type="line"/>
      <point x="1245" y="760" type="line"/>
      <point x="153" y="760" type="line"/>
    </contour>
    <contour>
      <point x="63" y="590" type="line"/>
      <point x="1155" y="590" type="line"/>
      <point x="1115" y="365" type="line"/>
      <point x="23" y="365" type="line"/>
    </contour>
    <contour>
      <point x="1015" y="1330" type="line"/>
      <point x="1233" y="1260" type="line"/>
      <point x="694" y="-40" type="line"/>
      <point x="475" y="30" type="line"/>
    </contour>
    <contour>
      <point x="585" y="1330" type="line"/>
      <point x="803" y="1260" type="line"/>
      <point x="264" y="-40" type="line"/>
      <point x="45" y="30" type="line"/>
    </contour>
  </outline>
</glyph>
<glyph name="dollar" format="2">
  <advance width="1200"/>
  <unicode hex="0024"/>
  <outline>
    <contour>
      <point x="587" y="40" type="line"/>
      <point x="644" y="-260" type="line"/>
      <point x="264" y="-260" type="line"/>
      <point x="427" y="40" type="line"/>
    </contour>
    <contour>
      <point x="642" y="1260" type="line"/>
      <point x="585" y="1560" type="line"/>
      <point x="965" y="1560" type="line"/>
      <point x="802" y="1260" type="line"/>
    </contour>
    <contour>
      <point x="972" y="876" type="line"/>
      <point x="868" y="969"/>
      <point x="702" y="1080"/>
      <point x="594" y="1080" type="curve" smooth="yes"/>
      <point x="533" y="1080"/>
      <point x="463" y="1044"/>
      <point x="462" y="981" type="curve" smooth="yes"/>
      <point x="460.549" y="889.6"/>
      <point x="576" y="852"/>
      <point x="721" y="792" type="curve" smooth="yes"/>
      <point x="922" y="709"/>
      <point x="1170.81" y="583.033"/>
      <point x="1121" y="300" type="curve" smooth="yes"/>
      <point x="1077" y="50"/>
      <point x="837" y="-29"/>
      <point x="615" y="-29" type="curve" smooth="yes"/>
      <point x="388" y="-29"/>
      <point x="135" y="71"/>
      <point x="11" y="221" type="curve"/>
      <point x="188" y="441" type="line"/>
      <point x="287" y="322"/>
      <point x="434" y="211"/>
      <point x="627" y="211" type="curve" smooth="yes"/>
      <point x="789" y="211"/>
      <point x="853.799" y="271.158"/>
      <point x="859" y="341" type="curve" smooth="yes"/>
      <point x="866" y="435"/>
      <point x="759" y="478"/>
      <point x="616" y="539" type="curve" smooth="yes"/>
      <point x="449" y="610"/>
      <point x="170.908" y="724.886"/>
      <point x="198" y="1010" type="curve" smooth="yes"/>
      <point x="219" y="1231"/>
      <point x="411" y="1320"/>
      <point x="657" y="1320" type="curve" smooth="yes"/>
      <point x="843" y="1320"/>
      <point x="1040" y="1209"/>
      <point x="1149" y="1089" type="curve"/>
    </contour>
  </outline>
</glyph>
<glyph name="percent" format="2">
  <advance width="1200"/>
  <unicode hex="0025"/>
  <outline>
    <contour>
      <point x="827" y="280" type="curve" smooth="yes"/>
      <point x="836" y="333"/>
      <point x="830" y="355"/>
      <point x="807" y="355" type="curve" smooth="yes"/>
      <point x="784" y="355"/>
      <point x="758" y="333"/>
      <point x="749" y="280" type="curve" smooth="yes"/>
      <point x="740" y="227"/>
      <point x="747" y="205"/>
      <point x="770" y="205" type="curve" smooth="yes"/>
      <point x="793" y="205"/>
      <point x="818" y="227"/>
    </contour>
    <contour>
      <point x="543" y="280" type="curve" smooth="yes"/>
      <point x="574" y="456"/>
      <point x="679" y="580"/>
      <point x="836" y="580" type="curve" smooth="yes"/>
      <point x="1003" y="580"/>
      <point x="1064" y="456"/>
      <point x="1033" y="280" type="curve" smooth="yes"/>
      <point x="1000" y="94"/>
      <point x="907" y="-20"/>
      <point x="740" y="-20" type="curve" smooth="yes"/>
      <point x="583" y="-20"/>
      <point x="510" y="94"/>
    </contour>
    <contour>
      <point x="430" y="1020" type="curve" smooth="yes"/>
      <point x="439" y="1073"/>
      <point x="439" y="1105"/>
      <point x="411" y="1105" type="curve" smooth="yes"/>
      <point x="393" y="1105"/>
      <point x="361" y="1073"/>
      <point x="352" y="1020" type="curve" smooth="yes"/>
      <point x="343" y="967"/>
      <point x="355" y="945"/>
      <point x="373" y="945" type="curve" smooth="yes"/>
      <point x="391" y="945"/>
      <point x="421" y="967"/>
    </contour>
    <contour>
      <point x="146" y="1020" type="curve" smooth="yes"/>
      <point x="177" y="1196"/>
      <point x="282" y="1320"/>
      <point x="439" y="1320" type="curve" smooth="yes"/>
      <point x="565" y="1320"/>
      <point x="639" y="1246"/>
      <point x="745" y="1246" type="curve" smooth="yes"/>
      <point x="855" y="1246"/>
      <point x="950" y="1302"/>
      <point x="1098" y="1440" type="curve"/>
      <point x="1228" y="1370" type="line"/>
      <point x="158" y="-108" type="line"/>
      <point x="-10" y="-20" type="line"/>
      <point x="962" y="1324" type="line"/>
      <point x="977" y="1236" type="line"/>
      <point x="882" y="1147"/>
      <point x="811" y="1071"/>
      <point x="718" y="1071" type="curve" smooth="yes"/>
      <point x="644" y="1071"/>
      <point x="571" y="1078"/>
      <point x="564" y="1164" type="curve"/>
      <point x="603" y="1201" type="line"/>
      <point x="629" y="1164"/>
      <point x="646" y="1076"/>
      <point x="631" y="990" type="curve" smooth="yes"/>
      <point x="611" y="874"/>
      <point x="510" y="720"/>
      <point x="343" y="720" type="curve" smooth="yes"/>
      <point x="186" y="720"/>
      <point x="113" y="834"/>
    </contour>
  </outline>
</glyph>
<glyph name="ampersand" format="2">
  <advance width="1200"/>
  <unicode hex="0026"/>
  <outline>
    <contour>
      <point x="588" y="790" type="line"/>
      <point x="1150" y="790" type="line"/>
      <point x="1110" y="560" type="line"/>
      <point x="548" y="560" type="line"/>
    </contour>
    <contour>
      <point x="963" y="650" type="line"/>
      <point x="1030" y="234"/>
      <point x="770" y="-20"/>
      <point x="444" y="-20" type="curve"/>
      <point x="467" y="220" type="line"/>
      <point x="595" y="220"/>
      <point x="783" y="307"/>
      <point x="703" y="650" type="curve"/>
    </contour>
    <contour>
      <point x="779" y="979" type="line"/>
      <point x="750" y="1042"/>
      <point x="675" y="1070"/>
      <point x="627" y="1070" type="curve"/>
      <point x="637" y="1300" type="line"/>
      <point x="763" y="1300"/>
      <point x="917" y="1249"/>
      <point x="981" y="1159" type="curve"/>
    </contour>
    <contour>
      <point x="717" y="790" type="curve"/>
      <point x="567" y="560" type="line"/>
      <point x="419" y="560"/>
      <point x="325.41" y="487.928"/>
      <point x="307" y="385" type="curve" smooth="yes"/>
      <point x="285" y="262"/>
      <point x="389" y="220"/>
      <point x="467" y="220" type="curve"/>
      <point x="444" y="-20" type="line"/>
      <point x="137" y="-20"/>
      <point x="-6.59473" y="132.426"/>
      <point x="21" y="350" type="curve" smooth="yes"/>
      <point x="47" y="555"/>
      <point x="231" y="661"/>
      <point x="477" y="685" type="curve"/>
      <point x="295" y="708"/>
      <point x="178.554" y="827.963"/>
      <point x="204" y="1010" type="curve" smooth="yes"/>
      <point x="230" y="1196"/>
      <point x="411" y="1300"/>
      <point x="637" y="1300" type="curve"/>
      <point x="627" y="1070" type="line"/>
      <point x="519" y="1070"/>
      <point x="470.233" y="1003.66"/>
      <point x="467" y="950" type="curve" smooth="yes"/>
      <point x="462" y="867"/>
      <point x="529" y="790"/>
    </contour>
  </outline>
</glyph>
<glyph name="parenleft" format="2">
  <advance width="1200"/>
  <unicode hex="0028"/>
  <outline>
    <contour>
      <point x="1032" y="1420" type="curve"/>
      <point x="1133" y="1290" type="line"/>
      <point x="780" y="1130"/>
      <point x="602" y="990"/>
      <point x="542" y="649" type="curve" smooth="yes"/>
      <point x="482" y="308"/>
      <point x="588" y="155"/>
      <point x="884" y="-10" type="curve"/>
      <point x="759" y="-130" type="line"/>
      <point x="451" y="25"/>
      <point x="186" y="258"/>
      <point x="260" y="679" type="curve" smooth="yes"/>
      <point x="334" y="1100"/>
      <point x="671" y="1270"/>
    </contour>
  </outline>
</glyph>
<glyph name="parenright" format="2">
  <advance width="1200"/>
  <unicode hex="0029"/>
  <outline>
    <contour>
      <point x="235" y="-130" type="curve"/>
      <point x="144" y="10" type="line"/>
      <point x="497" y="170"/>
      <point x="665" y="300"/>
      <point x="725" y="641" type="curve" smooth="yes"/>
      <point x="785" y="982"/>
      <point x="669" y="1145"/>
      <point x="373" y="1310" type="curve"/>
      <point x="508" y="1420" type="line"/>
      <point x="816" y="1265"/>
      <point x="1081" y="1032"/>
      <point x="1007" y="611" type="curve" smooth="yes"/>
      <point x="933" y="190"/>
      <point x="596" y="20"/>
    </contour>
  </outline>
</glyph>
<glyph name="asterisk" format="2">
  <advance width="1200"/>
  <unicode hex="002A"/>
  <outline>
    <contour>
      <point x="648" y="837" type="line"/>
      <point x="492" y="541" type="line"/>
      <point x="280" y="717" type="line"/>
      <point x="564" y="907" type="line"/>
    </contour>
    <contour>
      <point x="797" y="1057" type="line"/>
      <point x="1087" y="1236" type="line"/>
      <point x="1130" y="951" type="line"/>
      <point x="814" y="944" type="line"/>
    </contour>
    <contour>
      <point x="558" y="944" type="line"/>
      <point x="247" y="951" type="line"/>
      <point x="389" y="1236" type="line"/>
      <point x="615" y="1057" type="line"/>
    </contour>
    <contour>
      <point x="796" y="907" type="line"/>
      <point x="1011" y="717" type="line"/>
      <point x="738" y="541" type="line"/>
      <point x="687" y="837" type="line"/>
    </contour>
    <contour>
      <point x="650" y="1080" type="line"/>
      <point x="613" y="1380" type="line"/>
      <point x="913" y="1380" type="line"/>
      <point x="770" y="1080" type="line"/>
    </contour>
  </outline>
</glyph>
<glyph name="plus" format="2">
  <advance width="1200"/>
  <unicode hex="002B"/>
  <outline>
    <contour>
      <point x="591" y="1030" type="line"/>
      <point x="813" y="1030" type="line"/>
      <point x="687" y="320" type="line"/>
      <point x="465" y="320" type="line"/>
    </contour>
    <contour>
      <point x="287" y="780" type="line"/>
      <point x="1029" y="780" type="line"/>
      <point x="992" y="570" type="line"/>
      <point x="250" y="570" type="line"/>
    </contour>
  </outline>
</glyph>
<glyph name="comma" format="2">
  <advance width="1200"/>
  <unicode hex="002C"/>
  <outline>
    <contour>
      <point x="304" y="-320" type="line"/>
      <point x="421" y="290" type="line"/>
      <point x="731" y="290" type="line"/>
      <point x="464" y="-320" type="line"/>
    </contour>
  </outline>
</glyph>
<glyph name="hyphen" format="2">
  <advance width="1200"/>
  <unicode hex="002D"/>
  <outline>
    <contour>
      <point x="328" y="790" type="line"/>
      <point x="990" y="790" type="line"/>
      <point x="950" y="560" type="line"/>
      <point x="288" y="560" type="line"/>
    </contour>
  </outline>
</glyph>
<glyph name="period" format="2">
  <advance width="1200"/>
  <unicode hex="002E"/>
  <outline>
    <contour>
      <point x="351" y="180" type="curve" smooth="yes"/>
      <point x="351" y="298"/>
      <point x="432" y="380"/>
      <point x="550" y="380" type="curve" smooth="yes"/>
      <point x="668" y="380"/>
      <point x="749" y="298"/>
      <point x="749" y="180" type="curve" smooth="yes"/>
      <point x="749" y="62"/>
      <point x="673" y="-20"/>
      <point x="555" y="-20" type="curve" smooth="yes"/>
      <point x="437" y="-20"/>
      <point x="351" y="62"/>
    </contour>
  </outline>
</glyph>
<glyph name="slash" format="2">
  <advance width="1200"/>
  <unicode hex="002F"/>
  <outline>
    <contour>
      <point x="941" y="1380" type="line"/>
      <point x="1136" y="1270" type="line"/>
      <point x="248" y="-190" type="line"/>
      <point x="54" y="-80" type="line"/>
    </contour>
  </outline>
</glyph>
<glyph name="zero" format="2">
  <advance width="1200"/>
  <unicode hex="0030"/>
  <outline>
    <contour>
      <point x="535" y="-20" type="curve" smooth="yes"/>
      <point x="209" y="-20"/>
      <point x="18" y="174"/>
      <point x="105" y="670" type="curve" smooth="yes"/>
      <point x="187" y="1136"/>
      <point x="425" y="1320"/>
      <point x="732" y="1320" type="curve" smooth="yes"/>
      <point x="1039" y="1320"/>
      <point x="1246" y="1096"/>
      <point x="1164" y="630" type="curve" smooth="yes"/>
      <point x="1077" y="134"/>
      <point x="861" y="-20"/>
    </contour>
    <contour>
      <point x="711" y="1090" type="curve" smooth="yes"/>
      <point x="553" y="1090"/>
      <point x="424" y="983"/>
      <point x="365" y="650" type="curve" smooth="yes"/>
      <point x="305" y="307"/>
      <point x="378" y="210"/>
      <point x="556" y="210" type="curve" smooth="yes"/>
      <point x="734" y="210"/>
      <point x="844" y="307"/>
      <point x="904" y="650" type="curve" smooth="yes"/>
      <point x="963" y="983"/>
      <point x="869" y="1090"/>
    </contour>
  </outline>
</glyph>
<glyph name="one" format="2">
  <advance width="1200"/>
  <unicode hex="0031"/>
  <outline>
    <contour>
      <point x="100" y="0" type="line"/>
      <point x="141" y="230" type="line"/>
      <point x="481" y="230" type="line"/>
      <point x="629" y="1070" type="line"/>
      <point x="299" y="1070" type="line"/>
      <point x="339" y="1300" type="line"/>
      <point x="938" y="1300" type="line"/>
      <point x="750" y="230" type="line"/>
      <point x="1041" y="230" type="line"/>
      <point x="1000" y="0" type="line"/>
    </contour>
  </outline>
</glyph>
<glyph name="two" format="2">
  <advance width="1200"/>
  <unicode hex="0032"/>
  <outline>
    <contour>
      <point x="194" y="929" type="line"/>
      <point x="301" y="1139"/>
      <point x="505" y="1320"/>
      <point x="781" y="1320" type="curve" smooth="yes"/>
      <point x="1027" y="1320"/>
      <point x="1175" y="1186"/>
      <point x="1138" y="975" type="curve" smooth="yes"/>
      <point x="1099" y="753"/>
      <point x="814" y="587"/>
      <point x="632" y="471" type="curve" smooth="yes"/>
      <point x="499" y="387"/>
      <point x="429" y="345"/>
      <point x="329" y="230" type="curve"/>
      <point x="1020" y="230" type="line"/>
      <point x="979" y="0" type="line"/>
      <point x="59" y="0" type="line"/>
      <point x="5" y="150" type="line"/>
      <point x="76" y="323"/>
      <point x="304.409" y="496.488"/>
      <point x="524" y="642" type="curve" smooth="yes"/>
      <point x="690" y="752"/>
      <point x="867" y="876"/>
      <point x="883" y="966" type="curve" smooth="yes"/>
      <point x="894" y="1029"/>
      <point x="862" y="1090"/>
      <point x="761" y="1090" type="curve" smooth="yes"/>
      <point x="603" y="1090"/>
      <point x="442" y="962"/>
      <point x="357" y="819" type="curve"/>
    </contour>
  </outline>
</glyph>
<glyph name="three" format="2">
  <advance width="1200"/>
  <unicode hex="0033"/>
  <outline>
    <contour>
      <point x="617" y="820" type="line" smooth="yes"/>
      <point x="807" y="868"/>
      <point x="872" y="912"/>
      <point x="885" y="985" type="curve" smooth="yes"/>
      <point x="896" y="1048"/>
      <point x="853" y="1094"/>
      <point x="735" y="1094" type="curve"/>
      <point x="765" y="1320" type="line"/>
      <point x="1011" y="1320"/>
      <point x="1163" y="1211"/>
      <point x="1145" y="1055" type="curve" smooth="yes"/>
      <point x="1127.42" y="902.616"/>
      <point x="973" y="813"/>
      <point x="818" y="760" type="curve"/>
      <point x="1006" y="738"/>
      <point x="1162.29" y="639.393"/>
      <point x="1121" y="425" type="curve" smooth="yes"/>
      <point x="1064" y="129"/>
      <point x="646" y="-73"/>
      <point x="69" y="-243" type="curve"/>
      <point x="33" y="-25" type="line"/>
      <point x="527" y="125"/>
      <point x="832" y="287"/>
      <point x="866" y="480" type="curve" smooth="yes"/>
      <point x="886" y="593"/>
      <point x="807" y="628"/>
      <point x="688" y="600" type="curve" smooth="yes"/>
      <point x="518" y="560" type="line"/>
      <point x="498" y="790" type="line"/>
    </contour>
    <contour>
      <point x="401" y="933" type="curve"/>
      <point x="239" y="1109" type="line"/>
      <point x="365" y="1199"/>
      <point x="519" y="1320"/>
      <point x="765" y="1320" type="curve"/>
      <point x="735" y="1094" type="line"/>
      <point x="627" y="1094"/>
      <point x="499" y="1026"/>
    </contour>
  </outline>
</glyph>
<glyph name="four" format="2">
  <advance width="1200"/>
  <unicode hex="0034"/>
  <outline>
    <contour>
      <point x="566" y="-220" type="line"/>
      <point x="763" y="610" type="line"/>
      <point x="987" y="610" type="line"/>
      <point x="830" y="-220" type="line"/>
    </contour>
    <contour>
      <point x="274" y="250" type="curve"/>
      <point x="1074" y="250" type="line"/>
      <point x="1034" y="20" type="line"/>
      <point x="44" y="20" type="line"/>
      <point x="-36" y="250" type="line"/>
      <point x="317" y="610"/>
      <point x="580" y="850"/>
      <point x="750" y="1360" type="curve"/>
      <point x="1020" y="1360" type="line"/>
      <point x="867" y="890"/>
      <point x="611" y="630"/>
    </contour>
  </outline>
</glyph>
<glyph name="five" format="2">
  <advance width="1200"/>
  <unicode hex="0035"/>
  <outline>
    <contour>
      <point x="843" y="845" type="line"/>
      <point x="1036" y="844"/>
      <point x="1192" y="715"/>
      <point x="1154" y="500" type="curve" smooth="yes"/>
      <point x="1088" y="124"/>
      <point x="614" y="-50"/>
      <point x="81" y="-220" type="curve"/>
      <point x="23" y="-50" type="line"/>
      <point x="479" y="110"/>
      <point x="851" y="282"/>
      <point x="885" y="475" type="curve" smooth="yes"/>
      <point x="900" y="558"/>
      <point x="862" y="635"/>
      <point x="734" y="635" type="curve"/>
    </contour>
    <contour>
      <point x="399" y="1300" type="line"/>
      <point x="1189" y="1300" type="line"/>
      <point x="1147" y="1060" type="line"/>
      <point x="407" y="1060" type="line"/>
    </contour>
    <contour>
      <point x="134" y="564" type="line"/>
      <point x="399" y="1300" type="line"/>
      <point x="633" y="1270" type="line"/>
      <point x="377" y="573" type="line"/>
      <point x="253" y="546" type="line"/>
      <point x="401" y="706"/>
      <point x="639" y="845"/>
      <point x="843" y="845" type="curve"/>
      <point x="734" y="635" type="line"/>
      <point x="596" y="635"/>
      <point x="429" y="546"/>
      <point x="356" y="473" type="curve"/>
    </contour>
  </outline>
</glyph>
<glyph name="six" format="2">
  <advance width="1200"/>
  <unicode hex="0036"/>
  <outline>
    <contour>
      <point x="1100" y="1346" type="line"/>
      <point x="754" y="1164"/>
      <point x="336" y="864"/>
      <point x="279" y="540" type="curve"/>
      <point x="206" y="529" type="line"/>
      <point x="309" y="733"/>
      <point x="548" y="950"/>
      <point x="790" y="950" type="curve" smooth="yes"/>
      <point x="1022" y="950"/>
      <point x="1239" y="760"/>
      <point x="1183" y="440" type="curve" smooth="yes"/>
      <point x="1134" y="160"/>
      <point x="906" y="-20"/>
      <point x="564" y="-20" type="curve" smooth="yes"/>
      <point x="202" y="-20"/>
      <point x="23" y="220"/>
      <point x="83" y="560" type="curve" smooth="yes"/>
      <point x="172" y="1062"/>
      <point x="664" y="1350"/>
      <point x="993" y="1530" type="curve"/>
    </contour>
    <contour>
      <point x="935" y="465" type="curve" smooth="yes"/>
      <point x="966" y="643"/>
      <point x="842" y="722"/>
      <point x="694" y="722" type="curve" smooth="yes"/>
      <point x="538" y="722"/>
      <point x="364" y="635"/>
      <point x="339" y="495" type="curve" smooth="yes"/>
      <point x="309" y="327"/>
      <point x="409" y="210"/>
      <point x="597" y="210" type="curve" smooth="yes"/>
      <point x="745" y="210"/>
      <point x="905" y="297"/>
    </contour>
  </outline>
</glyph>
<glyph name="seven" format="2">
  <advance width="1200"/>
  <unicode hex="0037"/>
  <outline>
    <contour>
      <point x="1219" y="1300" type="line"/>
      <point x="1271" y="1140" type="line"/>
      <point x="918" y="780"/>
      <point x="561" y="290"/>
      <point x="401" y="-220" type="curve"/>
      <point x="136" y="-190" type="line"/>
      <point x="306" y="320"/>
      <point x="587" y="710"/>
      <point x="940" y="1070" type="curve"/>
      <point x="448" y="1070" type="line"/>
      <point x="323" y="760" type="line"/>
      <point x="134" y="760" type="line"/>
      <point x="269" y="1300" type="line"/>
    </contour>
  </outline>
</glyph>
<glyph name="eight" format="2">
  <advance width="1200"/>
  <unicode hex="0038"/>
  <outline>
    <contour>
      <point x="632" y="671" type="curve" smooth="yes"/>
      <point x="346" y="671"/>
      <point x="187" y="815"/>
      <point x="223" y="1021" type="curve" smooth="yes"/>
      <point x="261" y="1237"/>
      <point x="450" y="1321"/>
      <point x="717" y="1321" type="curve" smooth="yes"/>
      <point x="984" y="1321"/>
      <point x="1209" y="1197"/>
      <point x="1171" y="981" type="curve" smooth="yes"/>
      <point x="1133" y="765"/>
      <point x="918" y="671"/>
    </contour>
    <contour>
      <point x="707" y="1096" type="curve" smooth="yes"/>
      <point x="579" y="1096"/>
      <point x="486" y="1069"/>
      <point x="470" y="976" type="curve" smooth="yes"/>
      <point x="457" y="903"/>
      <point x="528" y="806"/>
      <point x="656" y="806" type="curve" smooth="yes"/>
      <point x="794" y="806"/>
      <point x="895" y="873"/>
      <point x="910" y="956" type="curve" smooth="yes"/>
      <point x="926" y="1049"/>
      <point x="845" y="1096"/>
    </contour>
    <contour>
      <point x="540" y="-20" type="curve" smooth="yes"/>
      <point x="214" y="-20"/>
      <point x="-14" y="114"/>
      <point x="29" y="360" type="curve" smooth="yes"/>
      <point x="72" y="606"/>
      <point x="333" y="716"/>
      <point x="640" y="716" type="curve" smooth="yes"/>
      <point x="947" y="716"/>
      <point x="1170" y="606"/>
      <point x="1127" y="360" type="curve" smooth="yes"/>
      <point x="1084" y="114"/>
      <point x="866" y="-20"/>
    </contour>
    <contour>
      <point x="615" y="571" type="curve" smooth="yes"/>
      <point x="447" y="571"/>
      <point x="318" y="511"/>
      <point x="298" y="398" type="curve" smooth="yes"/>
      <point x="276" y="275"/>
      <point x="364" y="215"/>
      <point x="552" y="215" type="curve" smooth="yes"/>
      <point x="740" y="215"/>
      <point x="846" y="255"/>
      <point x="868" y="378" type="curve" smooth="yes"/>
      <point x="888" y="491"/>
      <point x="783" y="571"/>
    </contour>
  </outline>
</glyph>
<glyph name="colon" format="2">
  <advance width="1200"/>
  <unicode hex="003A"/>
  <outline>
    <contour>
      <point x="451" y="740" type="curve" smooth="yes"/>
      <point x="451" y="858"/>
      <point x="532" y="940"/>
      <point x="650" y="940" type="curve" smooth="yes"/>
      <point x="768" y="940"/>
      <point x="849" y="858"/>
      <point x="849" y="740" type="curve" smooth="yes"/>
      <point x="849" y="622"/>
      <point x="773" y="540"/>
      <point x="655" y="540" type="curve" smooth="yes"/>
      <point x="537" y="540"/>
      <point x="451" y="622"/>
    </contour>
    <contour>
      <point x="351" y="180" type="curve" smooth="yes"/>
      <point x="351" y="298"/>
      <point x="432" y="380"/>
      <point x="550" y="380" type="curve" smooth="yes"/>
      <point x="668" y="380"/>
      <point x="749" y="298"/>
      <point x="749" y="180" type="curve" smooth="yes"/>
      <point x="749" y="62"/>
      <point x="673" y="-20"/>
      <point x="555" y="-20" type="curve" smooth="yes"/>
      <point x="437" y="-20"/>
      <point x="351" y="62"/>
    </contour>
  </outline>
</glyph>
<glyph name="semicolon" format="2">
  <advance width="1200"/>
  <unicode hex="003B"/>
  <outline>
    <contour>
      <point x="305" y="-320" type="line"/>
      <point x="450" y="290" type="line"/>
      <point x="760" y="290" type="line"/>
      <point x="465" y="-320" type="line"/>
    </contour>
    <contour>
      <point x="451" y="740" type="curve" smooth="yes"/>
      <point x="451" y="858"/>
      <point x="532" y="940"/>
      <point x="650" y="940" type="curve" smooth="yes"/>
      <point x="768" y="940"/>
      <point x="849" y="858"/>
      <point x="849" y="740" type="curve" smooth="yes"/>
      <point x="849" y="622"/>
      <point x="773" y="540"/>
      <point x="655" y="540" type="curve" smooth="yes"/>
      <point x="537" y="540"/>
      <point x="451" y="622"/>
    </contour>
  </outline>
</glyph>
<glyph name="less" format="2">
  <advance width="1200"/>
  <unicode hex="003C"/>
  <outline>
    <contour>
      <point x="294" y="835" type="line"/>
      <point x="1038" y="1075" type="line"/>
      <point x="1059" y="840" type="line"/>
      <point x="419" y="675" type="line"/>
      <point x="1001" y="510" type="line"/>
      <point x="902" y="305" type="line"/>
      <point x="242" y="545" type="line"/>
    </contour>
  </outline>
</glyph>
<glyph name="equal" format="2">
  <advance width="1200"/>
  <unicode hex="003D"/>
  <outline>
    <contour>
      <point x="322" y="980" type="line"/>
      <point x="1064" y="980" type="line"/>
      <point x="1023" y="750" type="line"/>
      <point x="281" y="750" type="line"/>
    </contour>
    <contour>
      <point x="255" y="600" type="line"/>
      <point x="997" y="600" type="line"/>
      <point x="956" y="370" type="line"/>
      <point x="214" y="370" type="line"/>
    </contour>
  </outline>
</glyph>
<glyph name="greater" format="2">
  <advance width="1200"/>
  <unicode hex="003E"/>
  <outline>
    <contour>
      <point x="1036" y="815" type="line"/>
      <point x="984" y="525" type="line"/>
      <point x="240" y="285" type="line"/>
      <point x="219" y="510" type="line"/>
      <point x="859" y="675" type="line"/>
      <point x="277" y="840" type="line"/>
      <point x="376" y="1055" type="line"/>
    </contour>
  </outline>
</glyph>
<glyph name="question" format="2">
  <advance width="1200"/>
  <unicode hex="003F"/>
  <outline>
    <contour>
      <point x="378" y="893" type="curve"/>
      <point x="233" y="999" type="line"/>
      <point x="363" y="1149"/>
      <point x="606" y="1320"/>
      <point x="902" y="1320" type="curve"/>
      <point x="812" y="1100" type="line"/>
      <point x="694" y="1100"/>
      <point x="490" y="996"/>
    </contour>
    <contour>
      <point x="351" y="180" type="curve" smooth="yes"/>
      <point x="351" y="298"/>
      <point x="432" y="380"/>
      <point x="550" y="380" type="curve" smooth="yes"/>
      <point x="668" y="380"/>
      <point x="749" y="298"/>
      <point x="749" y="180" type="curve" smooth="yes"/>
      <point x="749" y="62"/>
      <point x="673" y="-20"/>
      <point x="555" y="-20" type="curve" smooth="yes"/>
      <point x="437" y="-20"/>
      <point x="351" y="62"/>
    </contour>
    <contour>
      <point x="921" y="1010" type="curve" smooth="yes"/>
      <point x="921" y="1073"/>
      <point x="870" y="1100"/>
      <point x="812" y="1100" type="curve"/>
      <point x="902" y="1320" type="line"/>
      <point x="1088" y="1320"/>
      <point x="1231" y="1246"/>
      <point x="1231" y="1070" type="curve" smooth="yes"/>
      <point x="1231" y="906"/>
      <point x="1088.48" y="807.762"/>
      <point x="914" y="729" type="curve" smooth="yes"/>
      <point x="801.782" y="678.345"/>
      <point x="664" y="596"/>
      <point x="591" y="481" type="curve"/>
      <point x="471" y="532" type="line"/>
      <point x="492" y="636"/>
      <point x="608.398" y="748.891"/>
      <point x="716" y="820" type="curve" smooth="yes"/>
      <point x="806.296" y="879.672"/>
      <point x="921" y="930"/>
    </contour>
  </outline>
</glyph>
<glyph name="at" format="2">
  <advance width="1200"/>
  <unicode hex="0040"/>
  <outline>
    <contour>
      <point x="43.4531" y="580" type="curve" smooth="yes"/>
      <point x="115.395" y="988"/>
      <point x="434.752" y="1320"/>
      <point x="842.752" y="1320" type="curve" smooth="yes"/>
      <point x="1180.75" y="1320"/>
      <point x="1261.84" y="1088"/>
      <point x="1211.06" y="800" type="curve" smooth="yes"/>
      <point x="1152.52" y="468"/>
      <point x="984.898" y="300"/>
      <point x="844.898" y="300" type="curve" smooth="yes"/>
      <point x="722.898" y="300"/>
      <point x="663.941" y="408"/>
      <point x="707.217" y="540" type="curve"/>
      <point x="724.217" y="540" type="line"/>
      <point x="686.937" y="442"/>
      <point x="622.425" y="320"/>
      <point x="502.425" y="320" type="curve" smooth="yes"/>
      <point x="396.425" y="320"/>
      <point x="308.062" y="386"/>
      <point x="337.686" y="554" type="curve" smooth="yes"/>
      <point x="386.704" y="832"/>
      <point x="664.38" y="1040"/>
      <point x="864.38" y="1040" type="curve"/>
      <point x="971.74" y="991" type="line"/>
      <point x="859.917" y="578" type="line" smooth="yes"/>
      <point x="846.901" y="525.207"/>
      <point x="845.279" y="512"/>
      <point x="862.279" y="512" type="curve" smooth="yes"/>
      <point x="902.279" y="512"/>
      <point x="960.733" y="628"/>
      <point x="992.825" y="810" type="curve" smooth="yes"/>
      <point x="1027.38" y="1006"/>
      <point x="1025.25" y="1130"/>
      <point x="859.249" y="1130" type="curve" smooth="yes"/>
      <point x="563.249" y="1130"/>
      <point x="334.463" y="876"/>
      <point x="276.979" y="550" type="curve" smooth="yes"/>
      <point x="237.13" y="324"/>
      <point x="327.502" y="190"/>
      <point x="533.502" y="190" type="curve" smooth="yes"/>
      <point x="643.502" y="190"/>
      <point x="740.792" y="220"/>
      <point x="852.313" y="274" type="curve"/>
      <point x="907.869" y="90" type="line"/>
      <point x="796.938" y="28"/>
      <point x="624.474" y="-20"/>
      <point x="486.474" y="-20" type="curve" smooth="yes"/>
      <point x="108.474" y="-20"/>
      <point x="-14.3818" y="252"/>
    </contour>
    <contour>
      <point x="692.724" y="696" type="curve" smooth="yes"/>
      <point x="746.525" y="848" type="line"/>
      <point x="643.532" y="797"/>
      <point x="600.019" y="692"/>
      <point x="585.56" y="610" type="curve" smooth="yes"/>
      <point x="577.801" y="566"/>
      <point x="588.979" y="550"/>
      <point x="607.979" y="550" type="curve" smooth="yes"/>
      <point x="633.979" y="550"/>
      <point x="652.929" y="583.573"/>
    </contour>
  </outline>
</glyph>
<glyph name="A" format="2">
  <advance width="1200"/>
  <unicode hex="0041"/>
  <anchor x="748" y="1300" name="Anchor-0"/>
  <anchor x="519" y="0" name="Anchor-2"/>
  <anchor x="905" y="-20" name="Anchor-3"/>
  <outline>
    <contour>
      <point x="310" y="1300" type="line"/>
      <point x="639" y="1300" type="line"/>
      <point x="586" y="1110" type="line"/>
      <point x="270" y="1070" type="line"/>
    </contour>
    <contour>
      <point x="220" y="-20" type="line"/>
      <point x="-57" y="-20" type="line"/>
      <point x="639" y="1300" type="line"/>
      <point x="919" y="1300" type="line"/>
      <point x="1089" y="-20" type="line"/>
      <point x="822" y="-20" type="line"/>
      <point x="723" y="1180" type="line"/>
      <point x="803" y="1180" type="line"/>
    </contour>
    <contour>
      <point x="327" y="500" type="line"/>
      <point x="890" y="500" type="line"/>
      <point x="850" y="270" type="line"/>
      <point x="287" y="270" type="line"/>
    </contour>
  </outline>
</glyph>
<glyph name="B" format="2">
  <advance width="1200"/>
  <unicode hex="0042"/>
  <anchor x="506" y="0" name="Anchor-2"/>
  <anchor x="663" y="1300" name="Anchor-0"/>
  <outline>
    <contour>
      <point x="309" y="1070" type="line"/>
      <point x="189" y="1070" type="line"/>
      <point x="229" y="1300" type="line"/>
      <point x="771" y="1300" type="line" smooth="yes"/>
      <point x="1077" y="1300"/>
      <point x="1215" y="1191"/>
      <point x="1173" y="955" type="curve" smooth="yes"/>
      <point x="1131" y="719"/>
      <point x="897" y="670"/>
      <point x="610" y="670" type="curve"/>
      <point x="684" y="690" type="line"/>
      <point x="990" y="690"/>
      <point x="1178" y="572"/>
      <point x="1136" y="336" type="curve" smooth="yes"/>
      <point x="1089" y="70"/>
      <point x="879" y="0"/>
      <point x="612" y="0" type="curve" smooth="yes"/>
      <point x="0" y="0" type="line"/>
      <point x="41" y="230" type="line"/>
      <point x="161" y="230" type="line"/>
    </contour>
    <contour>
      <point x="420" y="230" type="line"/>
      <point x="603" y="230" type="line" smooth="yes"/>
      <point x="761" y="230"/>
      <point x="849" y="273"/>
      <point x="869" y="386" type="curve" smooth="yes"/>
      <point x="891" y="509"/>
      <point x="829" y="560"/>
      <point x="661" y="560" type="curve" smooth="yes"/>
      <point x="478" y="560" type="line"/>
    </contour>
    <contour>
      <point x="651" y="790" type="line" smooth="yes"/>
      <point x="779" y="790"/>
      <point x="880" y="842"/>
      <point x="896" y="935" type="curve" smooth="yes"/>
      <point x="916" y="1048"/>
      <point x="839" y="1070"/>
      <point x="701" y="1070" type="curve" smooth="yes"/>
      <point x="568" y="1070" type="line"/>
      <point x="518" y="790" type="line"/>
    </contour>
  </outline>
</glyph>
<glyph name="C" format="2">
  <advance width="1200"/>
  <unicode hex="0043"/>
  <anchor x="556" y="0" name="Anchor-3"/>
  <anchor x="557" y="0" name="Anchor-2"/>
  <anchor x="795" y="1300" name="Anchor-0"/>
  <outline>
    <contour>
      <point x="931" y="470" type="curve"/>
      <point x="1119" y="341" type="line"/>
      <point x="984" y="145"/>
      <point x="842" y="-20"/>
      <point x="555" y="-20" type="curve" smooth="yes"/>
      <point x="259" y="-20"/>
      <point x="23" y="214"/>
      <point x="105" y="680" type="curve" smooth="yes"/>
      <point x="185" y="1136"/>
      <point x="485" y="1320"/>
      <point x="722" y="1320" type="curve" smooth="yes"/>
      <point x="949" y="1320"/>
      <point x="1009" y="1136"/>
      <point x="987" y="900" type="curve"/>
      <point x="936" y="950" type="line"/>
      <point x="1076" y="1300" type="line"/>
      <point x="1256" y="1300" type="line"/>
      <point x="1172" y="820" type="line"/>
      <point x="913" y="820" type="line"/>
      <point x="914" y="993"/>
      <point x="847" y="1080"/>
      <point x="729" y="1080" type="curve" smooth="yes"/>
      <point x="591" y="1080"/>
      <point x="442" y="973"/>
      <point x="385" y="650" type="curve" smooth="yes"/>
      <point x="326" y="317"/>
      <point x="422" y="230"/>
      <point x="590" y="230" type="curve" smooth="yes"/>
      <point x="738" y="230"/>
      <point x="826" y="326"/>
    </contour>
  </outline>
</glyph>
<glyph name="D" format="2">
  <advance width="1200"/>
  <unicode hex="0044"/>
  <anchor x="433" y="0" name="Anchor-2"/>
  <anchor x="663" y="1300" name="Anchor-0"/>
  <outline>
    <contour>
      <point x="-40" y="0" type="line"/>
      <point x="1" y="230" type="line"/>
      <point x="121" y="230" type="line"/>
      <point x="269" y="1070" type="line"/>
      <point x="149" y="1070" type="line"/>
      <point x="189" y="1300" type="line"/>
      <point x="701" y="1300" type="line" smooth="yes"/>
      <point x="1077" y="1300"/>
      <point x="1252" y="986"/>
      <point x="1186" y="610" type="curve" smooth="yes"/>
      <point x="1121" y="244"/>
      <point x="829" y="0"/>
      <point x="472" y="0" type="curve" smooth="yes"/>
    </contour>
    <contour>
      <point x="380" y="230" type="line"/>
      <point x="473" y="230" type="line" smooth="yes"/>
      <point x="671" y="230"/>
      <point x="864" y="357"/>
      <point x="916" y="650" type="curve" smooth="yes"/>
      <point x="969" y="953"/>
      <point x="839" y="1070"/>
      <point x="621" y="1070" type="curve" smooth="yes"/>
      <point x="528" y="1070" type="line"/>
    </contour>
  </outline>
</glyph>
<glyph name="E" format="2">
  <advance width="1200"/>
  <unicode hex="0045"/>
  <anchor x="846" y="0" name="Anchor-3"/>
  <anchor x="466" y="0" name="Anchor-2"/>
  <anchor x="723" y="1300" name="Anchor-0"/>
  <outline>
    <contour>
      <point x="844" y="810" type="line"/>
      <point x="795" y="535" type="line"/>
      <point x="492" y="585" type="line"/>
      <point x="430" y="230" type="line"/>
      <point x="819" y="230" type="line"/>
      <point x="890" y="450" type="line"/>
      <point x="1109" y="450" type="line"/>
      <point x="1030" y="0" type="line"/>
      <point x="-10" y="0" type="line"/>
      <point x="31" y="230" type="line"/>
      <point x="161" y="230" type="line"/>
      <point x="309" y="1070" type="line"/>
      <point x="179" y="1070" type="line"/>
      <point x="219" y="1300" type="line"/>
      <point x="1219" y="1300" type="line"/>
      <point x="1189" y="900" type="line"/>
      <point x="970" y="900" type="line"/>
      <point x="930" y="1070" type="line"/>
      <point x="578" y="1070" type="line"/>
      <point x="523" y="760" type="line"/>
    </contour>
  </outline>
</glyph>
<glyph name="F" format="2">
  <advance width="1200"/>
  <unicode hex="0046"/>
  <anchor x="296" y="0" name="Anchor-2"/>
  <anchor x="753" y="1300" name="Anchor-0"/>
  <outline>
    <contour>
      <point x="869" y="780" type="line"/>
      <point x="820" y="505" type="line"/>
      <point x="507" y="555" type="line"/>
      <point x="450" y="230" type="line"/>
      <point x="660" y="230" type="line"/>
      <point x="619" y="0" type="line"/>
      <point x="20" y="0" type="line"/>
      <point x="61" y="230" type="line"/>
      <point x="181" y="230" type="line"/>
      <point x="329" y="1070" type="line"/>
      <point x="209" y="1070" type="line"/>
      <point x="249" y="1300" type="line"/>
      <point x="1249" y="1300" type="line"/>
      <point x="1212" y="860" type="line"/>
      <point x="993" y="860" type="line"/>
      <point x="960" y="1070" type="line"/>
      <point x="598" y="1070" type="line"/>
      <point x="538" y="730" type="line"/>
    </contour>
  </outline>
</glyph>
<glyph name="G" format="2">
  <advance width="1200"/>
  <unicode hex="0047"/>
  <anchor x="557" y="0" name="Anchor-2"/>
  <anchor x="835" y="1300" name="Anchor-0"/>
  <outline>
    <contour>
      <point x="847" y="450" type="curve"/>
      <point x="986" y="440" type="line"/>
      <point x="928" y="224"/>
      <point x="782" y="-20"/>
      <point x="495" y="-20" type="curve" smooth="yes"/>
      <point x="199" y="-20"/>
      <point x="3" y="184"/>
      <point x="85" y="650" type="curve" smooth="yes"/>
      <point x="165" y="1106"/>
      <point x="455" y="1320"/>
      <point x="692" y="1320" type="curve" smooth="yes"/>
      <point x="919" y="1320"/>
      <point x="983" y="1106"/>
      <point x="967" y="900" type="curve"/>
      <point x="916" y="950" type="line"/>
      <point x="1056" y="1300" type="line"/>
      <point x="1236" y="1300" type="line"/>
      <point x="1160" y="870" type="line"/>
      <point x="901" y="870" type="line"/>
      <point x="878" y="1023"/>
      <point x="807" y="1080"/>
      <point x="689" y="1080" type="curve" smooth="yes"/>
      <point x="571" y="1080"/>
      <point x="415" y="993"/>
      <point x="355" y="650" type="curve" smooth="yes"/>
      <point x="296" y="317"/>
      <point x="410" y="220"/>
      <point x="558" y="220" type="curve" smooth="yes"/>
      <point x="696" y="220"/>
      <point x="808" y="286"/>
    </contour>
    <contour>
      <point x="655" y="670" type="line"/>
      <point x="1145" y="670" type="line"/>
      <point x="1027" y="0" type="line"/>
      <point x="817" y="0" type="line"/>
      <point x="847" y="450" type="line"/>
      <point x="616" y="450" type="line"/>
    </contour>
  </outline>
</glyph>
<glyph name="H" format="2">
  <advance width="1200"/>
  <unicode hex="0048"/>
  <anchor x="516" y="0" name="Anchor-2"/>
  <anchor x="745" y="1300" name="Anchor-0"/>
  <outline>
    <contour>
      <point x="800" y="560" type="line"/>
      <point x="438" y="560" type="line"/>
      <point x="380" y="230" type="line"/>
      <point x="519" y="230" type="line"/>
      <point x="478" y="0" type="line"/>
      <point x="-40" y="0" type="line"/>
      <point x="1" y="230" type="line"/>
      <point x="121" y="230" type="line"/>
      <point x="269" y="1070" type="line"/>
      <point x="149" y="1070" type="line"/>
      <point x="189" y="1300" type="line"/>
      <point x="707" y="1300" type="line"/>
      <point x="667" y="1070" type="line"/>
      <point x="528" y="1070" type="line"/>
      <point x="478" y="790" type="line"/>
      <point x="840" y="790" type="line"/>
      <point x="890" y="1070" type="line"/>
      <point x="751" y="1070" type="line"/>
      <point x="791" y="1300" type="line"/>
      <point x="1309" y="1300" type="line"/>
      <point x="1269" y="1070" type="line"/>
      <point x="1149" y="1070" type="line"/>
      <point x="1001" y="230" type="line"/>
      <point x="1121" y="230" type="line"/>
      <point x="1080" y="0" type="line"/>
      <point x="562" y="0" type="line"/>
      <point x="603" y="230" type="line"/>
      <point x="742" y="230" type="line"/>
    </contour>
  </outline>
</glyph>
<glyph name="I" format="2">
  <advance width="1200"/>
  <unicode hex="0049"/>
  <anchor x="522" y="0" name="Anchor-3"/>
  <anchor x="522" y="0" name="Anchor-2"/>
  <anchor x="735" y="1300" name="Anchor-0"/>
  <outline>
    <contour>
      <point x="70" y="0" type="line"/>
      <point x="111" y="230" type="line"/>
      <point x="426" y="230" type="line"/>
      <point x="574" y="1070" type="line"/>
      <point x="269" y="1070" type="line"/>
      <point x="309" y="1300" type="line"/>
      <point x="1189" y="1300" type="line"/>
      <point x="1149" y="1070" type="line"/>
      <point x="844" y="1070" type="line"/>
      <point x="696" y="230" type="line"/>
      <point x="1011" y="230" type="line"/>
      <point x="970" y="0" type="line"/>
    </contour>
  </outline>
</glyph>
<glyph name="J" format="2">
  <advance width="1200"/>
  <unicode hex="004A"/>
  <anchor x="448" y="0" name="Anchor-2"/>
  <anchor x="915" y="1300" name="Anchor-0"/>
  <outline>
    <contour>
      <point x="49" y="450" type="curve"/>
      <point x="309" y="450" type="line"/>
      <point x="306" y="317"/>
      <point x="325" y="224"/>
      <point x="473" y="224" type="curve" smooth="yes"/>
      <point x="601" y="224"/>
      <point x="681" y="297"/>
      <point x="705" y="430" type="curve" smooth="yes"/>
      <point x="819" y="1070" type="line"/>
      <point x="600" y="1070" type="line"/>
      <point x="640" y="1300" type="line"/>
      <point x="1259" y="1300" type="line"/>
      <point x="1219" y="1070" type="line"/>
      <point x="1079" y="1070" type="line"/>
      <point x="965" y="430" type="line" smooth="yes"/>
      <point x="911" y="124"/>
      <point x="751" y="-20"/>
      <point x="465" y="-20" type="curve" smooth="yes"/>
      <point x="169" y="-20"/>
      <point x="10" y="174"/>
    </contour>
  </outline>
</glyph>
<glyph name="K" format="2">
  <advance width="1200"/>
  <unicode hex="004B"/>
  <anchor x="581" y="0" name="Anchor-2"/>
  <anchor x="775" y="1300" name="Anchor-0"/>
  <outline>
    <contour>
      <point x="528" y="668" type="line"/>
      <point x="727" y="770" type="line"/>
      <point x="1016" y="230" type="line"/>
      <point x="1141" y="230" type="line"/>
      <point x="1100" y="0" type="line"/>
      <point x="591" y="0" type="line"/>
      <point x="632" y="230" type="line"/>
      <point x="731" y="230" type="line"/>
    </contour>
    <contour>
      <point x="800" y="1300" type="line"/>
      <point x="1289" y="1300" type="line"/>
      <point x="1248" y="1070" type="line"/>
      <point x="1120" y="1070" type="line"/>
      <point x="406" y="370" type="line"/>
      <point x="381" y="230" type="line"/>
      <point x="490" y="230" type="line"/>
      <point x="449" y="0" type="line"/>
      <point x="-10" y="0" type="line"/>
      <point x="31" y="230" type="line"/>
      <point x="131" y="230" type="line"/>
      <point x="278" y="1070" type="line"/>
      <point x="178" y="1070" type="line"/>
      <point x="219" y="1300" type="line"/>
      <point x="678" y="1300" type="line"/>
      <point x="637" y="1070" type="line"/>
      <point x="528" y="1070" type="line"/>
      <point x="462" y="689" type="line"/>
      <point x="820" y="1070" type="line"/>
      <point x="759" y="1070" type="line"/>
    </contour>
  </outline>
</glyph>
<glyph name="L" format="2">
  <advance width="1200"/>
  <unicode hex="004C"/>
  <anchor x="536" y="0" name="Anchor-2"/>
  <anchor x="875" y="943" name="Anchor-1"/>
  <anchor x="493" y="1300" name="Anchor-0"/>
  <outline>
    <contour>
      <point x="976" y="650" type="line"/>
      <point x="1185" y="650" type="line"/>
      <point x="1050" y="0" type="line"/>
      <point x="-10" y="0" type="line"/>
      <point x="31" y="230" type="line"/>
      <point x="171" y="230" type="line"/>
      <point x="320" y="1080" type="line"/>
      <point x="200" y="1080" type="line"/>
      <point x="239" y="1300" type="line"/>
      <point x="768" y="1300" type="line"/>
      <point x="729" y="1080" type="line"/>
      <point x="579" y="1080" type="line"/>
      <point x="430" y="230" type="line"/>
      <point x="836" y="230" type="line"/>
    </contour>
  </outline>
</glyph>
<glyph name="M" format="2">
  <advance width="1200"/>
  <unicode hex="004D"/>
  <anchor x="526" y="0" name="Anchor-2"/>
  <anchor x="755" y="1300" name="Anchor-0"/>
  <outline>
    <contour>
      <point x="237" y="1070" type="line"/>
      <point x="109" y="1070" type="line"/>
      <point x="149" y="1300" type="line"/>
      <point x="582" y="1300" type="line"/>
      <point x="696" y="630" type="line"/>
      <point x="606" y="630" type="line"/>
      <point x="906" y="1300" type="line"/>
      <point x="1349" y="1300" type="line"/>
      <point x="1309" y="1070" type="line"/>
      <point x="1181" y="1070" type="line"/>
      <point x="1049" y="230" type="line"/>
      <point x="1161" y="230" type="line"/>
      <point x="1120" y="0" type="line"/>
      <point x="651" y="0" type="line"/>
      <point x="692" y="230" type="line"/>
      <point x="805" y="230" type="line"/>
      <point x="862" y="584" type="line"/>
      <point x="1003" y="1074" type="line"/>
      <point x="672" y="350" type="line"/>
      <point x="532" y="350" type="line"/>
      <point x="415" y="1074" type="line"/>
      <point x="384" y="584" type="line"/>
      <point x="317" y="230" type="line"/>
      <point x="430" y="230" type="line"/>
      <point x="389" y="0" type="line"/>
      <point x="-80" y="0" type="line"/>
      <point x="-39" y="230" type="line"/>
      <point x="73" y="230" type="line"/>
    </contour>
  </outline>
</glyph>
<glyph name="N" format="2">
  <advance width="1200"/>
  <unicode hex="004E"/>
  <anchor x="546" y="0" name="Anchor-2"/>
  <anchor x="785" y="1300" name="Anchor-0"/>
  <outline>
    <contour>
      <point x="327" y="1060" type="line"/>
      <point x="169" y="1060" type="line"/>
      <point x="211" y="1300" type="line"/>
      <point x="369" y="1300" type="line"/>
    </contour>
    <contour>
      <point x="319" y="1300" type="line"/>
      <point x="727" y="1300" type="line"/>
      <point x="873" y="463" type="line"/>
      <point x="1024" y="1320" type="line"/>
      <point x="1273" y="1320" type="line"/>
      <point x="1036" y="-20" type="line"/>
      <point x="748" y="-20" type="line"/>
      <point x="538" y="997" type="line"/>
      <point x="513" y="1167" type="line"/>
      <point x="505" y="997" type="line"/>
      <point x="325" y="-20" type="line"/>
      <point x="86" y="-20" type="line"/>
    </contour>
  </outline>
</glyph>
<glyph name="O" format="2">
  <advance width="1200"/>
  <unicode hex="004F"/>
  <anchor x="549" y="0" name="Anchor-2"/>
  <anchor x="718" y="1300" name="Anchor-0"/>
  <outline>
    <contour>
      <point x="545" y="-20" type="curve" smooth="yes"/>
      <point x="189" y="-20"/>
      <point x="5" y="194"/>
      <point x="85" y="650" type="curve" smooth="yes"/>
      <point x="164" y="1096"/>
      <point x="385" y="1320"/>
      <point x="722" y="1320" type="curve" smooth="yes"/>
      <point x="1059" y="1320"/>
      <point x="1263" y="1096"/>
      <point x="1184" y="650" type="curve" smooth="yes"/>
      <point x="1104" y="194"/>
      <point x="901" y="-20"/>
    </contour>
    <contour>
      <point x="709" y="1080" type="curve" smooth="yes"/>
      <point x="561" y="1080"/>
      <point x="452" y="973"/>
      <point x="395" y="650" type="curve" smooth="yes"/>
      <point x="336" y="317"/>
      <point x="390" y="220"/>
      <point x="558" y="220" type="curve" smooth="yes"/>
      <point x="726" y="220"/>
      <point x="815" y="317"/>
      <point x="874" y="650" type="curve" smooth="yes"/>
      <point x="931" y="973"/>
      <point x="857" y="1080"/>
    </contour>
  </outline>
</glyph>
<glyph name="P" format="2">
  <advance width="1200"/>
  <unicode hex="0050"/>
  <anchor x="282" y="0" name="Anchor-2"/>
  <anchor x="715" y="1300" name="Anchor-0"/>
  <outline>
    <contour>
      <point x="20" y="0" type="line"/>
      <point x="61" y="230" type="line"/>
      <point x="181" y="230" type="line"/>
      <point x="329" y="1070" type="line"/>
      <point x="209" y="1070" type="line"/>
      <point x="249" y="1300" type="line"/>
      <point x="811" y="1300" type="line" smooth="yes"/>
      <point x="1137" y="1300"/>
      <point x="1296" y="1111"/>
      <point x="1247" y="835" type="curve" smooth="yes"/>
      <point x="1200" y="569"/>
      <point x="954" y="480"/>
      <point x="667" y="480" type="curve" smooth="yes"/>
      <point x="484" y="480" type="line"/>
      <point x="440" y="230" type="line"/>
      <point x="630" y="230" type="line"/>
      <point x="589" y="0" type="line"/>
    </contour>
    <contour>
      <point x="524" y="710" type="line"/>
      <point x="707" y="710" type="line" smooth="yes"/>
      <point x="855" y="710"/>
      <point x="965" y="762"/>
      <point x="987" y="885" type="curve" smooth="yes"/>
      <point x="1010" y="1018"/>
      <point x="939" y="1070"/>
      <point x="771" y="1070" type="curve" smooth="yes"/>
      <point x="588" y="1070" type="line"/>
    </contour>
  </outline>
</glyph>
<glyph name="Q" format="2">
  <advance width="1200"/>
  <unicode hex="0051"/>
  <anchor x="708" y="1300" name="Anchor-0"/>
  <outline>
    <contour>
      <point x="211" y="227" type="line"/>
      <point x="257" y="373"/>
      <point x="381" y="572"/>
      <point x="542" y="572" type="curve" smooth="yes"/>
      <point x="911" y="572"/>
      <point x="688" y="-158"/>
      <point x="852" y="-158" type="curve" smooth="yes"/>
      <point x="901" y="-158"/>
      <point x="916" y="-81"/>
      <point x="960" y="1" type="curve"/>
      <point x="1154" y="-89" type="line"/>
      <point x="1081" y="-221"/>
      <point x="996" y="-378"/>
      <point x="816" y="-378" type="curve" smooth="yes"/>
      <point x="406" y="-378"/>
      <point x="651" y="342"/>
      <point x="480" y="342" type="curve" smooth="yes"/>
      <point x="397" y="342"/>
      <point x="361" y="228"/>
      <point x="343" y="127" type="curve"/>
    </contour>
    <contour>
      <point x="565" y="-20" type="curve" smooth="yes"/>
      <point x="219" y="-20"/>
      <point x="3" y="184"/>
      <point x="85" y="650" type="curve" smooth="yes"/>
      <point x="165" y="1106"/>
      <point x="385" y="1320"/>
      <point x="712" y="1320" type="curve" smooth="yes"/>
      <point x="1039" y="1320"/>
      <point x="1264" y="1106"/>
      <point x="1184" y="650" type="curve" smooth="yes"/>
      <point x="1102" y="184"/>
      <point x="911" y="-20"/>
    </contour>
    <contour>
      <point x="709" y="1080" type="curve" smooth="yes"/>
      <point x="551" y="1080"/>
      <point x="452" y="973"/>
      <point x="395" y="650" type="curve" smooth="yes"/>
      <point x="336" y="317"/>
      <point x="378" y="210"/>
      <point x="556" y="210" type="curve" smooth="yes"/>
      <point x="734" y="210"/>
      <point x="815" y="317"/>
      <point x="874" y="650" type="curve" smooth="yes"/>
      <point x="931" y="973"/>
      <point x="867" y="1080"/>
    </contour>
  </outline>
</glyph>
<glyph name="R" format="2">
  <advance width="1200"/>
  <unicode hex="0052"/>
  <anchor x="506" y="0" name="Anchor-2"/>
  <anchor x="695" y="1300" name="Anchor-0"/>
  <outline>
    <contour>
      <point x="-40" y="0" type="line"/>
      <point x="1" y="230" type="line"/>
      <point x="111" y="230" type="line"/>
      <point x="259" y="1070" type="line"/>
      <point x="149" y="1070" type="line"/>
      <point x="189" y="1300" type="line"/>
      <point x="701" y="1300" type="line" smooth="yes"/>
      <point x="1047" y="1300"/>
      <point x="1188" y="1146"/>
      <point x="1145" y="900" type="curve" smooth="yes"/>
      <point x="1095" y="614"/>
      <point x="832" y="585"/>
      <point x="593" y="575" type="curve"/>
      <point x="593" y="630" type="line"/>
      <point x="789" y="630"/>
      <point x="868" y="523"/>
      <point x="862" y="290" type="curve" smooth="yes"/>
      <point x="861" y="237"/>
      <point x="857" y="210"/>
      <point x="888" y="210" type="curve" smooth="yes"/>
      <point x="916" y="210"/>
      <point x="928" y="237"/>
      <point x="958" y="350" type="curve"/>
      <point x="1157" y="320" type="line"/>
      <point x="1104" y="94"/>
      <point x="1000" y="-40"/>
      <point x="844" y="-40" type="curve" smooth="yes"/>
      <point x="658" y="-40"/>
      <point x="620" y="91"/>
      <point x="619" y="275" type="curve" smooth="yes"/>
      <point x="618.168" y="428.158"/>
      <point x="596" y="490"/>
      <point x="488" y="490" type="curve" smooth="yes"/>
      <point x="415" y="490" type="line"/>
      <point x="370" y="230" type="line"/>
      <point x="523" y="230" type="line"/>
      <point x="482" y="0" type="line"/>
    </contour>
    <contour>
      <point x="456" y="720" type="line"/>
      <point x="569" y="720" type="line" smooth="yes"/>
      <point x="737" y="720"/>
      <point x="846" y="767"/>
      <point x="868" y="890" type="curve" smooth="yes"/>
      <point x="891" y="1023"/>
      <point x="829" y="1070"/>
      <point x="661" y="1070" type="curve" smooth="yes"/>
      <point x="518" y="1070" type="line"/>
    </contour>
  </outline>
</glyph>
<glyph name="S" format="2">
  <advance width="1200"/>
  <unicode hex="0053"/>
  <anchor x="506" y="0" name="Anchor-3"/>
  <anchor x="505" y="0" name="Anchor-2"/>
  <anchor x="755" y="1300" name="Anchor-0"/>
  <outline>
    <contour>
      <point x="1042" y="1310" type="line"/>
      <point x="1232" y="1310" type="line"/>
      <point x="1142" y="809" type="line"/>
      <point x="892" y="809" type="line"/>
      <point x="822" y="962"/>
      <point x="702" y="1080"/>
      <point x="584" y="1080" type="curve" smooth="yes"/>
      <point x="503" y="1080"/>
      <point x="459" y="1044"/>
      <point x="459" y="981" type="curve" smooth="yes"/>
      <point x="459" y="921"/>
      <point x="511" y="850"/>
      <point x="671" y="803" type="curve" smooth="yes"/>
      <point x="887" y="740"/>
      <point x="1129" y="693"/>
      <point x="1129" y="380" type="curve" smooth="yes"/>
      <point x="1129" y="100"/>
      <point x="872" y="-29"/>
      <point x="660" y="-29" type="curve" smooth="yes"/>
      <point x="393" y="-29"/>
      <point x="202" y="141"/>
      <point x="202" y="531" type="curve"/>
      <point x="317" y="401" type="line"/>
      <point x="172" y="-10" type="line"/>
      <point x="-23" y="-10" type="line"/>
      <point x="77" y="581" type="line"/>
      <point x="322" y="581" type="line"/>
      <point x="352" y="313"/>
      <point x="487" y="201"/>
      <point x="650" y="201" type="curve" smooth="yes"/>
      <point x="792" y="201"/>
      <point x="859" y="262"/>
      <point x="859" y="351" type="curve" smooth="yes"/>
      <point x="859" y="465"/>
      <point x="765" y="519"/>
      <point x="611" y="560" type="curve" smooth="yes"/>
      <point x="424" y="610"/>
      <point x="199" y="698"/>
      <point x="199" y="950" type="curve" smooth="yes"/>
      <point x="199" y="1161"/>
      <point x="358" y="1320"/>
      <point x="594" y="1320" type="curve" smooth="yes"/>
      <point x="880" y="1320"/>
      <point x="997" y="1049"/>
      <point x="997" y="859" type="curve"/>
      <point x="907" y="979" type="line"/>
    </contour>
  </outline>
</glyph>
<glyph name="T" format="2">
  <advance width="1200"/>
  <unicode hex="0054"/>
  <anchor x="521" y="0" name="Anchor-3"/>
  <anchor x="748" y="1300" name="Anchor-0"/>
  <anchor x="519" y="0" name="Anchor-2"/>
  <outline>
    <contour>
      <point x="279" y="740" type="line"/>
      <point x="70" y="740" type="line"/>
      <point x="169" y="1300" type="line"/>
      <point x="1329" y="1300" type="line"/>
      <point x="1230" y="740" type="line"/>
      <point x="1021" y="740" type="line"/>
      <point x="1044" y="1070" type="line"/>
      <point x="838" y="1070" type="line"/>
      <point x="690" y="230" type="line"/>
      <point x="890" y="230" type="line"/>
      <point x="849" y="0" type="line"/>
      <point x="200" y="0" type="line"/>
      <point x="241" y="230" type="line"/>
      <point x="421" y="230" type="line"/>
      <point x="569" y="1070" type="line"/>
      <point x="374" y="1070" type="line"/>
    </contour>
  </outline>
</glyph>
<glyph name="U" format="2">
  <advance width="1200"/>
  <unicode hex="0055"/>
  <anchor x="748" y="1300" name="Anchor-0"/>
  <anchor x="519" y="0" name="Anchor-2"/>
  <anchor x="665" y="80" name="Anchor-3"/>
  <outline>
    <contour>
      <point x="146" y="430" type="curve" smooth="yes"/>
      <point x="259" y="1070" type="line"/>
      <point x="149" y="1070" type="line"/>
      <point x="189" y="1300" type="line"/>
      <point x="678" y="1300" type="line"/>
      <point x="638" y="1070" type="line"/>
      <point x="519" y="1070" type="line"/>
      <point x="406" y="430" type="line" smooth="yes"/>
      <point x="381" y="287"/>
      <point x="450" y="220"/>
      <point x="558" y="220" type="curve" smooth="yes"/>
      <point x="666" y="220"/>
      <point x="760" y="287"/>
      <point x="785" y="430" type="curve" smooth="yes"/>
      <point x="899" y="1070" type="line"/>
      <point x="780" y="1070" type="line"/>
      <point x="820" y="1300" type="line"/>
      <point x="1309" y="1300" type="line"/>
      <point x="1269" y="1070" type="line"/>
      <point x="1159" y="1070" type="line"/>
      <point x="1045" y="430" type="line" smooth="yes"/>
      <point x="987" y="104"/>
      <point x="811" y="-20"/>
      <point x="545" y="-20" type="curve" smooth="yes"/>
      <point x="279" y="-20"/>
      <point x="89" y="104"/>
    </contour>
  </outline>
</glyph>
<glyph name="V" format="2">
  <advance width="1200"/>
  <unicode hex="0056"/>
  <anchor x="748.225" y="1300" name="Anchor-0"/>
  <anchor x="519" y="0" name="Anchor-2"/>
  <outline>
    <contour>
      <point x="854.67" y="1070" type="line"/>
      <point x="769.67" y="1070" type="line"/>
      <point x="810.225" y="1300" type="line"/>
      <point x="1319.22" y="1300" type="line"/>
      <point x="1278.67" y="1070" type="line"/>
      <point x="1151.67" y="1070" type="line"/>
      <point x="656.474" y="-20" type="line"/>
      <point x="376.474" y="-20" type="line"/>
      <point x="265.67" y="1070" type="line"/>
      <point x="138.67" y="1070" type="line"/>
      <point x="179.225" y="1300" type="line"/>
      <point x="688.225" y="1300" type="line"/>
      <point x="647.67" y="1070" type="line"/>
      <point x="552.67" y="1070" type="line"/>
      <point x="594.396" y="110" type="line"/>
      <point x="474.396" y="110" type="line"/>
    </contour>
  </outline>
</glyph>
<glyph name="W" format="2">
  <advance width="1200"/>
  <unicode hex="0057"/>
  <anchor x="748" y="1300" name="Anchor-0"/>
  <anchor x="519" y="0" name="Anchor-2"/>
  <outline>
    <contour>
      <point x="465" y="1070" type="line"/>
      <point x="427" y="626" type="line"/>
      <point x="278" y="6" type="line"/>
      <point x="248" y="6" type="line"/>
      <point x="583" y="950" type="line"/>
      <point x="793" y="950" type="line"/>
      <point x="806" y="16" type="line"/>
      <point x="776" y="16" type="line"/>
      <point x="843" y="626" type="line"/>
      <point x="953" y="1070" type="line"/>
      <point x="790" y="1070" type="line"/>
      <point x="830" y="1300" type="line"/>
      <point x="1339" y="1300" type="line"/>
      <point x="1299" y="1070" type="line"/>
      <point x="1179" y="1070" type="line"/>
      <point x="905" y="0" type="line"/>
      <point x="637" y="0" type="line"/>
      <point x="607" y="690" type="line"/>
      <point x="687" y="690" type="line"/>
      <point x="413" y="0" type="line"/>
      <point x="135" y="0" type="line"/>
      <point x="239" y="1070" type="line"/>
      <point x="119" y="1070" type="line"/>
      <point x="159" y="1300" type="line"/>
      <point x="658" y="1300" type="line"/>
      <point x="618" y="1070" type="line"/>
    </contour>
  </outline>
</glyph>
<glyph name="X" format="2">
  <advance width="1200"/>
  <unicode hex="0058"/>
  <anchor x="748" y="1300" name="Anchor-0"/>
  <anchor x="519" y="0" name="Anchor-2"/>
  <outline>
    <contour>
      <point x="209" y="1300" type="line"/>
      <point x="698" y="1300" type="line"/>
      <point x="658" y="1070" type="line"/>
      <point x="568" y="1070" type="line"/>
      <point x="663" y="812" type="line"/>
      <point x="850" y="1070" type="line"/>
      <point x="760" y="1070" type="line"/>
      <point x="800" y="1300" type="line"/>
      <point x="1289" y="1300" type="line"/>
      <point x="1249" y="1070" type="line"/>
      <point x="1120" y="1070" type="line"/>
      <point x="800" y="654" type="line"/>
      <point x="992" y="230" type="line"/>
      <point x="1121" y="230" type="line"/>
      <point x="1080" y="0" type="line"/>
      <point x="561" y="0" type="line"/>
      <point x="602" y="230" type="line"/>
      <point x="702" y="230" type="line"/>
      <point x="606" y="486" type="line"/>
      <point x="420" y="230" type="line"/>
      <point x="520" y="230" type="line"/>
      <point x="479" y="0" type="line"/>
      <point x="-40" y="0" type="line"/>
      <point x="1" y="230" type="line"/>
      <point x="130" y="230" type="line"/>
      <point x="469" y="644" type="line"/>
      <point x="298" y="1070" type="line"/>
      <point x="169" y="1070" type="line"/>
    </contour>
  </outline>
</glyph>
<glyph name="Y" format="2">
  <advance width="1200"/>
  <unicode hex="0059"/>
  <anchor x="748" y="1300" name="Anchor-0"/>
  <anchor x="519" y="0" name="Anchor-2"/>
  <outline>
    <contour>
      <point x="190" y="0" type="line"/>
      <point x="231" y="230" type="line"/>
      <point x="421" y="230" type="line"/>
      <point x="465" y="480" type="line"/>
      <point x="273" y="1070" type="line"/>
      <point x="139" y="1070" type="line"/>
      <point x="179" y="1300" type="line"/>
      <point x="687" y="1300" type="line"/>
      <point x="647" y="1070" type="line"/>
      <point x="528" y="1070" type="line"/>
      <point x="647" y="610" type="line"/>
      <point x="598" y="610" type="line"/>
      <point x="890" y="1070" type="line"/>
      <point x="789" y="1070" type="line"/>
      <point x="829" y="1300" type="line"/>
      <point x="1319" y="1300" type="line"/>
      <point x="1279" y="1070" type="line"/>
      <point x="1145" y="1070" type="line"/>
      <point x="734" y="480" type="line"/>
      <point x="690" y="230" type="line"/>
      <point x="880" y="230" type="line"/>
      <point x="839" y="0" type="line"/>
    </contour>
  </outline>
</glyph>
<glyph name="Z" format="2">
  <advance width="1200"/>
  <unicode hex="005A"/>
  <anchor x="748" y="1300" name="Anchor-0"/>
  <anchor x="519" y="0" name="Anchor-2"/>
  <outline>
    <contour>
      <point x="910" y="560" type="line"/>
      <point x="1119" y="560" type="line"/>
      <point x="980" y="0" type="line"/>
      <point x="30" y="0" type="line"/>
      <point x="-34" y="150" type="line"/>
      <point x="829" y="1060" type="line"/>
      <point x="456" y="1060" type="line"/>
      <point x="380" y="800" type="line"/>
      <point x="171" y="800" type="line"/>
      <point x="259" y="1300" type="line"/>
      <point x="1159" y="1300" type="line"/>
      <point x="1223" y="1150" type="line"/>
      <point x="380" y="240" type="line"/>
      <point x="770" y="240" type="line"/>
    </contour>
  </outline>
</glyph>
<glyph name="bracketleft" format="2">
  <advance width="1200"/>
  <unicode hex="005B"/>
  <outline>
    <contour>
      <point x="140" y="-51" type="line"/>
      <point x="387" y="1350" type="line"/>
      <point x="1079" y="1350" type="line"/>
      <point x="1038" y="1120" type="line"/>
      <point x="628" y="1120" type="line"/>
      <point x="463" y="179" type="line"/>
      <point x="873" y="179" type="line"/>
      <point x="832" y="-51" type="line"/>
    </contour>
  </outline>
</glyph>
<glyph name="backslash" format="2">
  <advance width="1200"/>
  <unicode hex="005C"/>
  <outline>
    <contour>
      <point x="578" y="1365" type="line"/>
      <point x="951" y="-95" type="line"/>
      <point x="731" y="-175" type="line"/>
      <point x="359" y="1285" type="line"/>
    </contour>
  </outline>
</glyph>
<glyph name="bracketright" format="2">
  <advance width="1200"/>
  <unicode hex="005D"/>
  <outline>
    <contour>
      <point x="1129" y="1350" type="line"/>
      <point x="882" y="-51" type="line"/>
      <point x="190" y="-51" type="line"/>
      <point x="231" y="179" type="line"/>
      <point x="641" y="179" type="line"/>
      <point x="806" y="1120" type="line"/>
      <point x="396" y="1120" type="line"/>
      <point x="437" y="1350" type="line"/>
    </contour>
  </outline>
</glyph>
<glyph name="asciicircum" format="2">
  <advance width="1200"/>
  <unicode hex="005E"/>
  <outline>
    <contour>
      <point x="303" y="731" type="line"/>
      <point x="203" y="801" type="line"/>
      <point x="621" y="1300" type="line"/>
      <point x="888" y="1300" type="line"/>
      <point x="1119" y="801" type="line"/>
      <point x="996" y="731" type="line"/>
      <point x="686" y="1100" type="line"/>
      <point x="753" y="1100" type="line"/>
    </contour>
  </outline>
</glyph>
<glyph name="underscore" format="2">
  <advance width="1200"/>
  <unicode hex="005F"/>
  <outline>
    <contour>
      <point x="139" y="0" type="line"/>
      <point x="901" y="0" type="line"/>
      <point x="860" y="-230" type="line"/>
      <point x="98" y="-230" type="line"/>
    </contour>
  </outline>
</glyph>
<glyph name="grave" format="2">
  <advance width="1200"/>
  <unicode hex="0060"/>
  <outline>
    <contour>
      <point x="893" y="1105" type="line"/>
      <point x="747" y="1015" type="line"/>
      <point x="532" y="1261" type="line"/>
      <point x="795" y="1421" type="line"/>
    </contour>
  </outline>
</glyph>
<glyph name="a" format="2">
  <advance width="1200"/>
  <unicode hex="0061"/>
  <anchor x="830" y="20" name="Anchor-3"/>
  <anchor x="446" y="0" name="Anchor-2"/>
  <anchor x="668" y="920" name="Anchor-0"/>
  <outline>
    <contour>
      <point x="1073" y="920" type="line"/>
      <point x="928" y="295" type="line" smooth="yes"/>
      <point x="917.216" y="248.181"/>
      <point x="894.385" y="180"/>
      <point x="927" y="180" type="curve" smooth="yes"/>
      <point x="957" y="180"/>
      <point x="1000" y="215"/>
      <point x="1059" y="280" type="curve"/>
      <point x="1177" y="143" type="line"/>
      <point x="1075" y="43"/>
      <point x="958" y="-35"/>
      <point x="818" y="-35" type="curve" smooth="yes"/>
      <point x="708" y="-35"/>
      <point x="608.422" y="21.3652"/>
      <point x="647" y="190" type="curve" smooth="yes"/>
      <point x="814" y="920" type="line"/>
    </contour>
    <contour>
      <point x="332" y="426" type="curve" smooth="yes"/>
      <point x="296.36" y="273.52"/>
      <point x="363" y="225"/>
      <point x="437" y="225" type="curve" smooth="yes"/>
      <point x="525" y="225"/>
      <point x="624" y="277"/>
      <point x="760" y="500" type="curve"/>
      <point x="730" y="310" type="line"/>
      <point x="600" y="64"/>
      <point x="426" y="-20"/>
      <point x="309" y="-20" type="curve" smooth="yes"/>
      <point x="93" y="-20"/>
      <point x="-23.8213" y="161.893"/>
      <point x="45" y="450" type="curve" smooth="yes"/>
      <point x="116.081" y="747.568"/>
      <point x="384" y="939"/>
      <point x="589" y="939" type="curve" smooth="yes"/>
      <point x="737" y="939"/>
      <point x="815" y="856"/>
      <point x="854" y="780" type="curve"/>
      <point x="855" y="659" type="line"/>
      <point x="815" y="706"/>
      <point x="747" y="739"/>
      <point x="670" y="739" type="curve" smooth="yes"/>
      <point x="540" y="739"/>
      <point x="380.412" y="633.125"/>
    </contour>
  </outline>
</glyph>
<glyph name="c" format="2">
  <advance width="1200"/>
  <unicode hex="0063"/>
  <anchor x="556" y="2" name="Anchor-3"/>
  <anchor x="556" y="0" name="Anchor-2"/>
  <anchor x="738" y="920" name="Anchor-0"/>
  <outline>
    <contour>
      <point x="667" y="710" type="line"/>
      <point x="524" y="710"/>
      <point x="399" y="631"/>
      <point x="378" y="458" type="curve" smooth="yes"/>
      <point x="360.507" y="313.889"/>
      <point x="444" y="215"/>
      <point x="622" y="215" type="curve"/>
      <point x="580" y="-20" type="line"/>
      <point x="279" y="-20"/>
      <point x="41.3975" y="144.836"/>
      <point x="81" y="470" type="curve" smooth="yes"/>
      <point x="111.355" y="719.242"/>
      <point x="334" y="940"/>
      <point x="686" y="940" type="curve"/>
    </contour>
    <contour>
      <point x="667" y="710" type="curve"/>
      <point x="686" y="940" type="line"/>
      <point x="926" y="940"/>
      <point x="1135" y="814"/>
      <point x="1109" y="667" type="curve" smooth="yes"/>
      <point x="1093" y="579"/>
      <point x="1074" y="530"/>
      <point x="1069" y="510" type="curve"/>
      <point x="811" y="510" type="line"/>
      <point x="817" y="531"/>
      <point x="821" y="551"/>
      <point x="826" y="581" type="curve" smooth="yes"/>
      <point x="839" y="656"/>
      <point x="778" y="710"/>
    </contour>
    <contour>
      <point x="1040" y="113" type="line"/>
      <point x="939" y="49"/>
      <point x="776" y="-20"/>
      <point x="580" y="-20" type="curve"/>
      <point x="622" y="215" type="line"/>
      <point x="789" y="215"/>
      <point x="895" y="257"/>
      <point x="973" y="300" type="curve"/>
    </contour>
  </outline>
</glyph>
<glyph name="e" format="2">
  <advance width="1200"/>
  <unicode hex="0065"/>
  <anchor x="706" y="57" name="Anchor-3"/>
  <anchor x="565" y="0" name="Anchor-2"/>
  <anchor x="707" y="920" name="Anchor-0"/>
  <outline>
    <contour>
      <point x="1010" y="123" type="line"/>
      <point x="918" y="57"/>
      <point x="736" y="-20"/>
      <point x="560" y="-20" type="curve"/>
      <point x="596" y="212" type="line"/>
      <point x="723" y="212"/>
      <point x="846" y="254"/>
      <point x="922" y="302" type="curve"/>
    </contour>
    <contour>
      <point x="560" y="-20" type="line"/>
      <point x="208.552" y="-20"/>
      <point x="35" y="162"/>
      <point x="84" y="450" type="curve" smooth="yes"/>
      <point x="135.151" y="750.642"/>
      <point x="398" y="940"/>
      <point x="715" y="940" type="curve" smooth="yes"/>
      <point x="957.42" y="940"/>
      <point x="1138.11" y="835.176"/>
      <point x="1105" y="642" type="curve" smooth="yes"/>
      <point x="1060.02" y="379.506"/>
      <point x="571.205" y="351.492"/>
      <point x="265" y="342" type="curve"/>
      <point x="284" y="512" type="line"/>
      <point x="569.614" y="534.841"/>
      <point x="798.188" y="576.539"/>
      <point x="815" y="642" type="curve" smooth="yes"/>
      <point x="828.431" y="694.293"/>
      <point x="778.201" y="725"/>
      <point x="711" y="725" type="curve" smooth="yes"/>
      <point x="563" y="725"/>
      <point x="384.47" y="613.589"/>
      <point x="354" y="460" type="curve" smooth="yes"/>
      <point x="318.609" y="281.604"/>
      <point x="377.549" y="212"/>
      <point x="596" y="212" type="curve"/>
    </contour>
  </outline>
</glyph>
<glyph name="f" format="2">
  <advance width="1200"/>
  <unicode hex="0066"/>
  <anchor x="386" y="0" name="Anchor-2"/>
  <anchor x="960" y="1420" name="Anchor-0"/>
  <outline>
    <contour>
      <point x="938" y="1200" type="curve"/>
      <point x="953" y="1440" type="line"/>
      <point x="1110" y="1440"/>
      <point x="1260" y="1361"/>
      <point x="1323" y="1301" type="curve"/>
      <point x="1158" y="1090" type="line"/>
      <point x="1121" y="1120"/>
      <point x="1046" y="1200"/>
    </contour>
    <contour>
      <point x="243" y="-330" type="line"/>
      <point x="385" y="690" type="line"/>
      <point x="155" y="690" type="line"/>
      <point x="192" y="920" type="line"/>
      <point x="411" y="920" type="line"/>
      <point x="425" y="1000" type="line" smooth="yes"/>
      <point x="468" y="1246"/>
      <point x="626" y="1440"/>
      <point x="953" y="1440" type="curve"/>
      <point x="938" y="1200" type="line"/>
      <point x="820" y="1200"/>
      <point x="719.786" y="1141.64"/>
      <point x="695" y="1000" type="curve" smooth="yes"/>
      <point x="681" y="920" type="line"/>
      <point x="1082" y="920" type="line"/>
      <point x="1042" y="670" type="line"/>
      <point x="654" y="690" type="line"/>
      <point x="512" y="-330" type="line"/>
    </contour>
  </outline>
</glyph>
<glyph name="g" format="2">
  <advance width="1200"/>
  <unicode hex="0067"/>
  <anchor x="376" y="0" name="Anchor-2"/>
  <anchor x="618" y="920" name="Anchor-0"/>
  <outline>
    <contour>
      <point x="434" y="0" type="curve" smooth="yes"/>
      <point x="208" y="0"/>
      <point x="39" y="184"/>
      <point x="91" y="480" type="curve" smooth="yes"/>
      <point x="143" y="776"/>
      <point x="347" y="940"/>
      <point x="584" y="940" type="curve" smooth="yes"/>
      <point x="841" y="940"/>
      <point x="954" y="676"/>
      <point x="907" y="410" type="curve" smooth="yes"/>
      <point x="858" y="134"/>
      <point x="680" y="0"/>
    </contour>
    <contour>
      <point x="640" y="705" type="curve" smooth="yes"/>
      <point x="502" y="705"/>
      <point x="383.15" y="615.967"/>
      <point x="361" y="460" type="curve" smooth="yes"/>
      <point x="335.29" y="278.971"/>
      <point x="423" y="230"/>
      <point x="541" y="230" type="curve" smooth="yes"/>
      <point x="689" y="230"/>
      <point x="813.671" y="306.728"/>
      <point x="833" y="460" type="curve" smooth="yes"/>
      <point x="853.695" y="624.106"/>
      <point x="768" y="705"/>
    </contour>
    <contour>
      <point x="439" y="-190" type="curve"/>
      <point x="440" y="-430" type="line"/>
      <point x="233" y="-430"/>
      <point x="61" y="-331"/>
      <point x="-6" y="-241" type="curve"/>
      <point x="174" y="-62" type="line"/>
      <point x="227" y="-122"/>
      <point x="301" y="-190"/>
    </contour>
    <contour>
      <point x="783" y="73" type="curve" smooth="yes"/>
      <point x="875" y="690" type="line"/>
      <point x="995" y="920" type="line"/>
      <point x="1173" y="920" type="line"/>
      <point x="1042" y="73" type="line" smooth="yes"/>
      <point x="985.654" y="-291.313"/>
      <point x="707" y="-430"/>
      <point x="440" y="-430" type="curve"/>
      <point x="439" y="-190" type="line"/>
      <point x="617" y="-190"/>
      <point x="755.576" y="-109.921"/>
    </contour>
  </outline>
</glyph>
<glyph name="h" format="2">
  <advance width="1200"/>
  <unicode hex="0068"/>
  <anchor x="538" y="0" name="Anchor-2"/>
  <anchor x="952" y="1030" name="Anchor-0"/>
  <outline>
    <contour>
      <point x="1089" y="570" type="curve" smooth="yes"/>
      <point x="988" y="0" type="line"/>
      <point x="719" y="0" type="line"/>
      <point x="820" y="570" type="line" smooth="yes"/>
      <point x="838" y="673"/>
      <point x="801" y="710"/>
      <point x="703" y="710" type="curve" smooth="yes"/>
      <point x="605" y="710"/>
      <point x="469.368" y="623.819"/>
      <point x="428" y="390" type="curve" smooth="yes"/>
      <point x="359" y="0" type="line"/>
      <point x="90" y="0" type="line"/>
      <point x="282" y="1090" type="line"/>
      <point x="122" y="1090" type="line"/>
      <point x="165" y="1330" type="line"/>
      <point x="594" y="1330" type="line"/>
      <point x="491" y="750" type="line"/>
      <point x="366" y="550" type="line"/>
      <point x="394" y="706"/>
      <point x="567" y="940"/>
      <point x="804" y="940" type="curve" smooth="yes"/>
      <point x="1001" y="940"/>
      <point x="1131" y="806"/>
    </contour>
  </outline>
</glyph>
<glyph name="i" format="2">
  <advance width="1200"/>
  <unicode hex="0069"/>
  <anchor x="500" y="0" name="Anchor-3"/>
  <anchor x="505" y="0" name="Anchor-2"/>
  <outline>
    <contour>
      <point x="569" y="700" type="line"/>
      <point x="169" y="680" type="line"/>
      <point x="212" y="920" type="line"/>
      <point x="811" y="920" type="line"/>
      <point x="668" y="305" type="line" smooth="yes"/>
      <point x="654.916" y="248.728"/>
      <point x="654.385" y="210"/>
      <point x="687" y="210" type="curve" smooth="yes"/>
      <point x="747" y="210"/>
      <point x="838" y="291"/>
      <point x="967" y="423" type="curve"/>
      <point x="1103" y="242" type="line"/>
      <point x="951" y="102"/>
      <point x="756" y="-25"/>
      <point x="586" y="-25" type="curve" smooth="yes"/>
      <point x="456" y="-25"/>
      <point x="338.759" y="43.1338"/>
      <point x="385" y="240" type="curve" smooth="yes"/>
      <point x="524.58" y="833.158" type="line"/>
    </contour>
    <contour>
      <point x="550" y="1255" type="curve" smooth="yes"/>
      <point x="550" y="1363"/>
      <point x="636" y="1430"/>
      <point x="734" y="1430" type="curve" smooth="yes"/>
      <point x="832" y="1430"/>
      <point x="919" y="1363"/>
      <point x="919" y="1255" type="curve" smooth="yes"/>
      <point x="919" y="1147"/>
      <point x="837" y="1080"/>
      <point x="739" y="1080" type="curve" smooth="yes"/>
      <point x="641" y="1080"/>
      <point x="550" y="1147"/>
    </contour>
  </outline>
</glyph>
<glyph name="j" format="2">
  <advance width="1200"/>
  <unicode hex="006A"/>
  <anchor x="345" y="-400" name="Anchor-2"/>
  <outline>
    <contour>
      <point x="781" y="1255" type="curve" smooth="yes"/>
      <point x="781" y="1363"/>
      <point x="867" y="1430"/>
      <point x="965" y="1430" type="curve" smooth="yes"/>
      <point x="1063" y="1430"/>
      <point x="1150" y="1363"/>
      <point x="1150" y="1255" type="curve" smooth="yes"/>
      <point x="1150" y="1147"/>
      <point x="1068" y="1080"/>
      <point x="970" y="1080" type="curve" smooth="yes"/>
      <point x="872" y="1080"/>
      <point x="781" y="1147"/>
    </contour>
    <contour>
      <point x="406" y="-190" type="curve"/>
      <point x="384" y="-430" type="line"/>
      <point x="167" y="-430"/>
      <point x="-5" y="-311"/>
      <point x="-62" y="-211" type="curve"/>
      <point x="156" y="-30" type="line"/>
      <point x="189" y="-80"/>
      <point x="298" y="-190"/>
    </contour>
    <contour>
      <point x="1041" y="920" type="line"/>
      <point x="882" y="10" type="line" smooth="yes"/>
      <point x="839" y="-236"/>
      <point x="741" y="-430"/>
      <point x="384" y="-430" type="curve"/>
      <point x="406" y="-190" type="line"/>
      <point x="514" y="-190"/>
      <point x="587" y="-133"/>
      <point x="612" y="10" type="curve" smooth="yes"/>
      <point x="730" y="680" type="line"/>
      <point x="360" y="680" type="line"/>
      <point x="402" y="920" type="line"/>
    </contour>
  </outline>
</glyph>
<glyph name="l" format="2">
  <advance width="1200"/>
  <unicode hex="006C"/>
  <anchor x="440" y="0" name="Anchor-3"/>
  <anchor x="434" y="0" name="Anchor-2"/>
  <anchor x="585" y="920" name="Anchor-1"/>
  <anchor x="643" y="1330" name="Anchor-0"/>
  <outline>
    <contour>
      <point x="579" y="1110" type="line"/>
      <point x="129" y="1090" type="line"/>
      <point x="172" y="1330" type="line"/>
      <point x="821" y="1330" type="line"/>
      <point x="598" y="305" type="line" smooth="yes"/>
      <point x="585.765" y="248.761"/>
      <point x="584.385" y="210"/>
      <point x="617" y="210" type="curve" smooth="yes"/>
      <point x="677" y="210"/>
      <point x="768" y="301"/>
      <point x="897" y="423" type="curve"/>
      <point x="1033" y="242" type="line"/>
      <point x="881" y="102"/>
      <point x="686" y="-25"/>
      <point x="516" y="-25" type="curve" smooth="yes"/>
      <point x="386" y="-25"/>
      <point x="271.81" y="42.6846"/>
      <point x="315" y="240" type="curve" smooth="yes"/>
      <point x="534.58" y="1243.16" type="line"/>
    </contour>
  </outline>
</glyph>
<glyph name="m" format="2">
  <advance width="1200"/>
  <unicode hex="006D"/>
  <anchor x="535" y="0" name="Anchor-2"/>
  <anchor x="718" y="920" name="Anchor-0"/>
  <outline>
    <contour>
      <point x="190" y="680" type="line"/>
      <point x="50" y="680" type="line"/>
      <point x="92" y="920" type="line"/>
      <point x="232" y="920" type="line"/>
    </contour>
    <contour>
      <point x="774" y="600" type="curve" smooth="yes"/>
      <point x="668" y="0" type="line"/>
      <point x="409" y="0" type="line"/>
      <point x="518" y="620" type="line" smooth="yes"/>
      <point x="529" y="683"/>
      <point x="511" y="710"/>
      <point x="473" y="710" type="curve" smooth="yes"/>
      <point x="405" y="710"/>
      <point x="386.809" y="614.262"/>
      <point x="365" y="490" type="curve" smooth="yes"/>
      <point x="279" y="0" type="line"/>
      <point x="20" y="0" type="line"/>
      <point x="182" y="920" type="line"/>
      <point x="341" y="920" type="line"/>
      <point x="341" y="730" type="line"/>
      <point x="246" y="550" type="line"/>
      <point x="274" y="706"/>
      <point x="412" y="940"/>
      <point x="589" y="940" type="curve" smooth="yes"/>
      <point x="736" y="940"/>
      <point x="810" y="806"/>
    </contour>
    <contour>
      <point x="1163" y="600" type="curve" smooth="yes"/>
      <point x="1057" y="0" type="line"/>
      <point x="798" y="0" type="line"/>
      <point x="907" y="620" type="line" smooth="yes"/>
      <point x="918" y="683"/>
      <point x="900" y="710"/>
      <point x="862" y="710" type="curve" smooth="yes"/>
      <point x="804" y="710"/>
      <point x="783" y="653"/>
      <point x="754" y="490" type="curve"/>
      <point x="675" y="550" type="line"/>
      <point x="703" y="706"/>
      <point x="801" y="940"/>
      <point x="978" y="940" type="curve" smooth="yes"/>
      <point x="1145" y="940"/>
      <point x="1199" y="806"/>
    </contour>
  </outline>
</glyph>
<glyph name="n" format="2">
  <advance width="1200"/>
  <unicode hex="006E"/>
  <anchor x="546" y="0" name="Anchor-2"/>
  <anchor x="718" y="920" name="Anchor-0"/>
  <outline>
    <contour>
      <point x="220" y="680" type="line"/>
      <point x="100" y="680" type="line"/>
      <point x="142" y="920" type="line"/>
      <point x="262" y="920" type="line"/>
    </contour>
    <contour>
      <point x="1089" y="570" type="curve" smooth="yes"/>
      <point x="988" y="0" type="line"/>
      <point x="714" y="0" type="line"/>
      <point x="809" y="540" type="line" smooth="yes"/>
      <point x="827" y="643"/>
      <point x="796" y="710"/>
      <point x="698" y="710" type="curve" smooth="yes"/>
      <point x="590" y="710"/>
      <point x="482.063" y="613.693"/>
      <point x="455" y="460" type="curve" smooth="yes"/>
      <point x="374" y="0" type="line"/>
      <point x="100" y="0" type="line"/>
      <point x="262" y="920" type="line"/>
      <point x="466" y="920" type="line"/>
      <point x="473" y="630" type="line"/>
      <point x="381" y="550" type="line"/>
      <point x="409" y="706"/>
      <point x="552" y="940"/>
      <point x="819" y="940" type="curve" smooth="yes"/>
      <point x="1031" y="940"/>
      <point x="1131" y="806"/>
    </contour>
  </outline>
</glyph>
<glyph name="o" format="2">
  <advance width="1200"/>
  <unicode hex="006F"/>
  <anchor x="523" y="0" name="Anchor-2"/>
  <anchor x="656" y="920" name="Anchor-0"/>
  <outline>
    <contour>
      <point x="540" y="-20" type="curve" smooth="yes"/>
      <point x="224" y="-20"/>
      <point x="41" y="164"/>
      <point x="97" y="480" type="curve" smooth="yes"/>
      <point x="151" y="786"/>
      <point x="353" y="940"/>
      <point x="650" y="940" type="curve" smooth="yes"/>
      <point x="947" y="940"/>
      <point x="1159" y="746"/>
      <point x="1105" y="440" type="curve" smooth="yes"/>
      <point x="1049" y="124"/>
      <point x="856" y="-20"/>
    </contour>
    <contour>
      <point x="640" y="715" type="curve" smooth="yes"/>
      <point x="512" y="715"/>
      <point x="402" y="633"/>
      <point x="371" y="460" type="curve" smooth="yes"/>
      <point x="340" y="287"/>
      <point x="422" y="205"/>
      <point x="570" y="205" type="curve" smooth="yes"/>
      <point x="718" y="205"/>
      <point x="800" y="287"/>
      <point x="831" y="460" type="curve" smooth="yes"/>
      <point x="862" y="633"/>
      <point x="768" y="715"/>
    </contour>
  </outline>
</glyph>
<glyph name="p" format="2">
  <advance width="1200"/>
  <unicode hex="0070"/>
  <anchor x="696" y="0" name="Anchor-2"/>
  <anchor x="788" y="920" name="Anchor-0"/>
  <outline>
    <contour>
      <point x="582" y="215" type="curve" smooth="yes"/>
      <point x="700" y="215"/>
      <point x="801" y="297"/>
      <point x="830" y="460" type="curve" smooth="yes"/>
      <point x="857" y="613"/>
      <point x="775" y="700"/>
      <point x="667" y="700" type="curve" smooth="yes"/>
      <point x="569" y="700"/>
      <point x="457" y="633"/>
      <point x="426" y="460" type="curve" smooth="yes"/>
      <point x="394" y="277"/>
      <point x="474" y="215"/>
    </contour>
    <contour>
      <point x="760" y="940" type="curve" smooth="yes"/>
      <point x="986" y="940"/>
      <point x="1157.67" y="757.494"/>
      <point x="1110" y="430" type="curve" smooth="yes"/>
      <point x="1064" y="114"/>
      <point x="837" y="-20"/>
      <point x="640" y="-20" type="curve" smooth="yes"/>
      <point x="383" y="-20"/>
      <point x="304" y="194"/>
      <point x="360" y="510" type="curve" smooth="yes"/>
      <point x="410" y="796"/>
      <point x="554" y="940"/>
    </contour>
    <contour>
      <point x="403" y="920" type="line"/>
      <point x="461" y="682" type="line"/>
      <point x="283" y="-330" type="line"/>
      <point x="24" y="-330" type="line"/>
      <point x="202" y="680" type="line"/>
      <point x="82" y="680" type="line"/>
      <point x="124" y="920" type="line"/>
    </contour>
  </outline>
</glyph>
<glyph name="q" format="2">
  <advance width="1200"/>
  <unicode hex="0071"/>
  <anchor x="376" y="0" name="Anchor-2"/>
  <anchor x="618" y="920" name="Anchor-0"/>
  <outline>
    <contour>
      <point x="661" y="705" type="curve" smooth="yes"/>
      <point x="523" y="705"/>
      <point x="419" y="603"/>
      <point x="392" y="450" type="curve" smooth="yes"/>
      <point x="366.772" y="307.04"/>
      <point x="441" y="220"/>
      <point x="569" y="220" type="curve" smooth="yes"/>
      <point x="707" y="220"/>
      <point x="800" y="277"/>
      <point x="834" y="470" type="curve" smooth="yes"/>
      <point x="859" y="613"/>
      <point x="789" y="705"/>
    </contour>
    <contour>
      <point x="454" y="-20" type="curve" smooth="yes"/>
      <point x="228" y="-20"/>
      <point x="61.4043" y="142.087"/>
      <point x="101" y="440" type="curve" smooth="yes"/>
      <point x="143" y="756"/>
      <point x="387" y="940"/>
      <point x="594" y="940" type="curve" smooth="yes"/>
      <point x="851" y="940"/>
      <point x="974" y="686"/>
      <point x="927" y="420" type="curve" smooth="yes"/>
      <point x="871.16" y="103.972"/>
      <point x="680" y="-20"/>
    </contour>
    <contour>
      <point x="1173" y="920" type="line"/>
      <point x="953" y="-330" type="line"/>
      <point x="694" y="-330" type="line"/>
      <point x="884" y="750" type="line"/>
      <point x="995" y="920" type="line"/>
    </contour>
  </outline>
</glyph>
<glyph name="r" format="2">
  <advance width="1200"/>
  <unicode hex="0072"/>
  <anchor x="628" y="920" name="Anchor-0"/>
  <anchor x="296" y="0" name="Anchor-2"/>
  <outline>
    <contour>
      <point x="802" y="710" type="curve"/>
      <point x="884" y="940" type="line"/>
      <point x="1074" y="940"/>
      <point x="1153" y="834"/>
      <point x="1127" y="687" type="curve" smooth="yes"/>
      <point x="1113" y="609"/>
      <point x="1093" y="540"/>
      <point x="1088" y="520" type="curve"/>
      <point x="845" y="560" type="line"/>
      <point x="851" y="581"/>
      <point x="859.443" y="610.929"/>
      <point x="864" y="641" type="curve" smooth="yes"/>
      <point x="869" y="674"/>
      <point x="863" y="710"/>
    </contour>
    <contour>
      <point x="802" y="710" type="line"/>
      <point x="724" y="710"/>
      <point x="535.059" y="606.11"/>
      <point x="508" y="450" type="curve" smooth="yes"/>
      <point x="430" y="0" type="line"/>
      <point x="161" y="0" type="line"/>
      <point x="281" y="690" type="line"/>
      <point x="91" y="690" type="line"/>
      <point x="132" y="920" type="line"/>
      <point x="491" y="920" type="line"/>
      <point x="491" y="670" type="line"/>
      <point x="384" y="520" type="line"/>
      <point x="417" y="706"/>
      <point x="627" y="940"/>
      <point x="884" y="940" type="curve"/>
    </contour>
  </outline>
</glyph>
<glyph name="s" format="2">
  <advance width="1200"/>
  <unicode hex="0073"/>
  <anchor x="516" y="0" name="Anchor-3"/>
  <anchor x="546" y="0" name="Anchor-2"/>
  <anchor x="646" y="920" name="Anchor-0"/>
  <outline>
    <contour>
      <point x="1103" y="819" type="curve"/>
      <point x="1001" y="590" type="line"/>
      <point x="821" y="673"/>
      <point x="646" y="740"/>
      <point x="548" y="740" type="curve" smooth="yes"/>
      <point x="507" y="740"/>
      <point x="477" y="723"/>
      <point x="477" y="689" type="curve" smooth="yes"/>
      <point x="477" y="625"/>
      <point x="606.681" y="614.435"/>
      <point x="744" y="569" type="curve" smooth="yes"/>
      <point x="976.031" y="492.229"/>
      <point x="1059" y="434"/>
      <point x="1059" y="276" type="curve" smooth="yes"/>
      <point x="1059" y="66"/>
      <point x="882" y="-29"/>
      <point x="620" y="-29" type="curve" smooth="yes"/>
      <point x="403" y="-29"/>
      <point x="190" y="67"/>
      <point x="60" y="121" type="curve"/>
      <point x="170" y="377" type="line"/>
      <point x="350" y="260"/>
      <point x="563" y="206"/>
      <point x="675" y="206" type="curve" smooth="yes"/>
      <point x="737" y="206"/>
      <point x="777" y="216"/>
      <point x="777" y="256" type="curve" smooth="yes"/>
      <point x="777" y="312"/>
      <point x="686.217" y="324.55"/>
      <point x="512" y="381" type="curve" smooth="yes"/>
      <point x="333" y="439"/>
      <point x="189" y="484"/>
      <point x="189" y="660" type="curve" smooth="yes"/>
      <point x="189" y="836"/>
      <point x="347" y="940"/>
      <point x="583" y="940" type="curve" smooth="yes"/>
      <point x="779" y="940"/>
      <point x="1001" y="869"/>
    </contour>
  </outline>
</glyph>
<glyph name="t" format="2">
  <advance width="1200"/>
  <unicode hex="0074"/>
  <anchor x="476" y="-6" name="Anchor-3"/>
  <anchor x="626" y="0" name="Anchor-2"/>
  <anchor x="824" y="1020" name="Anchor-1"/>
  <anchor x="595" y="1130" name="Anchor-0"/>
  <outline>
    <contour>
      <point x="466" y="920" type="line"/>
      <point x="1101" y="920" type="line"/>
      <point x="1055" y="670" type="line"/>
      <point x="447" y="744" type="line"/>
    </contour>
    <contour>
      <point x="117" y="679" type="line"/>
      <point x="162" y="920" type="line"/>
      <point x="495" y="920" type="line"/>
      <point x="475" y="679" type="line"/>
    </contour>
    <contour>
      <point x="584" y="240" type="line"/>
      <point x="662" y="240"/>
      <point x="807" y="320"/>
      <point x="896" y="390" type="curve"/>
      <point x="1043" y="208" type="line"/>
      <point x="906" y="98"/>
      <point x="734" y="-10"/>
      <point x="537" y="-10" type="curve"/>
    </contour>
    <contour>
      <point x="745" y="1170" type="line"/>
      <point x="564" y="430" type="line" smooth="yes"/>
      <point x="527.89" y="282.37"/>
      <point x="516" y="240"/>
      <point x="584" y="240" type="curve"/>
      <point x="537" y="-10" type="line"/>
      <point x="280" y="-10"/>
      <point x="230.708" y="155.564"/>
      <point x="289" y="390" type="curve" smooth="yes"/>
      <point x="473" y="1130" type="line"/>
    </contour>
  </outline>
</glyph>
<glyph name="u" format="2">
  <advance width="1200"/>
  <unicode hex="0075"/>
  <anchor x="826" y="10" name="Anchor-3"/>
  <anchor x="466" y="0" name="Anchor-2"/>
  <anchor x="648" y="920" name="Anchor-0"/>
  <outline>
    <contour>
      <point x="1065" y="920" type="line"/>
      <point x="928" y="295" type="line" smooth="yes"/>
      <point x="917.063" y="247.071"/>
      <point x="894.385" y="180"/>
      <point x="927" y="180" type="curve" smooth="yes"/>
      <point x="957" y="180"/>
      <point x="1000" y="215"/>
      <point x="1059" y="280" type="curve"/>
      <point x="1177" y="143" type="line"/>
      <point x="1075" y="43"/>
      <point x="978" y="-35"/>
      <point x="838" y="-35" type="curve" smooth="yes"/>
      <point x="701" y="-35"/>
      <point x="613.46" y="42.373"/>
      <point x="647" y="190" type="curve" smooth="yes"/>
      <point x="806" y="920" type="line"/>
    </contour>
    <contour>
      <point x="216" y="920" type="line"/>
      <point x="475" y="920" type="line"/>
      <point x="345" y="358" type="line" smooth="yes"/>
      <point x="323.46" y="264.879"/>
      <point x="340" y="215"/>
      <point x="413" y="215" type="curve" smooth="yes"/>
      <point x="531" y="215"/>
      <point x="662" y="327"/>
      <point x="728" y="550" type="curve"/>
      <point x="760" y="410" type="line"/>
      <point x="640" y="124"/>
      <point x="476" y="-20"/>
      <point x="319" y="-20" type="curve" smooth="yes"/>
      <point x="123" y="-20"/>
      <point x="31.1514" y="120.883"/>
      <point x="86" y="358" type="curve" smooth="yes"/>
    </contour>
  </outline>
</glyph>
<glyph name="v" format="2">
  <advance width="1200"/>
  <unicode hex="0076"/>
  <anchor x="517" y="0" name="Anchor-2"/>
  <anchor x="678" y="920" name="Anchor-0"/>
  <outline>
    <contour>
      <point x="60" y="680" type="line"/>
      <point x="102" y="920" type="line"/>
      <point x="438" y="920" type="line"/>
      <point x="420" y="680" type="line"/>
    </contour>
    <contour>
      <point x="185" y="320" type="curve" smooth="yes"/>
      <point x="291" y="920" type="line"/>
      <point x="540" y="920" type="line"/>
      <point x="425" y="300" type="line" smooth="yes"/>
      <point x="408.52" y="211.15"/>
      <point x="446.085" y="210"/>
      <point x="483" y="210" type="curve" smooth="yes"/>
      <point x="687" y="210"/>
      <point x="852.758" y="400.613"/>
      <point x="869" y="627" type="curve" smooth="yes"/>
      <point x="876.578" y="732.625"/>
      <point x="849" y="802"/>
      <point x="816" y="877" type="curve"/>
      <point x="1050" y="967" type="line"/>
      <point x="1097" y="886"/>
      <point x="1129.54" y="807.795"/>
      <point x="1124" y="667" type="curve" smooth="yes"/>
      <point x="1111.08" y="338.549"/>
      <point x="855" y="-20"/>
      <point x="460" y="-20" type="curve" smooth="yes"/>
      <point x="296" y="-20"/>
      <point x="172" y="38"/>
      <point x="172" y="196" type="curve" smooth="yes"/>
      <point x="172" y="222"/>
      <point x="180" y="290"/>
    </contour>
  </outline>
</glyph>
<glyph name="w" format="2">
  <advance width="1200"/>
  <unicode hex="0077"/>
  <anchor x="477" y="0" name="Anchor-2"/>
  <anchor x="658" y="920" name="Anchor-0"/>
  <outline>
    <contour>
      <point x="36" y="320" type="curve" smooth="yes"/>
      <point x="162" y="920" type="line"/>
      <point x="401" y="920" type="line"/>
      <point x="274" y="310" type="line" smooth="yes"/>
      <point x="270" y="285"/>
      <point x="267" y="263"/>
      <point x="267" y="244" type="curve" smooth="yes"/>
      <point x="267" y="215"/>
      <point x="278" y="210"/>
      <point x="302" y="210" type="curve" smooth="yes"/>
      <point x="330" y="210"/>
      <point x="451" y="267"/>
      <point x="489" y="480" type="curve"/>
      <point x="594" y="370" type="line"/>
      <point x="566" y="214"/>
      <point x="428" y="-20"/>
      <point x="231" y="-20" type="curve" smooth="yes"/>
      <point x="103" y="-20"/>
      <point x="23" y="59"/>
      <point x="23" y="189" type="curve" smooth="yes"/>
      <point x="23" y="228"/>
      <point x="28" y="272"/>
    </contour>
    <contour>
      <point x="455" y="320" type="curve" smooth="yes"/>
      <point x="581" y="920" type="line"/>
      <point x="810" y="920" type="line"/>
      <point x="685" y="310" type="line" smooth="yes"/>
      <point x="681" y="290"/>
      <point x="680" y="271"/>
      <point x="680" y="254" type="curve" smooth="yes"/>
      <point x="680" y="226"/>
      <point x="698" y="210"/>
      <point x="733" y="210" type="curve" smooth="yes"/>
      <point x="867" y="210"/>
      <point x="922.758" y="370.613"/>
      <point x="939" y="547" type="curve" smooth="yes"/>
      <point x="948.71" y="652.45"/>
      <point x="929" y="792"/>
      <point x="896" y="887" type="curve"/>
      <point x="1110" y="967" type="line"/>
      <point x="1151" y="857"/>
      <point x="1176.03" y="697.728"/>
      <point x="1169" y="557" type="curve" smooth="yes"/>
      <point x="1156.08" y="298.549"/>
      <point x="1045" y="-20"/>
      <point x="700" y="-20" type="curve" smooth="yes"/>
      <point x="566" y="-20"/>
      <point x="447" y="78"/>
      <point x="447" y="236" type="curve" smooth="yes"/>
      <point x="447" y="262"/>
      <point x="448.7494373397759" y="290.23541590362504"/>
    </contour>
  </outline>
</glyph>
<glyph name="x" format="2">
  <advance width="1200"/>
  <unicode hex="0078"/>
  <anchor x="688" y="920" name="Anchor-0"/>
  <anchor x="527" y="0" name="Anchor-2"/>
  <outline>
    <contour>
      <point x="48" y="-20" type="curve"/>
      <point x="18" y="223" type="line"/>
      <point x="225.764" y="253.57"/>
      <point x="384.835" y="359.223"/>
      <point x="548" y="543" type="curve"/>
      <point x="598" y="360" type="line"/>
      <point x="448.985" y="147.518"/>
      <point x="308" y="-20"/>
    </contour>
    <contour>
      <point x="1129" y="939" type="curve"/>
      <point x="1139" y="706" type="line"/>
      <point x="991.236" y="675.43"/>
      <point x="832.165" y="559.777"/>
      <point x="669" y="376" type="curve"/>
      <point x="619" y="559" type="line"/>
      <point x="768.015" y="771.482"/>
      <point x="909" y="939"/>
    </contour>
    <contour>
      <point x="729" y="430" type="line" smooth="yes"/>
      <point x="730.198" y="275.401"/>
      <point x="756" y="220"/>
      <point x="804" y="220" type="curve" smooth="yes"/>
      <point x="852" y="220"/>
      <point x="909" y="270"/>
      <point x="958" y="370" type="curve"/>
      <point x="1133" y="231" type="line"/>
      <point x="1046" y="61"/>
      <point x="924" y="-30"/>
      <point x="787" y="-30" type="curve" smooth="yes"/>
      <point x="550" y="-30"/>
      <point x="494" y="153.874"/>
      <point x="494" y="390" type="curve" smooth="yes"/>
      <point x="494" y="437" type="line"/>
      <point x="474" y="445" type="line"/>
      <point x="474" y="499" type="line" smooth="yes"/>
      <point x="474" y="664.471"/>
      <point x="457" y="689"/>
      <point x="419" y="689" type="curve" smooth="yes"/>
      <point x="371" y="689"/>
      <point x="314" y="629"/>
      <point x="255" y="559" type="curve"/>
      <point x="120" y="728" type="line"/>
      <point x="227" y="858"/>
      <point x="339" y="939"/>
      <point x="456" y="939" type="curve" smooth="yes"/>
      <point x="643" y="939"/>
      <point x="716.166" y="775.542"/>
      <point x="698" y="539" type="curve"/>
      <point x="698.264" y="505" type="line"/>
      <point x="728.496" y="495" type="line"/>
    </contour>
  </outline>
</glyph>
<glyph name="y" format="2">
  <advance width="1200"/>
  <unicode hex="0079"/>
  <anchor x="105" y="-400" name="Anchor-2"/>
  <anchor x="628" y="920" name="Anchor-0"/>
  <outline>
    <contour>
      <point x="413" y="-20" type="line"/>
      <point x="38" y="-20"/>
      <point x="54.917" y="368.549"/>
      <point x="134" y="617" type="curve" smooth="yes"/>
      <point x="176.737" y="751.266"/>
      <point x="261" y="916"/>
      <point x="308" y="967" type="curve"/>
      <point x="542" y="867" type="line"/>
      <point x="489" y="792"/>
      <point x="425.777" y="675.894"/>
      <point x="402" y="592" type="curve" smooth="yes"/>
      <point x="348.282" y="402.469"/>
      <point x="297" y="210"/>
      <point x="491" y="210" type="curve"/>
    </contour>
    <contour>
      <point x="345" y="-190" type="curve"/>
      <point x="346" y="-430" type="line"/>
      <point x="109" y="-430"/>
      <point x="-13" y="-291"/>
      <point x="-60" y="-171" type="curve"/>
      <point x="130" y="-42" type="line"/>
      <point x="173" y="-132"/>
      <point x="247" y="-190"/>
    </contour>
    <contour>
      <point x="491" y="210" type="line"/>
      <point x="599.061" y="210"/>
      <point x="747.722" y="261.585"/>
      <point x="781.664" y="484.444" type="curve" smooth="yes"/>
      <point x="848" y="920" type="line"/>
      <point x="1109" y="920" type="line"/>
      <point x="988" y="173" type="line" smooth="yes"/>
      <point x="921.164" y="-239.614"/>
      <point x="623" y="-430"/>
      <point x="346" y="-430" type="curve"/>
      <point x="345" y="-190" type="line"/>
      <point x="533" y="-190"/>
      <point x="707.264" y="-68.0859"/>
      <point x="739" y="173" type="curve" smooth="yes"/>
      <point x="764.88" y="369.601" type="line"/>
      <point x="871" y="390" type="line"/>
      <point x="843" y="184"/>
      <point x="620" y="-20"/>
      <point x="413" y="-20" type="curve"/>
    </contour>
  </outline>
</glyph>
<glyph name="z" format="2">
  <advance width="1200"/>
  <unicode hex="007A"/>
  <anchor x="678" y="920" name="Anchor-0"/>
  <anchor x="517" y="0" name="Anchor-2"/>
  <outline>
    <contour>
      <point x="138" y="570" type="line"/>
      <point x="168" y="808"/>
      <point x="227" y="948"/>
      <point x="419" y="948" type="curve" smooth="yes"/>
      <point x="575" y="948"/>
      <point x="654" y="834"/>
      <point x="801" y="834" type="curve" smooth="yes"/>
      <point x="899" y="834"/>
      <point x="972" y="879"/>
      <point x="1022" y="992" type="curve"/>
      <point x="1199" y="837" type="line"/>
      <point x="357" y="120" type="line"/>
      <point x="377" y="160" type="line"/>
      <point x="447" y="210"/>
      <point x="513" y="261"/>
      <point x="629" y="261" type="curve" smooth="yes"/>
      <point x="679" y="261"/>
      <point x="745" y="222"/>
      <point x="786" y="222" type="curve" smooth="yes"/>
      <point x="854" y="222"/>
      <point x="847" y="297"/>
      <point x="867" y="410" type="curve"/>
      <point x="1117" y="410" type="line"/>
      <point x="1057" y="72"/>
      <point x="928" y="-28"/>
      <point x="746" y="-28" type="curve" smooth="yes"/>
      <point x="590" y="-28"/>
      <point x="491" y="86"/>
      <point x="364" y="86" type="curve" smooth="yes"/>
      <point x="266" y="86"/>
      <point x="203" y="41"/>
      <point x="143" y="-72" type="curve"/>
      <point x="-34" y="83" type="line"/>
      <point x="828" y="800" type="line"/>
      <point x="781" y="754" type="line"/>
      <point x="711" y="694"/>
      <point x="629" y="669"/>
      <point x="573" y="669" type="curve" smooth="yes"/>
      <point x="534" y="669"/>
      <point x="470" y="696"/>
      <point x="439" y="696" type="curve" smooth="yes"/>
      <point x="391" y="696"/>
      <point x="388" y="653"/>
      <point x="388" y="570" type="curve"/>
    </contour>
  </outline>
</glyph>
<glyph name="braceleft" format="2">
  <advance width="1200"/>
  <unicode hex="007B"/>
  <outline>
    <contour>
      <point x="688" y="1010" type="curve" smooth="yes"/>
      <point x="694" y="874" type="line" smooth="yes"/>
      <point x="700" y="740"/>
      <point x="598" y="714"/>
      <point x="421" y="664" type="curve"/>
      <point x="425" y="684" type="line"/>
      <point x="574" y="634"/>
      <point x="686" y="552"/>
      <point x="608" y="384" type="curve" smooth="yes"/>
      <point x="559" y="279" type="line" smooth="yes"/>
      <point x="536" y="230"/>
      <point x="558" y="179"/>
      <point x="668" y="179" type="curve" smooth="yes"/>
      <point x="918" y="179" type="line"/>
      <point x="877" y="-51" type="line"/>
      <point x="537" y="-51" type="line" smooth="yes"/>
      <point x="359" y="-51"/>
      <point x="208" y="-15"/>
      <point x="272" y="179" type="curve" smooth="yes"/>
      <point x="336" y="374" type="line" smooth="yes"/>
      <point x="385" y="523"/>
      <point x="281" y="550"/>
      <point x="221" y="550" type="curve" smooth="yes"/>
      <point x="151" y="550" type="line"/>
      <point x="195" y="800" type="line"/>
      <point x="265" y="800" type="line" smooth="yes"/>
      <point x="325" y="800"/>
      <point x="448" y="828"/>
      <point x="442" y="974" type="curve" smooth="yes"/>
      <point x="436" y="1110" type="line" smooth="yes"/>
      <point x="428" y="1301"/>
      <point x="606" y="1350"/>
      <point x="784" y="1350" type="curve" smooth="yes"/>
      <point x="1124" y="1350" type="line"/>
      <point x="1083" y="1120" type="line"/>
      <point x="833" y="1120" type="line" smooth="yes"/>
      <point x="723" y="1120"/>
      <point x="686" y="1050"/>
    </contour>
  </outline>
</glyph>
<glyph name="bar" format="2">
  <advance width="1200"/>
  <unicode hex="007C"/>
  <outline>
    <contour>
      <point x="615" y="1300" type="line"/>
      <point x="883" y="1300" type="line"/>
      <point x="596" y="-330" type="line"/>
      <point x="328" y="-330" type="line"/>
    </contour>
  </outline>
</glyph>
<glyph name="braceright" format="2">
  <advance width="1200"/>
  <unicode hex="007D"/>
  <outline>
    <contour>
      <point x="579" y="279" type="curve" smooth="yes"/>
      <point x="568" y="384" type="line" smooth="yes"/>
      <point x="550" y="552"/>
      <point x="690" y="634"/>
      <point x="857" y="684" type="curve"/>
      <point x="853" y="664" type="line"/>
      <point x="694" y="714"/>
      <point x="601" y="740"/>
      <point x="654" y="874" type="curve" smooth="yes"/>
      <point x="708" y="1010" type="line" smooth="yes"/>
      <point x="724" y="1050"/>
      <point x="711" y="1120"/>
      <point x="601" y="1120" type="curve" smooth="yes"/>
      <point x="351" y="1120" type="line"/>
      <point x="392" y="1350" type="line"/>
      <point x="732" y="1350" type="line" smooth="yes"/>
      <point x="910" y="1350"/>
      <point x="1072" y="1301"/>
      <point x="996" y="1110" type="curve" smooth="yes"/>
      <point x="942" y="974" type="line" smooth="yes"/>
      <point x="884" y="828"/>
      <point x="997" y="800"/>
      <point x="1057" y="800" type="curve" smooth="yes"/>
      <point x="1127" y="800" type="line"/>
      <point x="1083" y="550" type="line"/>
      <point x="1013" y="550" type="line" smooth="yes"/>
      <point x="953" y="550"/>
      <point x="839" y="523"/>
      <point x="836" y="374" type="curve" smooth="yes"/>
      <point x="832" y="179" type="line" smooth="yes"/>
      <point x="828" y="-15"/>
      <point x="663" y="-51"/>
      <point x="485" y="-51" type="curve" smooth="yes"/>
      <point x="145" y="-51" type="line"/>
      <point x="186" y="179" type="line"/>
      <point x="436" y="179" type="line" smooth="yes"/>
      <point x="546" y="179"/>
      <point x="584" y="230"/>
    </contour>
  </outline>
</glyph>
<glyph name="asciitilde" format="2">
  <advance width="1200"/>
  <unicode hex="007E"/>
  <outline>
    <contour>
      <point x="114" y="489" type="line"/>
      <point x="165" y="777"/>
      <point x="313" y="887"/>
      <point x="455" y="887" type="curve" smooth="yes"/>
      <point x="592" y="887"/>
      <point x="648" y="822"/>
      <point x="698" y="775" type="curve" smooth="yes"/>
      <point x="748" y="726"/>
      <point x="787" y="693"/>
      <point x="823" y="693" type="curve" smooth="yes"/>
      <point x="881" y="693"/>
      <point x="914" y="748"/>
      <point x="934" y="861" type="curve"/>
      <point x="1164" y="861" type="line"/>
      <point x="1113" y="572"/>
      <point x="965" y="463"/>
      <point x="823" y="463" type="curve" smooth="yes"/>
      <point x="686" y="463"/>
      <point x="630" y="528"/>
      <point x="580" y="575" type="curve" smooth="yes"/>
      <point x="530" y="624"/>
      <point x="491" y="657"/>
      <point x="455" y="657" type="curve" smooth="yes"/>
      <point x="397" y="657"/>
      <point x="364" y="602"/>
      <point x="344" y="489" type="curve"/>
    </contour>
  </outline>
</glyph>
<glyph name="cent" format="2">
  <advance width="1200"/>
  <unicode hex="00A2"/>
  <outline>
    <contour>
      <point x="1099" y="797" type="curve"/>
      <point x="974" y="570" type="line"/>
      <point x="932" y="613"/>
      <point x="800" y="700"/>
      <point x="673" y="700" type="curve"/>
      <point x="716" y="940" type="line"/>
      <point x="872" y="940"/>
      <point x="1032" y="870"/>
    </contour>
    <contour>
      <point x="647" y="40" type="line"/>
      <point x="654" y="-260" type="line"/>
      <point x="374" y="-260" type="line"/>
      <point x="487" y="40" type="line"/>
    </contour>
    <contour>
      <point x="635" y="880" type="line"/>
      <point x="628" y="1180" type="line"/>
      <point x="908" y="1180" type="line"/>
      <point x="795" y="880" type="line"/>
    </contour>
    <contour>
      <point x="673" y="700" type="line"/>
      <point x="520" y="700"/>
      <point x="365" y="611"/>
      <point x="356" y="448" type="curve" smooth="yes"/>
      <point x="346.873" y="282.692"/>
      <point x="426" y="225"/>
      <point x="594" y="225" type="curve"/>
      <point x="590" y="-20" type="line"/>
      <point x="219" y="-20"/>
      <point x="51.1702" y="191.532"/>
      <point x="81" y="460" type="curve" smooth="yes"/>
      <point x="115" y="766"/>
      <point x="394" y="940"/>
      <point x="716" y="940" type="curve"/>
    </contour>
    <contour>
      <point x="980" y="103" type="line"/>
      <point x="889" y="40"/>
      <point x="726" y="-20"/>
      <point x="590" y="-20" type="curve"/>
      <point x="594" y="225" type="line"/>
      <point x="711" y="225"/>
      <point x="879" y="297"/>
      <point x="935" y="330" type="curve"/>
    </contour>
  </outline>
</glyph>
<glyph name="sterling" format="2">
  <advance width="1200"/>
  <unicode hex="00A3"/>
  <outline>
    <contour>
      <point x="91" y="690" type="line"/>
      <point x="793" y="690" type="line"/>
      <point x="752" y="460" type="line"/>
      <point x="50" y="460" type="line"/>
    </contour>
    <contour>
      <point x="1199" y="900" type="curve"/>
      <point x="939" y="900" type="line"/>
      <point x="939" y="1013"/>
      <point x="884" y="1076"/>
      <point x="766" y="1076" type="curve" smooth="yes"/>
      <point x="648" y="1076"/>
      <point x="562" y="1022"/>
      <point x="534" y="870" type="curve"/>
      <point x="490" y="620"/>
      <point x="535" y="480"/>
      <point x="371" y="230" type="curve"/>
      <point x="1040" y="230" type="line"/>
      <point x="999" y="0" type="line"/>
      <point x="-20" y="0" type="line"/>
      <point x="21" y="230" type="line"/>
      <point x="111" y="230" type="line"/>
      <point x="275" y="480"/>
      <point x="230" y="620"/>
      <point x="274" y="870" type="curve"/>
      <point x="322" y="1145"/>
      <point x="488" y="1320"/>
      <point x="784" y="1320" type="curve" smooth="yes"/>
      <point x="1070" y="1320"/>
      <point x="1231" y="1136"/>
    </contour>
  </outline>
</glyph>
<glyph name="currency" format="2">
  <advance width="1200"/>
  <unicode hex="00A4"/>
  <outline>
    <contour>
      <point x="871" y="263" type="line"/>
      <point x="1080" y="79" type="line"/>
      <point x="882" y="-89" type="line"/>
      <point x="741" y="152" type="line"/>
    </contour>
    <contour>
      <point x="319" y="657" type="line"/>
      <point x="110" y="841" type="line"/>
      <point x="308" y="1009" type="line"/>
      <point x="449" y="768" type="line"/>
    </contour>
    <contour>
      <point x="850" y="769" type="line"/>
      <point x="1076" y="1009" type="line"/>
      <point x="1214" y="842" type="line"/>
      <point x="941" y="658" type="line"/>
    </contour>
    <contour>
      <point x="341" y="152" type="line"/>
      <point x="114" y="-89" type="line"/>
      <point x="-23" y="79" type="line"/>
      <point x="249" y="263" type="line"/>
    </contour>
    <contour>
      <point x="538" y="20" type="curve" smooth="yes"/>
      <point x="252" y="20"/>
      <point x="77" y="194"/>
      <point x="127" y="480" type="curve" smooth="yes"/>
      <point x="176" y="756"/>
      <point x="386" y="900"/>
      <point x="653" y="900" type="curve" smooth="yes"/>
      <point x="920" y="900"/>
      <point x="1124" y="716"/>
      <point x="1075" y="440" type="curve" smooth="yes"/>
      <point x="1025" y="154"/>
      <point x="834" y="20"/>
    </contour>
    <contour>
      <point x="631" y="665" type="curve" smooth="yes"/>
      <point x="503" y="665"/>
      <point x="424" y="593"/>
      <point x="401" y="460" type="curve" smooth="yes"/>
      <point x="376" y="317"/>
      <point x="421" y="255"/>
      <point x="559" y="255" type="curve" smooth="yes"/>
      <point x="697" y="255"/>
      <point x="776" y="317"/>
      <point x="801" y="460" type="curve" smooth="yes"/>
      <point x="824" y="593"/>
      <point x="759" y="665"/>
    </contour>
  </outline>
</glyph>
<glyph name="yen" format="2">
  <advance width="1200"/>
  <unicode hex="00A5"/>
  <outline>
    <contour>
      <point x="179" y="1300" type="line"/>
      <point x="687" y="1300" type="line"/>
      <point x="647" y="1070" type="line"/>
      <point x="139" y="1070" type="line"/>
    </contour>
    <contour>
      <point x="829" y="1300" type="line"/>
      <point x="1319" y="1300" type="line"/>
      <point x="1279" y="1070" type="line"/>
      <point x="789" y="1070" type="line"/>
    </contour>
    <contour>
      <point x="380" y="0" type="line"/>
      <point x="465" y="480" type="line"/>
      <point x="245" y="1150" type="line"/>
      <point x="497" y="1150" type="line"/>
      <point x="637" y="610" type="line"/>
      <point x="588" y="610" type="line"/>
      <point x="931" y="1150" type="line"/>
      <point x="1203" y="1150" type="line"/>
      <point x="734" y="480" type="line"/>
      <point x="649" y="0" type="line"/>
    </contour>
    <contour>
      <point x="509" y="450" type="line"/>
      <point x="208" y="440" type="line"/>
      <point x="248" y="670" type="line"/>
      <point x="541" y="630" type="line"/>
    </contour>
    <contour>
      <point x="458" y="160" type="line"/>
      <point x="151" y="120" type="line"/>
      <point x="192" y="350" type="line"/>
      <point x="490" y="340" type="line"/>
    </contour>
    <contour>
      <point x="659" y="340" type="line"/>
      <point x="961" y="350" type="line"/>
      <point x="920" y="120" type="line"/>
      <point x="627" y="160" type="line"/>
    </contour>
    <contour>
      <point x="710" y="630" type="line"/>
      <point x="1017" y="670" type="line"/>
      <point x="977" y="440" type="line"/>
      <point x="678" y="450" type="line"/>
    </contour>
  </outline>
</glyph>
<glyph name="brokenbar" format="2">
  <advance width="1200"/>
  <unicode hex="00A6"/>
  <outline>
    <contour>
      <point x="448" y="350" type="line"/>
      <point x="716" y="350" type="line"/>
      <point x="596" y="-330" type="line"/>
      <point x="328" y="-330" type="line"/>
    </contour>
    <contour>
      <point x="615" y="1300" type="line"/>
      <point x="883" y="1300" type="line"/>
      <point x="763" y="620" type="line"/>
      <point x="495" y="620" type="line"/>
    </contour>
  </outline>
</glyph>
<glyph name="section" format="2">
  <advance width="1200"/>
  <unicode hex="00A7"/>
  <outline>
    <contour>
      <point x="1163" y="1159" type="curve"/>
      <point x="1016" y="950" type="line"/>
      <point x="949" y="1023"/>
      <point x="810" y="1064"/>
      <point x="682" y="1064" type="curve" smooth="yes"/>
      <point x="581" y="1064"/>
      <point x="507" y="1042"/>
      <point x="497" y="988" type="curve" smooth="yes"/>
      <point x="486" y="924"/>
      <point x="571" y="900"/>
      <point x="701" y="859" type="curve" smooth="yes"/>
      <point x="924" y="788"/>
      <point x="1116" y="654"/>
      <point x="1081" y="456" type="curve" smooth="yes"/>
      <point x="1044" y="246"/>
      <point x="787" y="221"/>
      <point x="565" y="221" type="curve"/>
      <point x="581" y="311" type="line"/>
      <point x="733" y="311"/>
      <point x="808" y="427"/>
      <point x="813" y="456" type="curve" smooth="yes"/>
      <point x="825" y="522"/>
      <point x="765" y="564"/>
      <point x="596" y="611" type="curve" smooth="yes"/>
      <point x="425" y="659"/>
      <point x="209.264" y="751.322"/>
      <point x="226" y="970" type="curve" smooth="yes"/>
      <point x="241" y="1166"/>
      <point x="444" y="1310"/>
      <point x="720" y="1310" type="curve" smooth="yes"/>
      <point x="916" y="1310"/>
      <point x="1103" y="1229"/>
    </contour>
    <contour>
      <point x="602" y="614" type="line"/>
      <point x="471" y="614"/>
      <point x="410" y="552"/>
      <point x="399" y="488" type="curve" smooth="yes"/>
      <point x="384" y="404"/>
      <point x="472" y="349"/>
      <point x="606" y="319" type="curve" smooth="yes"/>
      <point x="833" y="268"/>
      <point x="1023" y="154"/>
      <point x="995" y="-64" type="curve" smooth="yes"/>
      <point x="958.788" y="-345.939"/>
      <point x="698" y="-399"/>
      <point x="476" y="-399" type="curve" smooth="yes"/>
      <point x="259" y="-399"/>
      <point x="19" y="-323"/>
      <point x="-63" y="-219" type="curve"/>
      <point x="70" y="-8" type="line"/>
      <point x="146" y="-85"/>
      <point x="336" y="-159"/>
      <point x="498" y="-159" type="curve" smooth="yes"/>
      <point x="650" y="-159"/>
      <point x="712" y="-123"/>
      <point x="722" y="-64" type="curve" smooth="yes"/>
      <point x="732" y="-8"/>
      <point x="650" y="24"/>
      <point x="481" y="71" type="curve" smooth="yes"/>
      <point x="310" y="119"/>
      <point x="76" y="204"/>
      <point x="119" y="450" type="curve" smooth="yes"/>
      <point x="154" y="646"/>
      <point x="359" y="715"/>
      <point x="635" y="715" type="curve"/>
    </contour>
  </outline>
</glyph>
<glyph name="dieresis" format="2">
  <advance width="1200"/>
  <unicode hex="00A8"/>
  <outline>
    <contour>
      <point x="788" y="1190" type="curve" smooth="yes"/>
      <point x="788" y="1281"/>
      <point x="859" y="1352"/>
      <point x="950" y="1352" type="curve" smooth="yes"/>
      <point x="1041" y="1352"/>
      <point x="1112" y="1281"/>
      <point x="1112" y="1190" type="curve" smooth="yes"/>
      <point x="1112" y="1099"/>
      <point x="1045" y="1028"/>
      <point x="954" y="1028" type="curve" smooth="yes"/>
      <point x="863" y="1028"/>
      <point x="788" y="1099"/>
    </contour>
    <contour>
      <point x="348" y="1190" type="curve" smooth="yes"/>
      <point x="348" y="1281"/>
      <point x="419" y="1352"/>
      <point x="510" y="1352" type="curve" smooth="yes"/>
      <point x="601" y="1352"/>
      <point x="672" y="1281"/>
      <point x="672" y="1190" type="curve" smooth="yes"/>
      <point x="672" y="1099"/>
      <point x="605" y="1028"/>
      <point x="514" y="1028" type="curve" smooth="yes"/>
      <point x="423" y="1028"/>
      <point x="348" y="1099"/>
    </contour>
  </outline>
</glyph>
<glyph name="copyright" format="2">
  <advance width="1200"/>
  <unicode hex="00A9"/>
  <outline>
    <contour>
      <point x="875" y="576" type="curve"/>
      <point x="727" y="504" type="line"/>
      <point x="709" y="541"/>
      <point x="683" y="578"/>
      <point x="634" y="578" type="curve"/>
      <point x="651" y="746" type="line"/>
      <point x="770" y="746"/>
      <point x="871" y="644"/>
    </contour>
    <contour>
      <point x="634" y="578" type="line"/>
      <point x="579" y="578"/>
      <point x="526" y="538"/>
      <point x="514" y="472" type="curve" smooth="yes"/>
      <point x="501" y="396"/>
      <point x="544" y="356"/>
      <point x="597" y="356" type="curve"/>
      <point x="579" y="184" type="line"/>
      <point x="387" y="184"/>
      <point x="304.231" y="311.771"/>
      <point x="322" y="459" type="curve" smooth="yes"/>
      <point x="343" y="633"/>
      <point x="463" y="746"/>
      <point x="651" y="746" type="curve"/>
    </contour>
    <contour>
      <point x="844" y="330" type="line"/>
      <point x="787" y="269"/>
      <point x="704" y="184"/>
      <point x="579" y="184" type="curve"/>
      <point x="597" y="356" type="line"/>
      <point x="662" y="356"/>
      <point x="697" y="392"/>
      <point x="729" y="432" type="curve"/>
    </contour>
    <contour>
      <point x="540" y="-20" type="curve" smooth="yes"/>
      <point x="264" y="-20"/>
      <point x="41" y="154"/>
      <point x="97" y="470" type="curve" smooth="yes"/>
      <point x="151" y="776"/>
      <point x="393" y="940"/>
      <point x="650" y="940" type="curve" smooth="yes"/>
      <point x="907" y="940"/>
      <point x="1159" y="756"/>
      <point x="1105" y="450" type="curve" smooth="yes"/>
      <point x="1049" y="134"/>
      <point x="816" y="-20"/>
    </contour>
    <contour>
      <point x="652" y="785" type="curve" smooth="yes"/>
      <point x="464" y="785"/>
      <point x="300" y="683"/>
      <point x="261" y="460" type="curve" smooth="yes"/>
      <point x="220" y="227"/>
      <point x="330" y="135"/>
      <point x="538" y="135" type="curve" smooth="yes"/>
      <point x="736" y="135"/>
      <point x="900" y="227"/>
      <point x="941" y="460" type="curve" smooth="yes"/>
      <point x="980" y="683"/>
      <point x="830" y="785"/>
    </contour>
  </outline>
</glyph>
<glyph name="ordfeminine" format="2">
  <advance width="1200"/>
  <unicode hex="00AA"/>
  <outline>
    <contour>
      <point x="1048" y="1104" type="curve" smooth="yes"/>
      <point x="969" y="656" type="line"/>
      <point x="719" y="656" type="line"/>
      <point x="796" y="1094" type="line" smooth="yes"/>
      <point x="804" y="1139"/>
      <point x="780" y="1153"/>
      <point x="743" y="1153" type="curve" smooth="yes"/>
      <point x="670" y="1153"/>
      <point x="574" y="1111"/>
      <point x="488" y="1057" type="curve"/>
      <point x="411" y="1242" type="line"/>
      <point x="500" y="1269"/>
      <point x="626" y="1321"/>
      <point x="773" y="1321" type="curve" smooth="yes"/>
      <point x="979" y="1321"/>
      <point x="1073" y="1244"/>
    </contour>
    <contour>
      <point x="534" y="851" type="curve" smooth="yes"/>
      <point x="529" y="823"/>
      <point x="553" y="814"/>
      <point x="575" y="814" type="curve" smooth="yes"/>
      <point x="652" y="814"/>
      <point x="778" y="868"/>
      <point x="859" y="933" type="curve"/>
      <point x="881" y="820" type="line"/>
      <point x="776" y="739"/>
      <point x="619" y="649"/>
      <point x="458" y="649" type="curve" smooth="yes"/>
      <point x="348" y="649"/>
      <point x="251.352" y="705.895"/>
      <point x="279" y="837" type="curve" smooth="yes"/>
      <point x="310" y="984"/>
      <point x="600" y="1033"/>
      <point x="864" y="1090" type="curve"/>
      <point x="871" y="972" type="line"/>
      <point x="627" y="919"/>
      <point x="541" y="892"/>
    </contour>
  </outline>
</glyph>
<glyph name="guillemotleft" format="2">
  <advance width="1200"/>
  <unicode hex="00AB"/>
  <outline>
    <contour>
      <point x="552" y="525" type="line"/>
      <point x="953" y="920" type="line"/>
      <point x="1094" y="810" type="line"/>
      <point x="832" y="525" type="line"/>
      <point x="993" y="240" type="line"/>
      <point x="814" y="130" type="line"/>
    </contour>
    <contour>
      <point x="152" y="525" type="line"/>
      <point x="553" y="920" type="line"/>
      <point x="694" y="810" type="line"/>
      <point x="432" y="525" type="line"/>
      <point x="593" y="240" type="line"/>
      <point x="414" y="130" type="line"/>
    </contour>
  </outline>
</glyph>
<glyph name="logicalnot" format="2">
  <advance width="1200"/>
  <unicode hex="00AC"/>
  <outline>
    <contour>
      <point x="328" y="790" type="line"/>
      <point x="990" y="790" type="line"/>
      <point x="918" y="380" type="line"/>
      <point x="678" y="380" type="line"/>
      <point x="710" y="560" type="line"/>
      <point x="288" y="560" type="line"/>
    </contour>
  </outline>
</glyph>
<glyph name="registered" format="2">
  <advance width="1200"/>
  <unicode hex="00AE"/>
  <outline>
    <contour>
      <point x="704" y="446" type="line"/>
      <point x="824" y="276" type="line"/>
      <point x="663" y="176" type="line"/>
      <point x="575" y="416" type="line"/>
    </contour>
    <contour>
      <point x="347" y="196" type="line"/>
      <point x="438" y="714" type="line"/>
      <point x="643" y="714" type="line" smooth="yes"/>
      <point x="783" y="714"/>
      <point x="857" y="662.449"/>
      <point x="857" y="562" type="curve" smooth="yes"/>
      <point x="857" y="440"/>
      <point x="714" y="396"/>
      <point x="587" y="396" type="curve" smooth="yes"/>
      <point x="543" y="396" type="line"/>
      <point x="508" y="196" type="line"/>
    </contour>
    <contour>
      <point x="561" y="497" type="line"/>
      <point x="615" y="497" type="line" smooth="yes"/>
      <point x="648" y="497"/>
      <point x="676" y="506"/>
      <point x="681" y="537" type="curve" smooth="yes"/>
      <point x="686" y="565"/>
      <point x="665" y="574"/>
      <point x="628" y="574" type="curve" smooth="yes"/>
      <point x="574" y="574" type="line"/>
    </contour>
    <contour>
      <point x="540" y="-20" type="curve" smooth="yes"/>
      <point x="264" y="-20"/>
      <point x="41" y="154"/>
      <point x="97" y="470" type="curve" smooth="yes"/>
      <point x="151" y="776"/>
      <point x="393" y="940"/>
      <point x="650" y="940" type="curve" smooth="yes"/>
      <point x="907" y="940"/>
      <point x="1159" y="756"/>
      <point x="1105" y="450" type="curve" smooth="yes"/>
      <point x="1049" y="134"/>
      <point x="816" y="-20"/>
    </contour>
    <contour>
      <point x="652" y="785" type="curve" smooth="yes"/>
      <point x="464" y="785"/>
      <point x="300" y="683"/>
      <point x="261" y="460" type="curve" smooth="yes"/>
      <point x="220" y="227"/>
      <point x="330" y="135"/>
      <point x="538" y="135" type="curve" smooth="yes"/>
      <point x="736" y="135"/>
      <point x="900" y="227"/>
      <point x="941" y="460" type="curve" smooth="yes"/>
      <point x="980" y="683"/>
      <point x="830" y="785"/>
    </contour>
  </outline>
</glyph>
<glyph name="degree" format="2">
  <advance width="1200"/>
  <unicode hex="00B0"/>
  <outline>
    <contour>
      <point x="676" y="848" type="curve" smooth="yes"/>
      <point x="523" y="848"/>
      <point x="434" y="953"/>
      <point x="459" y="1094" type="curve" smooth="yes"/>
      <point x="483" y="1228"/>
      <point x="599" y="1320"/>
      <point x="739" y="1320" type="curve" smooth="yes"/>
      <point x="869" y="1320"/>
      <point x="977" y="1208"/>
      <point x="953" y="1074" type="curve" smooth="yes"/>
      <point x="928" y="933"/>
      <point x="819" y="848"/>
    </contour>
    <contour>
      <point x="722" y="1166" type="curve" smooth="yes"/>
      <point x="669" y="1166"/>
      <point x="641" y="1138"/>
      <point x="631" y="1084" type="curve" smooth="yes"/>
      <point x="620" y="1023"/>
      <point x="636" y="1002"/>
      <point x="693" y="1002" type="curve" smooth="yes"/>
      <point x="750" y="1002"/>
      <point x="770" y="1023"/>
      <point x="781" y="1084" type="curve" smooth="yes"/>
      <point x="791" y="1138"/>
      <point x="775" y="1166"/>
    </contour>
  </outline>
</glyph>
<glyph name="plusminus" format="2">
  <advance width="1200"/>
  <unicode hex="00B1"/>
  <outline>
    <contour>
      <point x="190" y="230" type="line"/>
      <point x="932" y="230" type="line"/>
      <point x="891" y="0" type="line"/>
      <point x="149" y="0" type="line"/>
    </contour>
    <contour>
      <point x="591" y="1030" type="line"/>
      <point x="813" y="1030" type="line"/>
      <point x="687" y="320" type="line"/>
      <point x="465" y="320" type="line"/>
    </contour>
    <contour>
      <point x="287" y="780" type="line"/>
      <point x="1029" y="780" type="line"/>
      <point x="992" y="570" type="line"/>
      <point x="250" y="570" type="line"/>
    </contour>
  </outline>
</glyph>
<glyph name="mu" format="2">
  <advance width="1200"/>
  <unicode hex="00B5"/>
  <outline>
    <contour>
      <point x="184" y="920" type="line"/>
      <point x="448" y="920" type="line"/>
      <point x="215" y="-400" type="line"/>
      <point x="-49" y="-400" type="line"/>
    </contour>
    <contour>
      <point x="941" y="230" type="line"/>
      <point x="1101" y="230" type="line"/>
      <point x="1060" y="0" type="line"/>
      <point x="900" y="0" type="line"/>
    </contour>
    <contour>
      <point x="254" y="350" type="curve" smooth="yes"/>
      <point x="354" y="920" type="line"/>
      <point x="448" y="920" type="line"/>
      <point x="349" y="360" type="line" smooth="yes"/>
      <point x="329" y="247"/>
      <point x="391" y="210"/>
      <point x="489" y="210" type="curve" smooth="yes"/>
      <point x="607" y="210"/>
      <point x="736" y="287"/>
      <point x="774" y="500" type="curve" smooth="yes"/>
      <point x="848" y="920" type="line"/>
      <point x="1112" y="920" type="line"/>
      <point x="950" y="0" type="line"/>
      <point x="776" y="0" type="line"/>
      <point x="770" y="190" type="line"/>
      <point x="881" y="370" type="line"/>
      <point x="853" y="214"/>
      <point x="670" y="-20"/>
      <point x="483" y="-20" type="curve" smooth="yes"/>
      <point x="311" y="-20"/>
      <point x="212" y="114"/>
    </contour>
  </outline>
</glyph>
<glyph name="paragraph" format="2">
  <advance width="1200"/>
  <unicode hex="00B6"/>
  <outline>
    <contour>
      <point x="670" y="-210" type="line"/>
      <point x="917" y="1190" type="line"/>
      <point x="1156" y="1190" type="line"/>
      <point x="909" y="-210" type="line"/>
    </contour>
    <contour>
      <point x="340" y="-210" type="line"/>
      <point x="470" y="530" type="line"/>
      <point x="447" y="530" type="line" smooth="yes"/>
      <point x="280" y="530"/>
      <point x="112" y="664"/>
      <point x="155" y="910" type="curve" smooth="yes"/>
      <point x="200" y="1166"/>
      <point x="397" y="1300"/>
      <point x="683" y="1300" type="curve" smooth="yes"/>
      <point x="1295" y="1300" type="line"/>
      <point x="1253" y="1060" type="line"/>
      <point x="808" y="1090" type="line"/>
      <point x="579" y="-210" type="line"/>
    </contour>
  </outline>
</glyph>
<glyph name="periodcentered" format="2">
  <advance width="1200"/>
  <unicode hex="00B7"/>
  <outline>
    <contour>
      <point x="478" y="676" type="curve" smooth="yes"/>
      <point x="478" y="765"/>
      <point x="551" y="838"/>
      <point x="640" y="838" type="curve" smooth="yes"/>
      <point x="729" y="838"/>
      <point x="802" y="765"/>
      <point x="802" y="676" type="curve" smooth="yes"/>
      <point x="802" y="587"/>
      <point x="733" y="514"/>
      <point x="644" y="514" type="curve" smooth="yes"/>
      <point x="555" y="514"/>
      <point x="478" y="587"/>
    </contour>
  </outline>
</glyph>
<glyph name="cedilla" format="2">
  <advance width="1200"/>
  <unicode hex="00B8"/>
  <outline>
    <contour>
      <point x="457" y="-540" type="curve" smooth="yes"/>
      <point x="373" y="-540"/>
      <point x="255" y="-514"/>
      <point x="199" y="-474" type="curve"/>
      <point x="245" y="-274" type="line"/>
      <point x="301" y="-306"/>
      <point x="375" y="-322"/>
      <point x="427" y="-322" type="curve" smooth="yes"/>
      <point x="501" y="-322"/>
      <point x="537" y="-299"/>
      <point x="537" y="-267" type="curve" smooth="yes"/>
      <point x="537" y="-240"/>
      <point x="505" y="-210"/>
      <point x="367" y="-210" type="curve"/>
      <point x="293" y="-106" type="line"/>
      <point x="523" y="70" type="line"/>
      <point x="765" y="70" type="line"/>
      <point x="515" y="-124" type="line"/>
      <point x="407" y="-154" type="line"/>
      <point x="427" y="-114"/>
      <point x="485" y="-84"/>
      <point x="535" y="-84" type="curve" smooth="yes"/>
      <point x="621" y="-84"/>
      <point x="761" y="-142"/>
      <point x="761" y="-312" type="curve" smooth="yes"/>
      <point x="761" y="-470"/>
      <point x="631" y="-540"/>
    </contour>
  </outline>
</glyph>
<glyph name="ordmasculine" format="2">
  <advance width="1200"/>
  <unicode hex="00BA"/>
  <outline>
    <contour>
      <point x="630" y="648" type="curve" smooth="yes"/>
      <point x="437" y="648"/>
      <point x="313" y="763"/>
      <point x="352" y="984" type="curve" smooth="yes"/>
      <point x="390" y="1198"/>
      <point x="569" y="1320"/>
      <point x="749" y="1320" type="curve" smooth="yes"/>
      <point x="929" y="1320"/>
      <point x="1074" y="1198"/>
      <point x="1036" y="984" type="curve" smooth="yes"/>
      <point x="997" y="763"/>
      <point x="823" y="648"/>
    </contour>
    <contour>
      <point x="720" y="1156" type="curve" smooth="yes"/>
      <point x="652" y="1156"/>
      <point x="613" y="1093"/>
      <point x="594" y="984" type="curve" smooth="yes"/>
      <point x="574" y="868"/>
      <point x="577" y="812"/>
      <point x="659" y="812" type="curve" smooth="yes"/>
      <point x="741" y="812"/>
      <point x="774" y="868"/>
      <point x="794" y="984" type="curve" smooth="yes"/>
      <point x="813" y="1093"/>
      <point x="788" y="1156"/>
    </contour>
  </outline>
</glyph>
<glyph name="AE" format="2">
  <advance width="1200"/>
  <unicode hex="00C6"/>
  <outline>
    <contour>
      <point x="230" y="1300" type="line"/>
      <point x="529" y="1300" type="line"/>
      <point x="597" y="1120" type="line"/>
      <point x="190" y="1070" type="line"/>
    </contour>
    <contour>
      <point x="155" y="-20" type="line"/>
      <point x="-117" y="-20" type="line"/>
      <point x="529" y="1300" type="line"/>
      <point x="829" y="1300" type="line"/>
      <point x="737" y="1230" type="line"/>
    </contour>
    <contour>
      <point x="245" y="600" type="line"/>
      <point x="758" y="600" type="line"/>
      <point x="717" y="370" type="line"/>
      <point x="204" y="370" type="line"/>
    </contour>
    <contour>
      <point x="1074" y="810" type="line"/>
      <point x="1025" y="535" type="line"/>
      <point x="829" y="565" type="line"/>
      <point x="770" y="230" type="line"/>
      <point x="899" y="230" type="line"/>
      <point x="970" y="450" type="line"/>
      <point x="1139" y="450" type="line"/>
      <point x="1060" y="0" type="line"/>
      <point x="320" y="0" type="line"/>
      <point x="361" y="230" type="line"/>
      <point x="501" y="230" type="line"/>
      <point x="689" y="1300" type="line"/>
      <point x="1279" y="1300" type="line"/>
      <point x="1219" y="900" type="line"/>
      <point x="1000" y="900" type="line"/>
      <point x="990" y="1070" type="line"/>
      <point x="918" y="1070" type="line"/>
      <point x="865" y="770" type="line"/>
    </contour>
  </outline>
</glyph>
<glyph name="multiply" format="2">
  <advance width="1200"/>
  <unicode hex="00D7"/>
  <outline>
    <contour>
      <point x="315" y="877" type="line"/>
      <point x="500" y="1035" type="line"/>
      <point x="963" y="473" type="line"/>
      <point x="778" y="315" type="line"/>
    </contour>
    <contour>
      <point x="243" y="473" type="line"/>
      <point x="904" y="1035" type="line"/>
      <point x="1035" y="877" type="line"/>
      <point x="374" y="315" type="line"/>
    </contour>
  </outline>
</glyph>
<glyph name="Thorn" format="2">
  <advance width="1200"/>
  <unicode hex="00DE"/>
  <outline>
    <contour>
      <point x="-5" y="0" type="line"/>
      <point x="36" y="230" type="line"/>
      <point x="156" y="230" type="line"/>
      <point x="304" y="1070" type="line"/>
      <point x="184" y="1070" type="line"/>
      <point x="224" y="1300" type="line"/>
      <point x="603" y="1300" type="line"/>
      <point x="564" y="1080" type="line"/>
      <point x="767" y="1080" type="line" smooth="yes"/>
      <point x="1103" y="1080"/>
      <point x="1235" y="956"/>
      <point x="1193" y="720" type="curve" smooth="yes"/>
      <point x="1153" y="494"/>
      <point x="959" y="370"/>
      <point x="642" y="370" type="curve" smooth="yes"/>
      <point x="439" y="370" type="line"/>
      <point x="415" y="230" type="line"/>
      <point x="605" y="230" type="line"/>
      <point x="564" y="0" type="line"/>
    </contour>
    <contour>
      <point x="480" y="600" type="line"/>
      <point x="683" y="600" type="line" smooth="yes"/>
      <point x="791" y="600"/>
      <point x="867" y="627"/>
      <point x="883" y="720" type="curve" smooth="yes"/>
      <point x="901" y="823"/>
      <point x="855" y="850"/>
      <point x="727" y="850" type="curve" smooth="yes"/>
      <point x="524" y="850" type="line"/>
    </contour>
  </outline>
</glyph>
<glyph name="germandbls" format="2">
  <advance width="1200"/>
  <unicode hex="00DF"/>
  <outline>
    <contour>
      <point x="51" y="-330" type="line"/>
      <point x="245" y="1000" type="line" smooth="yes"/>
      <point x="281.01" y="1246.87"/>
      <point x="446" y="1440"/>
      <point x="753" y="1440" type="curve"/>
      <point x="721" y="1200" type="line"/>
      <point x="633" y="1200"/>
      <point x="528.943" y="1163.3"/>
      <point x="505" y="1000" type="curve" smooth="yes"/>
      <point x="310" y="-330" type="line"/>
    </contour>
    <contour>
      <point x="753" y="1440" type="line"/>
      <point x="971" y="1440"/>
      <point x="1115.08" y="1312.68"/>
      <point x="1103" y="1169" type="curve" smooth="yes"/>
      <point x="1094" y="1062"/>
      <point x="983" y="970"/>
      <point x="902" y="917" type="curve" smooth="yes"/>
      <point x="839" y="876"/>
      <point x="785" y="833"/>
      <point x="777" y="787" type="curve" smooth="yes"/>
      <point x="769" y="739"/>
      <point x="833" y="712"/>
      <point x="924" y="666" type="curve" smooth="yes"/>
      <point x="1059" y="598"/>
      <point x="1166" y="512"/>
      <point x="1150" y="336" type="curve" smooth="yes"/>
      <point x="1132.08" y="138.871"/>
      <point x="959" y="1"/>
      <point x="751" y="1" type="curve" smooth="yes"/>
      <point x="667" y="1"/>
      <point x="568" y="21"/>
      <point x="508" y="53" type="curve"/>
      <point x="599" y="288" type="line"/>
      <point x="645" y="262"/>
      <point x="688" y="245"/>
      <point x="726" y="245" type="curve" smooth="yes"/>
      <point x="766" y="245"/>
      <point x="813" y="263"/>
      <point x="826" y="334" type="curve" smooth="yes"/>
      <point x="839" y="407"/>
      <point x="788" y="469"/>
      <point x="684" y="526" type="curve" smooth="yes"/>
      <point x="589" y="578"/>
      <point x="480" y="665"/>
      <point x="502" y="787" type="curve" smooth="yes"/>
      <point x="524" y="914"/>
      <point x="632" y="991"/>
      <point x="698" y="1039" type="curve" smooth="yes"/>
      <point x="766" y="1088"/>
      <point x="824" y="1113"/>
      <point x="830" y="1149" type="curve" smooth="yes"/>
      <point x="837" y="1187"/>
      <point x="774" y="1200"/>
      <point x="721" y="1200" type="curve"/>
    </contour>
  </outline>
</glyph>
<glyph name="ae" format="2">
  <advance width="1200"/>
  <unicode hex="00E6"/>
  <outline>
    <contour>
      <point x="727" y="630" type="curve" smooth="yes"/>
      <point x="573" y="155" type="line"/>
      <point x="428" y="120" type="line"/>
      <point x="515" y="610" type="line" smooth="yes"/>
      <point x="526" y="673"/>
      <point x="526" y="720"/>
      <point x="478" y="720" type="curve" smooth="yes"/>
      <point x="410" y="720"/>
      <point x="346" y="660"/>
      <point x="255" y="567" type="curve"/>
      <point x="192" y="770" type="line"/>
      <point x="324" y="896"/>
      <point x="425" y="940"/>
      <point x="532" y="940" type="curve" smooth="yes"/>
      <point x="719" y="940"/>
      <point x="755" y="787"/>
    </contour>
    <contour>
      <point x="313" y="256" type="curve" smooth="yes"/>
      <point x="308" y="230"/>
      <point x="317" y="215"/>
      <point x="345" y="215" type="curve" smooth="yes"/>
      <point x="393" y="215"/>
      <point x="456" y="277"/>
      <point x="559" y="350" type="curve"/>
      <point x="614" y="210" type="line"/>
      <point x="520" y="74"/>
      <point x="380" y="-20"/>
      <point x="233" y="-20" type="curve" smooth="yes"/>
      <point x="77" y="-20"/>
      <point x="11" y="74"/>
      <point x="33" y="200" type="curve" smooth="yes"/>
      <point x="72" y="423"/>
      <point x="292" y="508"/>
      <point x="565" y="619" type="curve"/>
      <point x="580" y="478" type="line"/>
      <point x="397" y="383"/>
      <point x="324" y="320"/>
    </contour>
    <contour>
      <point x="1055" y="79" type="line"/>
      <point x="985" y="23"/>
      <point x="906" y="-20"/>
      <point x="810" y="-20" type="curve"/>
      <point x="833" y="222" type="line"/>
      <point x="890" y="222"/>
      <point x="958" y="254"/>
      <point x="1014" y="292" type="curve"/>
    </contour>
    <contour>
      <point x="810" y="-20" type="line"/>
      <point x="554" y="-20"/>
      <point x="532" y="194"/>
      <point x="582" y="480" type="curve" smooth="yes"/>
      <point x="631" y="756"/>
      <point x="718" y="940"/>
      <point x="935" y="940" type="curve" smooth="yes"/>
      <point x="1102" y="940"/>
      <point x="1165.46" y="775.336"/>
      <point x="1135" y="632" type="curve" smooth="yes"/>
      <point x="1095.39" y="445.603"/>
      <point x="937.313" y="397.385"/>
      <point x="656" y="377" type="curve"/>
      <point x="693" y="567" type="line"/>
      <point x="693" y="567"/>
      <point x="830" y="546"/>
      <point x="907" y="597" type="curve" smooth="yes"/>
      <point x="940" y="619"/>
      <point x="953" y="705"/>
      <point x="883" y="705" type="curve" smooth="yes"/>
      <point x="815" y="705"/>
      <point x="778" y="653"/>
      <point x="744" y="460" type="curve" smooth="yes"/>
      <point x="721" y="327"/>
      <point x="685" y="222"/>
      <point x="833" y="222" type="curve"/>
    </contour>
  </outline>
</glyph>
<glyph name="eth" format="2">
  <advance width="1200"/>
  <unicode hex="00F0"/>
  <outline>
    <contour>
      <point x="506" y="-20" type="curve" smooth="yes"/>
      <point x="218" y="-20"/>
      <point x="9" y="140"/>
      <point x="65" y="460" type="curve" smooth="yes"/>
      <point x="118" y="762"/>
      <point x="364" y="940"/>
      <point x="564" y="940" type="curve" smooth="yes"/>
      <point x="734" y="940"/>
      <point x="881" y="866"/>
      <point x="963" y="742" type="curve"/>
      <point x="806" y="772" type="line"/>
      <point x="751" y="958"/>
      <point x="641" y="1092"/>
      <point x="449" y="1298" type="curve"/>
      <point x="655" y="1470" type="line"/>
      <point x="1008" y="1042"/>
      <point x="1164" y="728"/>
      <point x="1117" y="460" type="curve" smooth="yes"/>
      <point x="1061" y="140"/>
      <point x="794" y="-20"/>
    </contour>
    <contour>
      <point x="551" y="234" type="curve" smooth="yes"/>
      <point x="735" y="234"/>
      <point x="829" y="312"/>
      <point x="855" y="460" type="curve" smooth="yes"/>
      <point x="880" y="600"/>
      <point x="816" y="716"/>
      <point x="636" y="716" type="curve" smooth="yes"/>
      <point x="456" y="716"/>
      <point x="352" y="600"/>
      <point x="327" y="460" type="curve" smooth="yes"/>
      <point x="301" y="312"/>
      <point x="377" y="234"/>
    </contour>
    <contour>
      <point x="474" y="976" type="line"/>
      <point x="429" y="1150" type="line"/>
      <point x="1032" y="1394" type="line"/>
      <point x="1077" y="1220" type="line"/>
    </contour>
  </outline>
</glyph>
<glyph name="divide" format="2">
  <advance width="1200"/>
  <unicode hex="00F7"/>
  <outline>
    <contour>
      <point x="249" y="780" type="line"/>
      <point x="1071" y="780" type="line"/>
      <point x="1031" y="570" type="line"/>
      <point x="209" y="570" type="line"/>
    </contour>
    <component base="period" xScale="0.75" yScale="0.75" xOffset="280" yOffset="865"/>
    <component base="period" xScale="0.75" yScale="0.75" xOffset="170" yOffset="215"/>
  </outline>
</glyph>
<glyph name="oslash" format="2">
  <advance width="1200"/>
  <unicode hex="00F8"/>
  <outline>
    <contour>
      <point x="934.5" y="1040" type="line"/>
      <point x="1096.5" y="910" type="line"/>
      <point x="266.5" y="-130" type="line"/>
      <point x="104.5" y="0" type="line"/>
    </contour>
    <component base="o"/>
  </outline>
</glyph>
<glyph name="thorn" format="2">
  <advance width="1200"/>
  <unicode hex="00FE"/>
  <outline>
    <contour>
      <point x="612" y="215" type="curve" smooth="yes"/>
      <point x="760" y="215"/>
      <point x="841" y="297"/>
      <point x="870" y="460" type="curve" smooth="yes"/>
      <point x="897" y="613"/>
      <point x="815" y="700"/>
      <point x="697" y="700" type="curve" smooth="yes"/>
      <point x="569" y="700"/>
      <point x="455" y="633"/>
      <point x="424" y="460" type="curve" smooth="yes"/>
      <point x="392" y="277"/>
      <point x="484" y="215"/>
    </contour>
    <contour>
      <point x="770" y="940" type="curve" smooth="yes"/>
      <point x="1006" y="940"/>
      <point x="1207" y="746"/>
      <point x="1150" y="420" type="curve" smooth="yes"/>
      <point x="1094" y="104"/>
      <point x="877" y="-20"/>
      <point x="700" y="-20" type="curve" smooth="yes"/>
      <point x="363" y="-20"/>
      <point x="302" y="204"/>
      <point x="358" y="520" type="curve" smooth="yes"/>
      <point x="408" y="806"/>
      <point x="554" y="940"/>
    </contour>
    <contour>
      <point x="576" y="1330" type="line"/>
      <point x="283" y="-330" type="line"/>
      <point x="24" y="-330" type="line"/>
      <point x="274" y="1090" type="line"/>
      <point x="154" y="1090" type="line"/>
      <point x="197" y="1330" type="line"/>
    </contour>
  </outline>
</glyph>
<glyph name="dcroat" format="2">
  <advance width="1200"/>
  <unicode hex="0111"/>
  <outline>
    <contour>
      <point x="739" y="1220" type="line"/>
      <point x="1241" y="1220" type="line"/>
      <point x="1200" y="990" type="line"/>
      <point x="698" y="990" type="line"/>
    </contour>
    <contour>
      <point x="332" y="436" type="curve" smooth="yes"/>
      <point x="297.922" y="283.163"/>
      <point x="363" y="225"/>
      <point x="437" y="225" type="curve" smooth="yes"/>
      <point x="525" y="225"/>
      <point x="624" y="277"/>
      <point x="760" y="500" type="curve"/>
      <point x="730" y="310" type="line"/>
      <point x="600" y="64"/>
      <point x="436" y="-20"/>
      <point x="309" y="-20" type="curve" smooth="yes"/>
      <point x="93" y="-20"/>
      <point x="-22.6953" y="163.597"/>
      <point x="45" y="450" type="curve" smooth="yes"/>
      <point x="115.808" y="749.572"/>
      <point x="374" y="939"/>
      <point x="589" y="939" type="curve" smooth="yes"/>
      <point x="737" y="939"/>
      <point x="815" y="856"/>
      <point x="854" y="780" type="curve"/>
      <point x="855" y="659" type="line"/>
      <point x="815" y="706"/>
      <point x="767" y="739"/>
      <point x="670" y="739" type="curve" smooth="yes"/>
      <point x="530" y="739"/>
      <point x="380.412" y="653.125"/>
    </contour>
    <contour>
      <point x="1131" y="1330" type="line"/>
      <point x="928" y="295" type="line" smooth="yes"/>
      <point x="918.758" y="247.878"/>
      <point x="894.385" y="180"/>
      <point x="927" y="180" type="curve" smooth="yes"/>
      <point x="957" y="180"/>
      <point x="1000" y="215"/>
      <point x="1059" y="280" type="curve"/>
      <point x="1177" y="143" type="line"/>
      <point x="1075" y="43"/>
      <point x="978" y="-35"/>
      <point x="838" y="-35" type="curve" smooth="yes"/>
      <point x="728" y="-35"/>
      <point x="613.519" y="20.3594"/>
      <point x="647" y="190" type="curve" smooth="yes"/>
      <point x="872" y="1330" type="line"/>
    </contour>
  </outline>
</glyph>
<glyph name="Hbar" format="2">
  <advance width="1200"/>
  <unicode hex="0126"/>
  <outline>
    <contour>
      <point x="773" y="410" type="line"/>
      <point x="411" y="410" type="line"/>
      <point x="380" y="230" type="line"/>
      <point x="519" y="230" type="line"/>
      <point x="478" y="0" type="line"/>
      <point x="-40" y="0" type="line"/>
      <point x="1" y="230" type="line"/>
      <point x="121" y="230" type="line"/>
      <point x="269" y="1070" type="line"/>
      <point x="149" y="1070" type="line"/>
      <point x="189" y="1300" type="line"/>
      <point x="707" y="1300" type="line"/>
      <point x="667" y="1070" type="line"/>
      <point x="528" y="1070" type="line"/>
      <point x="452" y="640" type="line"/>
      <point x="814" y="640" type="line"/>
      <point x="890" y="1070" type="line"/>
      <point x="751" y="1070" type="line"/>
      <point x="791" y="1300" type="line"/>
      <point x="1309" y="1300" type="line"/>
      <point x="1269" y="1070" type="line"/>
      <point x="1149" y="1070" type="line"/>
      <point x="1001" y="230" type="line"/>
      <point x="1121" y="230" type="line"/>
      <point x="1080" y="0" type="line"/>
      <point x="562" y="0" type="line"/>
      <point x="603" y="230" type="line"/>
      <point x="742" y="230" type="line"/>
    </contour>
    <contour>
      <point x="130" y="970" type="line"/>
      <point x="1252" y="970" type="line"/>
      <point x="1211" y="740" type="line"/>
      <point x="89" y="740" type="line"/>
    </contour>
  </outline>
</glyph>
<glyph name="hbar" format="2">
  <advance width="1200"/>
  <unicode hex="0127"/>
  <outline>
    <contour>
      <point x="199" y="1210" type="line"/>
      <point x="701" y="1210" type="line"/>
      <point x="660" y="980" type="line"/>
      <point x="158" y="980" type="line"/>
    </contour>
    <component base="h.alt"/>
  </outline>
</glyph>
<glyph name="dotlessi" format="2">
  <advance width="1200"/>
  <unicode hex="0131"/>
  <anchor x="597" y="0" name="Anchor-2"/>
  <anchor x="676" y="920" name="Anchor-0"/>
  <outline>
    <contour>
      <point x="569" y="700" type="line"/>
      <point x="169" y="680" type="line"/>
      <point x="212" y="920" type="line"/>
      <point x="811" y="920" type="line"/>
      <point x="668" y="305" type="line" smooth="yes"/>
      <point x="654.916" y="248.728"/>
      <point x="654.385" y="210"/>
      <point x="687" y="210" type="curve" smooth="yes"/>
      <point x="747" y="210"/>
      <point x="838" y="291"/>
      <point x="967" y="423" type="curve"/>
      <point x="1103" y="242" type="line"/>
      <point x="951" y="102"/>
      <point x="756" y="-25"/>
      <point x="586" y="-25" type="curve" smooth="yes"/>
      <point x="456" y="-25"/>
      <point x="338.759" y="43.1338"/>
      <point x="385" y="240" type="curve" smooth="yes"/>
      <point x="524.58" y="833.158" type="line"/>
    </contour>
  </outline>
</glyph>
<glyph name="IJ" format="2">
  <advance width="1200"/>
  <unicode hex="0132"/>
  <outline>
    <contour>
      <point x="-15" y="0" type="line"/>
      <point x="26" y="230" type="line"/>
      <point x="131" y="230" type="line"/>
      <point x="279" y="1070" type="line"/>
      <point x="184" y="1070" type="line"/>
      <point x="224" y="1300" type="line"/>
      <point x="684" y="1300" type="line"/>
      <point x="644" y="1070" type="line"/>
      <point x="549" y="1070" type="line"/>
      <point x="401" y="230" type="line"/>
      <point x="506" y="230" type="line"/>
      <point x="465" y="0" type="line"/>
    </contour>
    <contour>
      <point x="618" y="224" type="line"/>
      <point x="766" y="224"/>
      <point x="846" y="297"/>
      <point x="870" y="430" type="curve" smooth="yes"/>
      <point x="984" y="1070" type="line"/>
      <point x="765" y="1070" type="line"/>
      <point x="805" y="1300" type="line"/>
      <point x="1284" y="1300" type="line"/>
      <point x="1130" y="430" type="line" smooth="yes"/>
      <point x="1085" y="174"/>
      <point x="846" y="-20"/>
      <point x="580" y="-20" type="curve"/>
    </contour>
  </outline>
</glyph>
<glyph name="ij" format="2">
  <advance width="1200"/>
  <unicode hex="0133"/>
  <outline>
    <contour>
      <point x="315" y="1255" type="curve" smooth="yes"/>
      <point x="315" y="1358"/>
      <point x="396" y="1430"/>
      <point x="489" y="1430" type="curve" smooth="yes"/>
      <point x="582" y="1430"/>
      <point x="664" y="1358"/>
      <point x="664" y="1255" type="curve" smooth="yes"/>
      <point x="664" y="1152"/>
      <point x="587" y="1080"/>
      <point x="494" y="1080" type="curve" smooth="yes"/>
      <point x="401" y="1080"/>
      <point x="315" y="1152"/>
    </contour>
    <contour>
      <point x="865" y="1255" type="curve" smooth="yes"/>
      <point x="865" y="1358"/>
      <point x="946" y="1430"/>
      <point x="1039" y="1430" type="curve" smooth="yes"/>
      <point x="1132" y="1430"/>
      <point x="1214" y="1358"/>
      <point x="1214" y="1255" type="curve" smooth="yes"/>
      <point x="1214" y="1152"/>
      <point x="1137" y="1080"/>
      <point x="1044" y="1080" type="curve" smooth="yes"/>
      <point x="951" y="1080"/>
      <point x="865" y="1152"/>
    </contour>
    <contour>
      <point x="349" y="700" type="line"/>
      <point x="109" y="680" type="line"/>
      <point x="152" y="920" type="line"/>
      <point x="591" y="920" type="line"/>
      <point x="448" y="305" type="line" smooth="yes"/>
      <point x="434.916" y="248.728"/>
      <point x="434.385" y="210"/>
      <point x="467" y="210" type="curve" smooth="yes"/>
      <point x="517" y="210"/>
      <point x="558" y="251"/>
      <point x="597" y="293" type="curve"/>
      <point x="653" y="92" type="line"/>
      <point x="581" y="22"/>
      <point x="496" y="-25"/>
      <point x="366" y="-25" type="curve" smooth="yes"/>
      <point x="236" y="-25"/>
      <point x="118.759" y="43.1338"/>
      <point x="165" y="240" type="curve" smooth="yes"/>
      <point x="304.58" y="833.158" type="line"/>
    </contour>
    <contour>
      <point x="485" y="-190" type="curve"/>
      <point x="465" y="-430" type="line"/>
      <point x="278" y="-430"/>
      <point x="115" y="-331"/>
      <point x="40" y="-231" type="curve"/>
      <point x="246" y="-70" type="line"/>
      <point x="288" y="-120"/>
      <point x="377" y="-190"/>
    </contour>
    <contour>
      <point x="1114" y="920" type="line"/>
      <point x="955" y="10" type="line" smooth="yes"/>
      <point x="913.261" y="-228.882"/>
      <point x="772" y="-430"/>
      <point x="465" y="-430" type="curve"/>
      <point x="485" y="-190" type="line"/>
      <point x="583" y="-190"/>
      <point x="658.418" y="-138.418"/>
      <point x="685" y="10" type="curve" smooth="yes"/>
      <point x="805" y="680" type="line"/>
      <point x="665" y="680" type="line"/>
      <point x="705" y="920" type="line"/>
    </contour>
  </outline>
</glyph>
<glyph name="kgreenlandic" format="2">
  <advance width="1200"/>
  <unicode hex="0138"/>
  <anchor x="758" y="920" name="Anchor-0"/>
  <anchor x="516" y="0" name="Anchor-2"/>
  <outline>
    <contour>
      <point x="350" y="0" type="line"/>
      <point x="90" y="0" type="line"/>
      <point x="210" y="680" type="line"/>
      <point x="70" y="680" type="line"/>
      <point x="113" y="920" type="line"/>
      <point x="513" y="920" type="line"/>
    </contour>
    <contour>
      <point x="814" y="634" type="curve" smooth="yes"/>
      <point x="827.482" y="675.851"/>
      <point x="804" y="695"/>
      <point x="756" y="695" type="curve" smooth="yes"/>
      <point x="668" y="695"/>
      <point x="556" y="643"/>
      <point x="420" y="520" type="curve"/>
      <point x="379" y="610" type="line"/>
      <point x="529" y="836"/>
      <point x="703" y="940"/>
      <point x="850" y="940" type="curve" smooth="yes"/>
      <point x="1006" y="940"/>
      <point x="1114.62" y="845.522"/>
      <point x="1074" y="670" type="curve" smooth="yes"/>
      <point x="1023.17" y="450.346"/>
      <point x="755" y="271"/>
      <point x="470" y="271" type="curve" smooth="yes"/>
      <point x="392" y="271"/>
      <point x="314" y="314"/>
      <point x="275" y="360" type="curve"/>
      <point x="324" y="521" type="line"/>
      <point x="364" y="474"/>
      <point x="382" y="441"/>
      <point x="479" y="441" type="curve" smooth="yes"/>
      <point x="649" y="441"/>
      <point x="780.536" y="530.123"/>
    </contour>
    <contour>
      <point x="442.58" y="363.158" type="line"/>
      <point x="671" y="380" type="line"/>
      <point x="718" y="256" type="line" smooth="yes"/>
      <point x="725.827" y="235.35"/>
      <point x="738.385" y="216"/>
      <point x="771" y="216" type="curve" smooth="yes"/>
      <point x="841" y="216"/>
      <point x="908" y="268"/>
      <point x="997" y="360" type="curve"/>
      <point x="1146" y="213" type="line"/>
      <point x="994" y="63"/>
      <point x="876" y="-25"/>
      <point x="736" y="-25" type="curve" smooth="yes"/>
      <point x="606" y="-25"/>
      <point x="541.369" y="53.0547"/>
      <point x="485" y="230" type="curve" smooth="yes"/>
    </contour>
  </outline>
</glyph>
<glyph name="Lslash" format="2">
  <advance width="1200"/>
  <unicode hex="0141"/>
  <outline>
    <contour>
      <point x="155" y="510" type="line"/>
      <point x="65" y="685" type="line"/>
      <point x="675" y="975" type="line"/>
      <point x="765" y="800" type="line"/>
    </contour>
    <component base="L"/>
  </outline>
</glyph>
<glyph name="lslash" format="2">
  <advance width="1200"/>
  <unicode hex="0142"/>
  <outline>
    <contour>
      <point x="295" y="540" type="line"/>
      <point x="205" y="705" type="line"/>
      <point x="825" y="1005" type="line"/>
      <point x="915" y="840" type="line"/>
    </contour>
    <component base="l"/>
  </outline>
</glyph>
<glyph name="Eng" format="2">
  <advance width="1200"/>
  <unicode hex="014A"/>
  <outline>
    <contour>
      <point x="988" y="0" type="line"/>
      <point x="945" y="-246"/>
      <point x="823" y="-440"/>
      <point x="476" y="-440" type="curve"/>
      <point x="511" y="-200" type="line"/>
      <point x="629" y="-200"/>
      <point x="687" y="-153"/>
      <point x="714" y="0" type="curve"/>
    </contour>
    <contour>
      <point x="290" y="1060" type="line"/>
      <point x="170" y="1060" type="line"/>
      <point x="212" y="1300" type="line"/>
      <point x="332" y="1300" type="line"/>
    </contour>
    <contour>
      <point x="1159" y="950" type="curve" smooth="yes"/>
      <point x="988" y="0" type="line"/>
      <point x="714" y="0" type="line"/>
      <point x="879" y="920" type="line" smooth="yes"/>
      <point x="897" y="1023"/>
      <point x="866" y="1090"/>
      <point x="768" y="1090" type="curve" smooth="yes"/>
      <point x="660" y="1090"/>
      <point x="552.063" y="993.693"/>
      <point x="525" y="840" type="curve" smooth="yes"/>
      <point x="374" y="0" type="line"/>
      <point x="100" y="0" type="line"/>
      <point x="332" y="1300" type="line"/>
      <point x="536" y="1300" type="line"/>
      <point x="543" y="1010" type="line"/>
      <point x="451" y="930" type="line"/>
      <point x="479" y="1086"/>
      <point x="622" y="1320"/>
      <point x="889" y="1320" type="curve" smooth="yes"/>
      <point x="1101" y="1320"/>
      <point x="1201" y="1186"/>
    </contour>
  </outline>
</glyph>
<glyph name="OE" format="2">
  <advance width="1200"/>
  <unicode hex="0152"/>
  <outline>
    <contour>
      <point x="689" y="1300" type="curve"/>
      <point x="647" y="1060" type="line"/>
      <point x="529" y="1060"/>
      <point x="407" y="1003"/>
      <point x="345" y="650" type="curve" smooth="yes"/>
      <point x="281" y="287"/>
      <point x="364" y="240"/>
      <point x="502" y="240" type="curve"/>
      <point x="460" y="0" type="line"/>
      <point x="144" y="0"/>
      <point x="8" y="244"/>
      <point x="85" y="680" type="curve" smooth="yes"/>
      <point x="160" y="1106"/>
      <point x="392" y="1300"/>
    </contour>
    <contour>
      <point x="1070" y="790" type="line"/>
      <point x="1029" y="555" type="line"/>
      <point x="829" y="565" type="line"/>
      <point x="770" y="230" type="line"/>
      <point x="889" y="230" type="line"/>
      <point x="960" y="450" type="line"/>
      <point x="1139" y="450" type="line"/>
      <point x="1060" y="0" type="line"/>
      <point x="460" y="0" type="line"/>
      <point x="689" y="1300" type="line"/>
      <point x="1249" y="1300" type="line"/>
      <point x="1219" y="900" type="line"/>
      <point x="1040" y="900" type="line"/>
      <point x="1000" y="1070" type="line"/>
      <point x="918" y="1070" type="line"/>
      <point x="867" y="780" type="line"/>
    </contour>
  </outline>
</glyph>
<glyph name="oe" format="2">
  <advance width="1200"/>
  <unicode hex="0153"/>
  <outline>
    <contour>
      <point x="810" y="-20" type="line"/>
      <point x="554" y="-20"/>
      <point x="532" y="194"/>
      <point x="582" y="480" type="curve" smooth="yes"/>
      <point x="631" y="756"/>
      <point x="718" y="940"/>
      <point x="935" y="940" type="curve" smooth="yes"/>
      <point x="1102" y="940"/>
      <point x="1165.46" y="775.336"/>
      <point x="1135" y="632" type="curve" smooth="yes"/>
      <point x="1095.39" y="445.603"/>
      <point x="937.313" y="397.385"/>
      <point x="656" y="377" type="curve"/>
      <point x="693" y="567" type="line"/>
      <point x="693" y="567"/>
      <point x="830" y="546"/>
      <point x="907" y="597" type="curve" smooth="yes"/>
      <point x="940" y="619"/>
      <point x="953" y="705"/>
      <point x="883" y="705" type="curve" smooth="yes"/>
      <point x="815" y="705"/>
      <point x="778" y="653"/>
      <point x="744" y="460" type="curve" smooth="yes"/>
      <point x="721" y="327"/>
      <point x="685" y="222"/>
      <point x="833" y="222" type="curve"/>
    </contour>
    <contour>
      <point x="295" y="-20" type="curve" smooth="yes"/>
      <point x="89" y="-20"/>
      <point x="36" y="144"/>
      <point x="92" y="460" type="curve" smooth="yes"/>
      <point x="146" y="766"/>
      <point x="278" y="940"/>
      <point x="465" y="940" type="curve" smooth="yes"/>
      <point x="682" y="940"/>
      <point x="704" y="766"/>
      <point x="650" y="460" type="curve" smooth="yes"/>
      <point x="594" y="144"/>
      <point x="531" y="-20"/>
    </contour>
    <contour>
      <point x="473" y="705" type="curve" smooth="yes"/>
      <point x="435" y="705"/>
      <point x="404" y="673"/>
      <point x="366" y="460" type="curve" smooth="yes"/>
      <point x="327" y="237"/>
      <point x="339" y="215"/>
      <point x="377" y="215" type="curve" smooth="yes"/>
      <point x="425" y="215"/>
      <point x="447" y="237"/>
      <point x="486" y="460" type="curve" smooth="yes"/>
      <point x="524" y="673"/>
      <point x="521" y="705"/>
    </contour>
    <contour>
      <point x="1055" y="79" type="line"/>
      <point x="985" y="23"/>
      <point x="906" y="-20"/>
      <point x="810" y="-20" type="curve"/>
      <point x="833" y="222" type="line"/>
      <point x="890" y="222"/>
      <point x="958" y="254"/>
      <point x="1014" y="292" type="curve"/>
    </contour>
  </outline>
</glyph>
<glyph name="tbar" format="2">
  <advance width="1200"/>
  <unicode hex="0167"/>
  <outline>
    <contour>
      <point x="121" y="600" type="line"/>
      <point x="843" y="600" type="line"/>
      <point x="805" y="386" type="line"/>
      <point x="83" y="386" type="line"/>
    </contour>
    <component base="t"/>
  </outline>
</glyph>
<glyph name="longs" format="2">
  <advance width="1200"/>
  <unicode hex="017F"/>
  <outline>
    <contour>
      <point x="938" y="1200" type="curve"/>
      <point x="953" y="1440" type="line"/>
      <point x="1110" y="1440"/>
      <point x="1260" y="1361"/>
      <point x="1323" y="1301" type="curve"/>
      <point x="1158" y="1090" type="line"/>
      <point x="1121" y="1120"/>
      <point x="1046" y="1200"/>
    </contour>
    <contour>
      <point x="243" y="-330" type="line"/>
      <point x="425" y="1000" type="line" smooth="yes"/>
      <point x="458.804" y="1247.03"/>
      <point x="626" y="1440"/>
      <point x="953" y="1440" type="curve"/>
      <point x="938" y="1200" type="line"/>
      <point x="820" y="1200"/>
      <point x="714.547" y="1142.06"/>
      <point x="695" y="1000" type="curve" smooth="yes"/>
      <point x="512" y="-330" type="line"/>
    </contour>
  </outline>
</glyph>
<glyph name="florin" format="2">
  <advance width="1200"/>
  <unicode hex="0192"/>
  <outline>
    <contour>
      <point x="178" y="-180" type="curve"/>
      <point x="166" y="-420" type="line"/>
      <point x="19" y="-420"/>
      <point x="-86" y="-361"/>
      <point x="-173" y="-271" type="curve"/>
      <point x="-6" y="-40" type="line"/>
      <point x="27" y="-90"/>
      <point x="120" y="-180"/>
    </contour>
    <contour>
      <point x="602" y="130" type="line"/>
      <point x="584" y="20" type="line" smooth="yes"/>
      <point x="541" y="-226"/>
      <point x="443" y="-420"/>
      <point x="166" y="-420" type="curve"/>
      <point x="178" y="-180" type="line"/>
      <point x="256" y="-180"/>
      <point x="277" y="-133"/>
      <point x="304" y="20" type="curve" smooth="yes"/>
      <point x="323" y="130" type="line"/>
    </contour>
    <contour>
      <point x="951" y="1200" type="curve"/>
      <point x="973" y="1440" type="line"/>
      <point x="1130" y="1440"/>
      <point x="1280" y="1371"/>
      <point x="1373" y="1301" type="curve"/>
      <point x="1228" y="1080" type="line"/>
      <point x="1191" y="1110"/>
      <point x="1049" y="1200"/>
    </contour>
    <contour>
      <point x="323" y="130" type="line"/>
      <point x="422" y="690" type="line"/>
      <point x="202" y="690" type="line"/>
      <point x="242" y="920" type="line"/>
      <point x="461" y="920" type="line"/>
      <point x="475" y="1000" type="line" smooth="yes"/>
      <point x="518" y="1246"/>
      <point x="666" y="1440"/>
      <point x="973" y="1440" type="curve"/>
      <point x="951" y="1200" type="line"/>
      <point x="833" y="1200"/>
      <point x="782" y="1153"/>
      <point x="755" y="1000" type="curve" smooth="yes"/>
      <point x="741" y="920" type="line"/>
      <point x="1132" y="920" type="line"/>
      <point x="1088" y="670" type="line"/>
      <point x="701" y="690" type="line"/>
      <point x="602" y="130" type="line"/>
    </contour>
  </outline>
</glyph>
<glyph name="uni0212" format="2">
  <advance width="1200"/>
  <unicode hex="0212"/>
  <outline>
    <contour>
      <point x="404" y="1720" type="curve"/>
      <point x="646" y="1700" type="line"/>
      <point x="636" y="1658"/>
      <point x="650" y="1600"/>
      <point x="720" y="1600" type="curve" smooth="yes"/>
      <point x="789" y="1600"/>
      <point x="804" y="1658"/>
      <point x="794" y="1700" type="curve"/>
      <point x="1036" y="1720" type="line"/>
      <point x="1046" y="1522"/>
      <point x="940" y="1390"/>
      <point x="720" y="1390" type="curve" smooth="yes"/>
      <point x="500" y="1390"/>
      <point x="394" y="1522"/>
    </contour>
    <component base="R"/>
  </outline>
</glyph>
<glyph name="uni0213" format="2">
  <advance width="1200"/>
  <unicode hex="0213"/>
  <outline>
    <contour>
      <point x="414" y="1340" type="curve"/>
      <point x="656" y="1320" type="line"/>
      <point x="646" y="1278"/>
      <point x="660" y="1220"/>
      <point x="730" y="1220" type="curve" smooth="yes"/>
      <point x="799" y="1220"/>
      <point x="814" y="1278"/>
      <point x="804" y="1320" type="curve"/>
      <point x="1046" y="1340" type="line"/>
      <point x="1056" y="1142"/>
      <point x="950" y="1010"/>
      <point x="730" y="1010" type="curve" smooth="yes"/>
      <point x="510" y="1010"/>
      <point x="404" y="1142"/>
    </contour>
    <component base="r"/>
  </outline>
</glyph>
<glyph name="uni0237" format="2">
  <advance width="1200"/>
  <unicode hex="0237"/>
  <anchor x="706" y="920" name="Anchor-0"/>
  <outline>
    <contour>
      <point x="406" y="-190" type="curve"/>
      <point x="384" y="-430" type="line"/>
      <point x="167" y="-430"/>
      <point x="-5" y="-311"/>
      <point x="-62" y="-211" type="curve"/>
      <point x="156" y="-30" type="line"/>
      <point x="189" y="-80"/>
      <point x="298" y="-190"/>
    </contour>
    <contour>
      <point x="1041" y="920" type="line"/>
      <point x="882" y="10" type="line" smooth="yes"/>
      <point x="839" y="-236"/>
      <point x="741" y="-430"/>
      <point x="384" y="-430" type="curve"/>
      <point x="406" y="-190" type="line"/>
      <point x="514" y="-190"/>
      <point x="587" y="-133"/>
      <point x="612" y="10" type="curve" smooth="yes"/>
      <point x="730" y="680" type="line"/>
      <point x="360" y="680" type="line"/>
      <point x="402" y="920" type="line"/>
    </contour>
  </outline>
</glyph>
<glyph name="uni02BC" format="2">
  <advance width="1200"/>
  <unicode hex="02BC"/>
  <anchor x="206" y="920" name="_Anchor-1"/>
  <outline>
    <contour>
      <point x="488" y="726" type="line"/>
      <point x="616" y="1336" type="line"/>
      <point x="926" y="1336" type="line"/>
      <point x="668" y="726" type="line"/>
    </contour>
  </outline>
</glyph>
<glyph name="circumflex" format="2">
  <advance width="1200"/>
  <unicode hex="02C6"/>
  <outline>
    <contour>
      <point x="458" y="971" type="line"/>
      <point x="266" y="1101" type="line"/>
      <point x="606" y="1380" type="line"/>
      <point x="934" y="1101" type="line"/>
      <point x="744" y="971" type="line"/>
      <point x="526" y="1210" type="line"/>
      <point x="686" y="1210" type="line"/>
    </contour>
  </outline>
</glyph>
<glyph name="caron" format="2">
  <advance width="1200"/>
  <unicode hex="02C7"/>
  <outline>
    <contour>
      <point x="742" y="1420" type="line"/>
      <point x="934" y="1290" type="line"/>
      <point x="594" y="1011" type="line"/>
      <point x="266" y="1290" type="line"/>
      <point x="456" y="1420" type="line"/>
      <point x="674" y="1181" type="line"/>
      <point x="514" y="1181" type="line"/>
    </contour>
  </outline>
</glyph>
<glyph name="uni02C9" format="2">
  <advance width="1200"/>
  <unicode hex="02C9"/>
  <outline>
    <contour>
      <point x="369" y="1270" type="line"/>
      <point x="871" y="1270" type="line"/>
      <point x="830" y="1040" type="line"/>
      <point x="328" y="1040" type="line"/>
    </contour>
  </outline>
</glyph>
<glyph name="ring" format="2">
  <advance width="1200"/>
  <unicode hex="02DA"/>
  <outline>
    <contour>
      <point x="396" y="1250" type="curve" smooth="yes"/>
      <point x="396" y="1370"/>
      <point x="496" y="1450"/>
      <point x="600" y="1450" type="curve" smooth="yes"/>
      <point x="704" y="1450"/>
      <point x="804" y="1370"/>
      <point x="804" y="1250" type="curve" smooth="yes"/>
      <point x="804" y="1130"/>
      <point x="704" y="1050"/>
      <point x="600" y="1050" type="curve" smooth="yes"/>
      <point x="496" y="1050"/>
      <point x="396" y="1130"/>
    </contour>
    <contour>
      <point x="548" y="1250" type="curve" smooth="yes"/>
      <point x="548" y="1209"/>
      <point x="575" y="1194"/>
      <point x="600" y="1194" type="curve" smooth="yes"/>
      <point x="625" y="1194"/>
      <point x="652" y="1209"/>
      <point x="652" y="1250" type="curve" smooth="yes"/>
      <point x="652" y="1291"/>
      <point x="625" y="1306"/>
      <point x="600" y="1306" type="curve" smooth="yes"/>
      <point x="575" y="1306"/>
      <point x="548" y="1291"/>
    </contour>
  </outline>
</glyph>
<glyph name="ogonek" format="2">
  <advance width="1200"/>
  <unicode hex="02DB"/>
  <outline>
    <contour>
      <point x="765" y="-200" type="curve"/>
      <point x="861" y="-370" type="line"/>
      <point x="811" y="-410"/>
      <point x="721" y="-450"/>
      <point x="615" y="-450" type="curve" smooth="yes"/>
      <point x="477" y="-450"/>
      <point x="379" y="-378"/>
      <point x="379" y="-250" type="curve" smooth="yes"/>
      <point x="379" y="-112"/>
      <point x="513" y="-2"/>
      <point x="673" y="70" type="curve"/>
      <point x="785" y="0" type="line"/>
      <point x="681" y="-54"/>
      <point x="599" y="-156"/>
      <point x="599" y="-210" type="curve" smooth="yes"/>
      <point x="599" y="-232"/>
      <point x="615" y="-250"/>
      <point x="645" y="-250" type="curve" smooth="yes"/>
      <point x="697" y="-250"/>
      <point x="737" y="-226"/>
    </contour>
  </outline>
</glyph>
<glyph name="tilde" format="2">
  <advance width="1200"/>
  <unicode hex="02DC"/>
  <outline>
    <contour>
      <point x="208" y="1075" type="line"/>
      <point x="208" y="1243"/>
      <point x="327" y="1363"/>
      <point x="459" y="1363" type="curve" smooth="yes"/>
      <point x="516" y="1363"/>
      <point x="551.094" y="1345.54"/>
      <point x="621" y="1301" type="curve" smooth="yes"/>
      <point x="661.987" y="1274.88"/>
      <point x="685" y="1259"/>
      <point x="711" y="1259" type="curve" smooth="yes"/>
      <point x="749" y="1259"/>
      <point x="762" y="1304"/>
      <point x="762" y="1337" type="curve"/>
      <point x="992" y="1337" type="line"/>
      <point x="992" y="1168"/>
      <point x="883" y="1049"/>
      <point x="741" y="1049" type="curve" smooth="yes"/>
      <point x="674" y="1049"/>
      <point x="618.906" y="1086.46"/>
      <point x="579" y="1111" type="curve" smooth="yes"/>
      <point x="537.603" y="1136.46"/>
      <point x="525" y="1153"/>
      <point x="499" y="1153" type="curve" smooth="yes"/>
      <point x="461" y="1153"/>
      <point x="438" y="1108"/>
      <point x="438" y="1075" type="curve"/>
    </contour>
  </outline>
</glyph>
<glyph name="hungarumlaut" format="2">
  <advance width="1200"/>
  <unicode hex="02DD"/>
  <outline>
    <contour>
      <point x="662" y="1105" type="line"/>
      <point x="816" y="1421" type="line"/>
      <point x="1050" y="1261" type="line"/>
      <point x="792" y="1015" type="line"/>
    </contour>
    <contour>
      <point x="262" y="1105" type="line"/>
      <point x="416" y="1421" type="line"/>
      <point x="650" y="1261" type="line"/>
      <point x="392" y="1015" type="line"/>
    </contour>
  </outline>
</glyph>
<glyph name="gravecomb" format="2">
  <advance width="1200"/>
  <unicode hex="0300"/>
  <anchor x="-596" y="920" name="_Anchor-0"/>
  <outline>
    <contour>
      <point x="-422" y="1105" type="line"/>
      <point x="-552" y="1015" type="line"/>
      <point x="-810" y="1261" type="line"/>
      <point x="-576" y="1421" type="line"/>
    </contour>
  </outline>
</glyph>
<glyph name="uni0302" format="2">
  <advance width="1200"/>
  <unicode hex="0302"/>
  <anchor x="-596" y="920" name="_Anchor-0"/>
  <outline>
    <contour>
      <point x="-742" y="1021" type="line"/>
      <point x="-934" y="1151" type="line"/>
      <point x="-594" y="1430" type="line"/>
      <point x="-266" y="1151" type="line"/>
      <point x="-456" y="1021" type="line"/>
      <point x="-674" y="1260" type="line"/>
      <point x="-514" y="1260" type="line"/>
    </contour>
  </outline>
</glyph>
<glyph name="uni0304" format="2">
  <advance width="1200"/>
  <unicode hex="0304"/>
  <anchor x="-596" y="920" name="_Anchor-0"/>
  <outline>
    <contour>
      <point x="-831" y="1270" type="line"/>
      <point x="-329" y="1270" type="line"/>
      <point x="-369" y="1040" type="line"/>
      <point x="-871" y="1040" type="line"/>
    </contour>
  </outline>
</glyph>
<glyph name="uni0308" format="2">
  <advance width="1200"/>
  <unicode hex="0308"/>
  <anchor x="-604" y="920" name="_Anchor-0"/>
  <outline>
    <contour>
      <point x="-542" y="1240" type="curve" smooth="yes"/>
      <point x="-542" y="1331"/>
      <point x="-471" y="1402"/>
      <point x="-380" y="1402" type="curve" smooth="yes"/>
      <point x="-289" y="1402"/>
      <point x="-218" y="1331"/>
      <point x="-218" y="1240" type="curve" smooth="yes"/>
      <point x="-218" y="1149"/>
      <point x="-285" y="1078"/>
      <point x="-376" y="1078" type="curve" smooth="yes"/>
      <point x="-467" y="1078"/>
      <point x="-542" y="1149"/>
    </contour>
    <contour>
      <point x="-982" y="1240" type="curve" smooth="yes"/>
      <point x="-982" y="1331"/>
      <point x="-911" y="1402"/>
      <point x="-820" y="1402" type="curve" smooth="yes"/>
      <point x="-729" y="1402"/>
      <point x="-658" y="1331"/>
      <point x="-658" y="1240" type="curve" smooth="yes"/>
      <point x="-658" y="1149"/>
      <point x="-725" y="1078"/>
      <point x="-816" y="1078" type="curve" smooth="yes"/>
      <point x="-907" y="1078"/>
      <point x="-982" y="1149"/>
    </contour>
  </outline>
</glyph>
<glyph name="uni030B" format="2">
  <advance width="1200"/>
  <unicode hex="030B"/>
  <anchor x="-604" y="920" name="_Anchor-0"/>
  <outline>
    <contour>
      <point x="-538" y="1105" type="line"/>
      <point x="-384" y="1421" type="line"/>
      <point x="-150" y="1261" type="line"/>
      <point x="-408" y="1015" type="line"/>
    </contour>
    <contour>
      <point x="-938" y="1105" type="line"/>
      <point x="-784" y="1421" type="line"/>
      <point x="-550" y="1261" type="line"/>
      <point x="-808" y="1015" type="line"/>
    </contour>
  </outline>
</glyph>
<glyph name="uni0312" format="2">
  <advance width="1200"/>
  <unicode hex="0312"/>
  <outline>
    <contour>
      <point x="-428" y="1264" type="line"/>
      <point x="-519" y="806" type="line"/>
      <point x="-777" y="806" type="line"/>
      <point x="-578" y="1264" type="line"/>
    </contour>
  </outline>
</glyph>
<glyph name="uni0328" format="2">
  <advance width="1200"/>
  <unicode hex="0328"/>
  <anchor x="-600" y="0" name="_Anchor-3"/>
  <outline>
    <contour>
      <point x="-435" y="-200" type="curve"/>
      <point x="-339" y="-370" type="line"/>
      <point x="-389" y="-410"/>
      <point x="-479" y="-450"/>
      <point x="-585" y="-450" type="curve" smooth="yes"/>
      <point x="-723" y="-450"/>
      <point x="-821" y="-378"/>
      <point x="-821" y="-250" type="curve" smooth="yes"/>
      <point x="-821" y="-112"/>
      <point x="-687" y="-2"/>
      <point x="-527" y="70" type="curve"/>
      <point x="-415" y="0" type="line"/>
      <point x="-519" y="-54"/>
      <point x="-601" y="-156"/>
      <point x="-601" y="-210" type="curve" smooth="yes"/>
      <point x="-601" y="-232"/>
      <point x="-585" y="-250"/>
      <point x="-555" y="-250" type="curve" smooth="yes"/>
      <point x="-503" y="-250"/>
      <point x="-463" y="-226"/>
    </contour>
  </outline>
</glyph>
<glyph name="uni0394" format="2">
  <advance width="1200"/>
  <unicode hex="0394"/>
  <outline>
    <contour>
      <point x="214" y="0" type="line"/>
      <point x="-63" y="0" type="line"/>
      <point x="609" y="1300" type="line"/>
      <point x="909" y="1300" type="line"/>
      <point x="1103" y="0" type="line"/>
      <point x="836" y="0" type="line"/>
      <point x="682" y="1230" type="line"/>
      <point x="822" y="1230" type="line"/>
    </contour>
    <contour>
      <point x="166" y="230" type="line"/>
      <point x="963" y="230" type="line"/>
      <point x="922" y="0" type="line"/>
      <point x="125" y="0" type="line"/>
    </contour>
  </outline>
</glyph>
<glyph name="uni03A9" format="2">
  <advance width="1200"/>
  <unicode hex="03A9"/>
  <outline>
    <contour>
      <point x="429" y="0" type="line"/>
      <point x="-1" y="0" type="line"/>
      <point x="40" y="230" type="line"/>
      <point x="291" y="230" type="line"/>
      <point x="307" y="323" type="line"/>
      <point x="240" y="387"/>
      <point x="56" y="485"/>
      <point x="108" y="780" type="curve" smooth="yes"/>
      <point x="174" y="1156"/>
      <point x="455" y="1320"/>
      <point x="752" y="1320" type="curve" smooth="yes"/>
      <point x="1049" y="1320"/>
      <point x="1273" y="1156"/>
      <point x="1207" y="780" type="curve" smooth="yes"/>
      <point x="1155" y="485"/>
      <point x="935" y="386"/>
      <point x="845" y="322" type="curve"/>
      <point x="829" y="230" type="line"/>
      <point x="1080" y="230" type="line"/>
      <point x="1039" y="0" type="line"/>
      <point x="609" y="0" type="line"/>
      <point x="666" y="324" type="line"/>
      <point x="766" y="386"/>
      <point x="907" y="555"/>
      <point x="941" y="750" type="curve" smooth="yes"/>
      <point x="977" y="953"/>
      <point x="897" y="1080"/>
      <point x="709" y="1080" type="curve" smooth="yes"/>
      <point x="521" y="1080"/>
      <point x="398" y="953"/>
      <point x="362" y="750" type="curve" smooth="yes"/>
      <point x="328" y="555"/>
      <point x="409" y="386"/>
      <point x="486" y="324" type="curve"/>
    </contour>
  </outline>
</glyph>
<glyph name="pi" format="2">
  <advance width="1200"/>
  <unicode hex="03C0"/>
  <outline>
    <contour>
      <point x="53" y="470" type="line"/>
      <point x="132" y="920" type="line"/>
      <point x="279" y="680" type="line"/>
      <point x="212" y="470" type="line"/>
    </contour>
    <contour>
      <point x="372" y="860" type="line"/>
      <point x="632" y="860" type="line"/>
      <point x="480" y="0" type="line"/>
      <point x="220" y="0" type="line"/>
    </contour>
    <contour>
      <point x="132" y="920" type="line"/>
      <point x="1202" y="920" type="line"/>
      <point x="1158" y="670" type="line"/>
      <point x="88" y="670" type="line"/>
    </contour>
    <contour>
      <point x="782" y="860" type="line"/>
      <point x="1042" y="860" type="line"/>
      <point x="945" y="312" type="line" smooth="yes"/>
      <point x="931" y="230"/>
      <point x="975" y="222"/>
      <point x="1035" y="222" type="curve"/>
      <point x="993" y="-18" type="line"/>
      <point x="825" y="-18"/>
      <point x="631" y="4"/>
      <point x="669" y="222" type="curve" smooth="yes"/>
    </contour>
  </outline>
</glyph>
<glyph name="uni1E9E" format="2">
  <advance width="1200"/>
  <unicode hex="1E9E"/>
  <outline>
    <contour>
      <point x="-10" y="0" type="line"/>
      <point x="31" y="230" type="line"/>
      <point x="111" y="230" type="line"/>
      <point x="224" y="880" type="line" smooth="yes"/>
      <point x="267" y="1126"/>
      <point x="485" y="1320"/>
      <point x="792" y="1320" type="curve"/>
      <point x="749" y="1080" type="line"/>
      <point x="611" y="1080"/>
      <point x="511" y="1033"/>
      <point x="484" y="880" type="curve" smooth="yes"/>
      <point x="370" y="230" type="line"/>
      <point x="461" y="230" type="line"/>
      <point x="420" y="0" type="line"/>
    </contour>
    <contour>
      <point x="792" y="1320" type="line"/>
      <point x="1020" y="1320"/>
      <point x="1215" y="1181"/>
      <point x="1295" y="1069" type="curve"/>
      <point x="926" y="757" type="line"/>
      <point x="1054" y="733"/>
      <point x="1205" y="658"/>
      <point x="1157" y="386" type="curve" smooth="yes"/>
      <point x="1112" y="131"/>
      <point x="916" y="-19"/>
      <point x="698" y="-19" type="curve" smooth="yes"/>
      <point x="644" y="-19"/>
      <point x="564" y="-9"/>
      <point x="504" y="23" type="curve"/>
      <point x="595" y="258" type="line"/>
      <point x="641" y="232"/>
      <point x="685" y="225"/>
      <point x="723" y="225" type="curve" smooth="yes"/>
      <point x="813" y="225"/>
      <point x="868" y="293"/>
      <point x="879" y="354" type="curve" smooth="yes"/>
      <point x="907" y="511"/>
      <point x="700" y="609"/>
      <point x="559" y="657" type="curve"/>
      <point x="948" y="1029" type="line"/>
      <point x="903" y="1057"/>
      <point x="832" y="1080"/>
      <point x="749" y="1080" type="curve"/>
    </contour>
  </outline>
</glyph>
<glyph name="uni2011" format="2">
  <advance width="1200"/>
  <unicode hex="2011"/>
  <outline>
    <contour>
      <point x="328" y="790" type="line"/>
      <point x="990" y="790" type="line"/>
      <point x="950" y="560" type="line"/>
      <point x="288" y="560" type="line"/>
    </contour>
  </outline>
</glyph>
<glyph name="figuredash" format="2">
  <advance width="1200"/>
  <unicode hex="2012"/>
  <outline>
    <contour>
      <point x="248" y="790" type="line"/>
      <point x="1070" y="790" type="line"/>
      <point x="1030" y="560" type="line"/>
      <point x="208" y="560" type="line"/>
    </contour>
  </outline>
</glyph>
<glyph name="endash" format="2">
  <advance width="1200"/>
  <unicode hex="2013"/>
  <outline>
    <contour>
      <point x="168" y="790" type="line"/>
      <point x="1150" y="790" type="line"/>
      <point x="1110" y="560" type="line"/>
      <point x="128" y="560" type="line"/>
    </contour>
  </outline>
</glyph>
<glyph name="emdash" format="2">
  <advance width="1200"/>
  <unicode hex="2014"/>
  <outline>
    <contour>
      <point x="88" y="790" type="line"/>
      <point x="1230" y="790" type="line"/>
      <point x="1190" y="560" type="line"/>
      <point x="48" y="560" type="line"/>
    </contour>
  </outline>
</glyph>
<glyph name="uni2015" format="2">
  <advance width="1200"/>
  <unicode hex="2015"/>
  <outline>
    <contour>
      <point x="8" y="790" type="line"/>
      <point x="1310" y="790" type="line"/>
      <point x="1270" y="560" type="line"/>
      <point x="-32" y="560" type="line"/>
    </contour>
  </outline>
</glyph>
<glyph name="quotereversed" format="2">
  <advance width="1200"/>
  <unicode hex="201B"/>
  <outline>
    <contour>
      <point x="688" y="690" type="line"/>
      <point x="498" y="690" type="line"/>
      <point x="563" y="1300" type="line"/>
      <point x="873" y="1300" type="line"/>
    </contour>
  </outline>
</glyph>
<glyph name="quotedblright" format="2">
  <advance width="1200"/>
  <unicode hex="201D"/>
  <outline>
    <contour>
      <point x="739" y="730" type="line"/>
      <point x="866" y="1340" type="line"/>
      <point x="1176" y="1340" type="line"/>
      <point x="919" y="730" type="line"/>
    </contour>
    <contour>
      <point x="279" y="730" type="line"/>
      <point x="406" y="1340" type="line"/>
      <point x="716" y="1340" type="line"/>
      <point x="459" y="730" type="line"/>
    </contour>
  </outline>
</glyph>
<glyph name="dagger" format="2">
  <advance width="1200"/>
  <unicode hex="2020"/>
  <outline>
    <contour>
      <point x="628" y="1300" type="line"/>
      <point x="870" y="1300" type="line"/>
      <point x="641" y="0" type="line"/>
      <point x="399" y="0" type="line"/>
    </contour>
    <contour>
      <point x="224" y="1050" type="line"/>
      <point x="1186" y="1050" type="line"/>
      <point x="1147" y="830" type="line"/>
      <point x="185" y="830" type="line"/>
    </contour>
  </outline>
</glyph>
<glyph name="perthousand" format="2">
  <advance width="1200"/>
  <unicode hex="2030"/>
  <outline>
    <contour>
      <point x="939" y="230" type="curve" smooth="yes"/>
      <point x="948" y="283"/>
      <point x="934" y="295"/>
      <point x="916" y="295" type="curve" smooth="yes"/>
      <point x="888" y="295"/>
      <point x="870" y="283"/>
      <point x="861" y="230" type="curve" smooth="yes"/>
      <point x="852" y="177"/>
      <point x="855" y="165"/>
      <point x="883" y="165" type="curve" smooth="yes"/>
      <point x="911" y="165"/>
      <point x="930" y="177"/>
    </contour>
    <contour>
      <point x="715" y="230" type="curve" smooth="yes"/>
      <point x="741" y="376"/>
      <point x="812" y="480"/>
      <point x="949" y="480" type="curve" smooth="yes"/>
      <point x="1086" y="480"/>
      <point x="1141" y="376"/>
      <point x="1115" y="230" type="curve" smooth="yes"/>
      <point x="1087" y="74"/>
      <point x="1007" y="-20"/>
      <point x="870" y="-20" type="curve" smooth="yes"/>
      <point x="733" y="-20"/>
      <point x="687" y="74"/>
    </contour>
    <contour>
      <point x="609" y="230" type="curve" smooth="yes"/>
      <point x="618" y="283"/>
      <point x="604" y="295"/>
      <point x="586" y="295" type="curve" smooth="yes"/>
      <point x="558" y="295"/>
      <point x="540" y="283"/>
      <point x="531" y="230" type="curve" smooth="yes"/>
      <point x="522" y="177"/>
      <point x="525" y="165"/>
      <point x="553" y="165" type="curve" smooth="yes"/>
      <point x="581" y="165"/>
      <point x="600" y="177"/>
    </contour>
    <contour>
      <point x="355" y="230" type="curve" smooth="yes"/>
      <point x="381" y="376"/>
      <point x="472" y="480"/>
      <point x="599" y="480" type="curve" smooth="yes"/>
      <point x="746" y="480"/>
      <point x="781" y="376"/>
      <point x="755" y="230" type="curve" smooth="yes"/>
      <point x="727" y="74"/>
      <point x="667" y="-20"/>
      <point x="520" y="-20" type="curve" smooth="yes"/>
      <point x="393" y="-20"/>
      <point x="327" y="74"/>
    </contour>
    <contour>
      <point x="459" y="1070" type="curve" smooth="yes"/>
      <point x="467" y="1113"/>
      <point x="454" y="1135"/>
      <point x="416" y="1135" type="curve" smooth="yes"/>
      <point x="378" y="1135"/>
      <point x="349" y="1113"/>
      <point x="341" y="1070" type="curve" smooth="yes"/>
      <point x="335" y="1037"/>
      <point x="347" y="1015"/>
      <point x="385" y="1015" type="curve" smooth="yes"/>
      <point x="423" y="1015"/>
      <point x="453" y="1037"/>
    </contour>
    <contour>
      <point x="155" y="1070" type="curve" smooth="yes"/>
      <point x="181" y="1216"/>
      <point x="282" y="1320"/>
      <point x="439" y="1320" type="curve" smooth="yes"/>
      <point x="565" y="1320"/>
      <point x="659" y="1246"/>
      <point x="815" y="1246" type="curve" smooth="yes"/>
      <point x="975" y="1246"/>
      <point x="1056" y="1282"/>
      <point x="1176" y="1370" type="curve"/>
      <point x="1264" y="1265" type="line"/>
      <point x="60" y="105" type="line"/>
      <point x="-61" y="225" type="line"/>
      <point x="1083" y="1299" type="line"/>
      <point x="1085" y="1226" type="line"/>
      <point x="917" y="1117"/>
      <point x="806" y="1041"/>
      <point x="723" y="1041" type="curve" smooth="yes"/>
      <point x="609" y="1041"/>
      <point x="588" y="1178"/>
      <point x="571" y="1204" type="curve"/>
      <point x="603" y="1201" type="line"/>
      <point x="629" y="1164"/>
      <point x="654" y="1126"/>
      <point x="639" y="1040" type="curve" smooth="yes"/>
      <point x="619" y="924"/>
      <point x="508" y="820"/>
      <point x="361" y="820" type="curve" smooth="yes"/>
      <point x="224" y="820"/>
      <point x="124" y="894"/>
    </contour>
  </outline>
</glyph>
<glyph name="guilsinglleft" format="2">
  <advance width="1200"/>
  <unicode hex="2039"/>
  <outline>
    <contour>
      <point x="367" y="525" type="line"/>
      <point x="768" y="920" type="line"/>
      <point x="909" y="810" type="line"/>
      <point x="647" y="525" type="line"/>
      <point x="808" y="240" type="line"/>
      <point x="629" y="130" type="line"/>
    </contour>
  </outline>
</glyph>
<glyph name="uni203D" format="2">
  <advance width="1200"/>
  <unicode hex="203D"/>
  <outline>
    <contour>
      <point x="348" y="893" type="curve"/>
      <point x="203" y="999" type="line"/>
      <point x="323" y="1139"/>
      <point x="606" y="1320"/>
      <point x="902" y="1320" type="curve"/>
      <point x="802" y="1100" type="line"/>
      <point x="664" y="1100"/>
      <point x="480" y="996"/>
    </contour>
    <contour>
      <point x="351" y="180" type="curve" smooth="yes"/>
      <point x="351" y="293"/>
      <point x="437" y="380"/>
      <point x="550" y="380" type="curve" smooth="yes"/>
      <point x="663" y="380"/>
      <point x="749" y="293"/>
      <point x="749" y="180" type="curve" smooth="yes"/>
      <point x="749" y="67"/>
      <point x="668" y="-20"/>
      <point x="555" y="-20" type="curve" smooth="yes"/>
      <point x="442" y="-20"/>
      <point x="351" y="67"/>
    </contour>
    <contour>
      <point x="911" y="1020" type="curve" smooth="yes"/>
      <point x="911" y="1073"/>
      <point x="870" y="1100"/>
      <point x="802" y="1100" type="curve"/>
      <point x="902" y="1320" type="line"/>
      <point x="1108" y="1320"/>
      <point x="1231" y="1236"/>
      <point x="1231" y="1090" type="curve" smooth="yes"/>
      <point x="1231" y="886"/>
      <point x="956" y="761"/>
      <point x="794" y="659" type="curve" smooth="yes"/>
      <point x="682" y="588"/>
      <point x="634" y="566"/>
      <point x="591" y="461" type="curve"/>
      <point x="531" y="602" type="line"/>
      <point x="542" y="656"/>
      <point x="614" y="722"/>
      <point x="686" y="790" type="curve" smooth="yes"/>
      <point x="795.489" y="893.407"/>
      <point x="911" y="940"/>
    </contour>
    <contour>
      <point x="520" y="430" type="line"/>
      <point x="480" y="920" type="line"/>
      <point x="800" y="980" type="line"/>
      <point x="680" y="430" type="line"/>
    </contour>
  </outline>
</glyph>
